<svg width="1050" height="1056" viewBox="0 0 1050 1056" fill="none" xmlns="http://www.w3.org/2000/svg">
<path d="M525.894 485.762L371.246 121.44H680.543L525.894 485.762Z" fill="#A93B3E"/>
<path d="M557.194 494.45L706.558 127.677L924.698 346.966L557.194 494.45Z" fill="#BE86B9"/>
<path d="M564.287 525.948L928.574 371.286V680.611L564.287 525.948Z" fill="#A93B3E"/>
<path d="M553.972 556.557L923.418 699.104L708.235 921.296L553.972 556.557Z" fill="#A3CE6B"/>
<path d="M525.897 569.705L680.545 934.026H371.249L525.897 569.705Z" fill="#A93B3E"/>
<path d="M497.357 553.703L352.405 922.243L131.649 705.587L497.357 553.703Z" fill="#BE86B9"/>
<path d="M485.716 525.95L121.429 680.613L121.429 371.288L485.716 525.95Z" fill="#A93B3E"/>
<path d="M498.719 501.079L131.469 352.963L349.987 134.049L498.719 501.079Z" fill="#A3CE6B"/>
<path d="M569.936 417.664L633.233 480.676L633.439 569.994L570.433 633.297L481.123 633.503L417.826 570.491L417.62 481.173L480.626 417.87L569.936 417.664Z" fill="#FFFCFC"/>
<path d="M562.196 440.494L612.791 490.861L612.956 562.255L562.594 612.855L491.207 613.019L440.612 562.652L440.447 491.259L490.809 440.659L562.196 440.494Z" fill="#A93B3E"/>
</svg>
