<svg width="378" height="37" viewBox="0 0 378 37" fill="none" xmlns="http://www.w3.org/2000/svg">
<path d="M10.88 29V13C10.88 12.424 10.9013 11.72 10.944 10.888C10.9867 10.056 11.0187 9.34133 11.04 8.744H10.912C10.6133 9.29867 10.304 9.87466 9.984 10.472C9.68533 11.048 9.36533 11.624 9.024 12.2L3.68 20.2H16.768V22.536H0.64V20.616L10.4 5.544H13.632V29H10.88Z" fill="#1C1B1B"/>
<path d="M28.08 13.26H38.5V14.72H28.08V13.26ZM28.08 18.08H38.6V19.5H28.08V18.08ZM27.92 22.9H38.5V24.36H27.92V22.9ZM27.14 13.26H28.66V19.42C28.66 20.2867 28.6133 21.2133 28.52 22.2C28.44 23.1867 28.2667 24.1867 28 25.2C27.7333 26.2 27.3333 27.1667 26.8 28.1C26.28 29.0333 25.5867 29.8733 24.72 30.62C24.6533 30.5133 24.5467 30.3867 24.4 30.24C24.2667 30.0933 24.1267 29.9533 23.98 29.82C23.8333 29.7 23.7 29.6067 23.58 29.54C24.3933 28.82 25.0333 28.0467 25.5 27.22C25.98 26.38 26.3333 25.5133 26.56 24.62C26.8 23.7267 26.9533 22.84 27.02 21.96C27.1 21.0667 27.14 20.22 27.14 19.42V13.26ZM37.84 13.26H39.42V28.38C39.42 28.9133 39.34 29.32 39.18 29.6C39.02 29.88 38.7533 30.0867 38.38 30.22C37.9933 30.3533 37.4533 30.4333 36.76 30.46C36.0667 30.5 35.1867 30.52 34.12 30.52C34.0933 30.36 34.04 30.1867 33.96 30C33.8933 29.8133 33.8133 29.62 33.72 29.42C33.64 29.2333 33.56 29.0733 33.48 28.94C34.04 28.9533 34.5733 28.9667 35.08 28.98C35.6 28.98 36.0467 28.98 36.42 28.98C36.8067 28.9667 37.0733 28.96 37.22 28.96C37.46 28.9467 37.62 28.9 37.7 28.82C37.7933 28.7267 37.84 28.5733 37.84 28.36V13.26Z" fill="#1C1B1B"/>
<path d="M93.52 13.56H106.64V30.28H105.04V15.06H95.06V30.38H93.52V13.56ZM94.56 20.48H105.72V21.96H94.56V20.48ZM94.52 27.58H105.74V29.08H94.52V27.58Z" fill="#1C1B1B"/>
<path d="M119.78 30.92C118.86 29.4267 118.14 27.86 117.62 26.22C117.1 24.5667 116.84 22.7533 116.84 20.78C116.84 18.82 117.1 17.0133 117.62 15.36C118.14 13.7067 118.86 12.1333 119.78 10.64L120.9 11.16C120.047 12.5867 119.407 14.1267 118.98 15.78C118.567 17.42 118.36 19.0867 118.36 20.78C118.36 22.4867 118.567 24.1667 118.98 25.82C119.407 27.46 120.047 28.9933 120.9 30.42L119.78 30.92ZM124.058 15.32H130.058V16.84H124.058V15.32ZM132.198 10.24H133.778V26.48C133.778 27.0133 133.698 27.4133 133.538 27.68C133.391 27.9467 133.151 28.1533 132.818 28.3C132.484 28.42 132.018 28.5 131.418 28.54C130.818 28.5933 130.058 28.62 129.138 28.62C129.111 28.46 129.064 28.28 128.998 28.08C128.931 27.8933 128.858 27.7 128.778 27.5C128.698 27.3 128.611 27.1267 128.518 26.98C129.251 26.9933 129.904 27 130.478 27C131.064 27.0133 131.458 27.0133 131.658 27C131.858 26.9867 131.998 26.9467 132.078 26.88C132.158 26.8 132.198 26.6667 132.198 26.48V10.24ZM129.538 15.32H129.858L130.138 15.26L131.158 15.66C130.811 17.4067 130.324 18.9867 129.698 20.4C129.071 21.8133 128.338 23.0467 127.498 24.1C126.658 25.1533 125.744 26.0067 124.758 26.66C124.678 26.54 124.564 26.4067 124.418 26.26C124.271 26.1 124.118 25.9467 123.958 25.8C123.798 25.6533 123.658 25.5467 123.538 25.48C124.498 24.88 125.378 24.1067 126.178 23.16C126.978 22.2133 127.664 21.1133 128.238 19.86C128.824 18.5933 129.258 17.2 129.538 15.68V15.32ZM133.678 13.52C134.024 14.8533 134.464 16.1467 134.998 17.4C135.531 18.6533 136.158 19.82 136.878 20.9C137.598 21.9667 138.418 22.9133 139.338 23.74C140.258 24.5667 141.278 25.22 142.398 25.7C142.278 25.7933 142.144 25.92 141.998 26.08C141.851 26.24 141.711 26.4067 141.578 26.58C141.444 26.7533 141.331 26.9133 141.238 27.06C139.718 26.3133 138.391 25.28 137.258 23.96C136.138 22.6267 135.184 21.0933 134.398 19.36C133.624 17.6133 132.991 15.7533 132.498 13.78L133.678 13.52ZM140.218 13.44L141.598 14.42C141.051 15.0333 140.444 15.6733 139.778 16.34C139.124 16.9933 138.464 17.62 137.798 18.22C137.131 18.82 136.504 19.3467 135.918 19.8L134.858 18.96C135.431 18.4933 136.044 17.9467 136.698 17.32C137.364 16.68 138.004 16.0267 138.618 15.36C139.244 14.68 139.778 14.04 140.218 13.44ZM146.138 30.92L144.998 30.42C145.864 28.9933 146.511 27.46 146.938 25.82C147.364 24.1667 147.578 22.4867 147.578 20.78C147.578 19.0867 147.364 17.42 146.938 15.78C146.511 14.1267 145.864 12.5867 144.998 11.16L146.138 10.64C147.071 12.1333 147.791 13.7067 148.298 15.36C148.818 17.0133 149.078 18.82 149.078 20.78C149.078 22.7533 148.818 24.5667 148.298 26.22C147.791 27.86 147.071 29.4267 146.138 30.92Z" fill="#1C1B1B"/>
<path d="M50.816 29V26.568H56.064V9.064H51.872V7.208C52.9173 7.016 53.824 6.78133 54.592 6.504C55.3813 6.22667 56.096 5.90667 56.736 5.544H58.976V26.568H63.68V29H50.816ZM76.054 29.416C74.838 29.416 73.7607 29.2667 72.822 28.968C71.9047 28.6693 71.094 28.2853 70.39 27.816C69.7073 27.3467 69.0887 26.8453 68.534 26.312L70.006 24.392C70.454 24.84 70.9447 25.2667 71.478 25.672C72.0327 26.056 72.662 26.376 73.366 26.632C74.07 26.8667 74.87 26.984 75.766 26.984C76.6833 26.984 77.5153 26.76 78.262 26.312C79.03 25.864 79.638 25.224 80.086 24.392C80.534 23.56 80.758 22.5787 80.758 21.448C80.758 19.784 80.31 18.4827 79.414 17.544C78.5393 16.584 77.366 16.104 75.894 16.104C75.126 16.104 74.454 16.2213 73.878 16.456C73.302 16.6907 72.6727 17.032 71.99 17.48L70.422 16.488L71.19 5.544H82.582V8.04H73.75L73.142 14.824C73.654 14.5253 74.1873 14.3013 74.742 14.152C75.318 13.9813 75.958 13.896 76.662 13.896C77.9633 13.896 79.1473 14.1627 80.214 14.696C81.2807 15.208 82.134 16.0187 82.774 17.128C83.414 18.2373 83.734 19.656 83.734 21.384C83.734 23.0907 83.3607 24.5413 82.614 25.736C81.8887 26.9307 80.9393 27.848 79.766 28.488C78.5927 29.1067 77.3553 29.416 76.054 29.416Z" fill="#1C1B1B"/>
<path d="M163.816 29V26.568H169.064V9.064H164.872V7.208C165.917 7.016 166.824 6.78133 167.592 6.504C168.381 6.22667 169.096 5.90667 169.736 5.544H171.976V26.568H176.68V29H163.816ZM189.086 29.416C187.87 29.416 186.793 29.2667 185.854 28.968C184.937 28.6693 184.126 28.2747 183.422 27.784C182.718 27.2933 182.11 26.76 181.598 26.184L183.102 24.296C183.785 25 184.585 25.6293 185.502 26.184C186.441 26.7173 187.571 26.984 188.894 26.984C189.833 26.984 190.654 26.8133 191.358 26.472C192.083 26.1093 192.649 25.608 193.054 24.968C193.459 24.3067 193.662 23.528 193.662 22.632C193.662 21.6933 193.427 20.872 192.958 20.168C192.51 19.464 191.753 18.92 190.686 18.536C189.619 18.1307 188.179 17.928 186.366 17.928V15.688C187.987 15.688 189.267 15.496 190.206 15.112C191.145 14.7067 191.817 14.1627 192.222 13.48C192.649 12.7973 192.862 12.04 192.862 11.208C192.862 10.0773 192.51 9.18133 191.806 8.52C191.102 7.83733 190.131 7.496 188.894 7.496C187.955 7.496 187.07 7.70933 186.238 8.136C185.427 8.56267 184.691 9.10667 184.03 9.768L182.462 7.912C183.358 7.10133 184.329 6.44 185.374 5.928C186.441 5.39467 187.646 5.128 188.99 5.128C190.313 5.128 191.486 5.36267 192.51 5.832C193.555 6.28 194.366 6.94133 194.942 7.816C195.539 8.69066 195.838 9.74667 195.838 10.984C195.838 12.4133 195.454 13.5973 194.686 14.536C193.918 15.4747 192.915 16.168 191.678 16.616V16.776C192.595 16.9893 193.427 17.3627 194.174 17.896C194.921 18.4293 195.518 19.1013 195.966 19.912C196.414 20.7227 196.638 21.6613 196.638 22.728C196.638 24.1147 196.297 25.3093 195.614 26.312C194.931 27.3147 194.025 28.0827 192.894 28.616C191.763 29.1493 190.494 29.416 189.086 29.416ZM204.788 16.52C204.212 16.52 203.711 16.3173 203.284 15.912C202.879 15.4853 202.676 14.9413 202.676 14.28C202.676 13.6187 202.879 13.0853 203.284 12.68C203.711 12.2533 204.212 12.04 204.788 12.04C205.364 12.04 205.855 12.2533 206.26 12.68C206.687 13.0853 206.9 13.6187 206.9 14.28C206.9 14.9413 206.687 15.4853 206.26 15.912C205.855 16.3173 205.364 16.52 204.788 16.52ZM204.788 29.416C204.212 29.416 203.711 29.2133 203.284 28.808C202.879 28.3813 202.676 27.848 202.676 27.208C202.676 26.5253 202.879 25.9813 203.284 25.576C203.711 25.1707 204.212 24.968 204.788 24.968C205.364 24.968 205.855 25.1707 206.26 25.576C206.687 25.9813 206.9 26.5253 206.9 27.208C206.9 27.848 206.687 28.3813 206.26 28.808C205.855 29.2133 205.364 29.416 204.788 29.416ZM213.982 29V26.568H219.23V9.064H215.038V7.208C216.084 7.016 216.99 6.78133 217.758 6.504C218.548 6.22667 219.262 5.90667 219.902 5.544H222.142V26.568H226.846V29H213.982ZM239.732 29.416C238.26 29.416 236.97 28.968 235.86 28.072C234.772 27.176 233.93 25.8213 233.332 24.008C232.735 22.1947 232.436 19.9227 232.436 17.192C232.436 14.4613 232.735 12.2107 233.332 10.44C233.93 8.648 234.772 7.31467 235.86 6.44C236.97 5.56533 238.26 5.128 239.732 5.128C241.226 5.128 242.516 5.576 243.604 6.472C244.692 7.34667 245.535 8.66933 246.132 10.44C246.73 12.2107 247.028 14.4613 247.028 17.192C247.028 19.9227 246.73 22.1947 246.132 24.008C245.535 25.8213 244.692 27.176 243.604 28.072C242.516 28.968 241.226 29.416 239.732 29.416ZM239.732 27.048C240.628 27.048 241.407 26.7067 242.068 26.024C242.751 25.3413 243.274 24.2747 243.636 22.824C244.02 21.352 244.212 19.4747 244.212 17.192C244.212 14.9093 244.02 13.0533 243.636 11.624C243.274 10.1733 242.751 9.11733 242.068 8.456C241.407 7.77333 240.628 7.432 239.732 7.432C238.858 7.432 238.079 7.77333 237.396 8.456C236.714 9.11733 236.18 10.1733 235.796 11.624C235.434 13.0533 235.252 14.9093 235.252 17.192C235.252 19.4747 235.434 21.352 235.796 22.824C236.18 24.2747 236.714 25.3413 237.396 26.024C238.079 26.7067 238.858 27.048 239.732 27.048Z" fill="#1C1B1B"/>
<path d="M268.104 17.736C267.251 16.9253 266.419 16.2853 265.608 15.816C264.819 15.3467 263.837 15.112 262.664 15.112C261.405 15.112 260.243 15.5067 259.176 16.296C258.131 17.064 257.277 18.0773 256.616 19.336L254.344 18.12C255.347 16.2853 256.563 14.8987 257.992 13.96C259.443 13 261.011 12.52 262.696 12.52C264.147 12.52 265.427 12.8187 266.536 13.416C267.667 13.992 268.787 14.8347 269.896 15.944C270.749 16.7547 271.581 17.3947 272.392 17.864C273.203 18.3333 274.184 18.568 275.336 18.568C276.595 18.568 277.747 18.184 278.792 17.416C279.859 16.6267 280.723 15.6027 281.384 14.344L283.656 15.56C282.653 17.3947 281.427 18.792 279.976 19.752C278.547 20.6907 276.989 21.16 275.304 21.16C273.875 21.16 272.595 20.872 271.464 20.296C270.333 19.6987 269.213 18.8453 268.104 17.736Z" fill="#1C1B1B"/>
<path d="M292.816 29V26.568H298.064V9.064H293.872V7.208C294.917 7.016 295.824 6.78133 296.592 6.504C297.381 6.22667 298.096 5.90667 298.736 5.544H300.976V26.568H305.68V29H292.816ZM320.55 29V13C320.55 12.424 320.571 11.72 320.614 10.888C320.657 10.056 320.689 9.34133 320.71 8.744H320.582C320.283 9.29867 319.974 9.87466 319.654 10.472C319.355 11.048 319.035 11.624 318.694 12.2L313.35 20.2H326.438V22.536H310.31V20.616L320.07 5.544H323.302V29H320.55ZM333.788 16.52C333.212 16.52 332.711 16.3173 332.284 15.912C331.879 15.4853 331.676 14.9413 331.676 14.28C331.676 13.6187 331.879 13.0853 332.284 12.68C332.711 12.2533 333.212 12.04 333.788 12.04C334.364 12.04 334.855 12.2533 335.26 12.68C335.687 13.0853 335.9 13.6187 335.9 14.28C335.9 14.9413 335.687 15.4853 335.26 15.912C334.855 16.3173 334.364 16.52 333.788 16.52ZM333.788 29.416C333.212 29.416 332.711 29.2133 332.284 28.808C331.879 28.3813 331.676 27.848 331.676 27.208C331.676 26.5253 331.879 25.9813 332.284 25.576C332.711 25.1707 333.212 24.968 333.788 24.968C334.364 24.968 334.855 25.1707 335.26 25.576C335.687 25.9813 335.9 26.5253 335.9 27.208C335.9 27.848 335.687 28.3813 335.26 28.808C334.855 29.2133 334.364 29.416 333.788 29.416ZM348.55 29.416C347.334 29.416 346.257 29.2667 345.318 28.968C344.401 28.6693 343.59 28.2853 342.886 27.816C342.204 27.3467 341.585 26.8453 341.03 26.312L342.502 24.392C342.95 24.84 343.441 25.2667 343.974 25.672C344.529 26.056 345.158 26.376 345.862 26.632C346.566 26.8667 347.366 26.984 348.262 26.984C349.18 26.984 350.012 26.76 350.758 26.312C351.526 25.864 352.134 25.224 352.582 24.392C353.03 23.56 353.254 22.5787 353.254 21.448C353.254 19.784 352.806 18.4827 351.91 17.544C351.036 16.584 349.862 16.104 348.39 16.104C347.622 16.104 346.95 16.2213 346.374 16.456C345.798 16.6907 345.169 17.032 344.486 17.48L342.918 16.488L343.686 5.544H355.078V8.04H346.246L345.638 14.824C346.15 14.5253 346.684 14.3013 347.238 14.152C347.814 13.9813 348.454 13.896 349.158 13.896C350.46 13.896 351.644 14.1627 352.71 14.696C353.777 15.208 354.63 16.0187 355.27 17.128C355.91 18.2373 356.23 19.656 356.23 21.384C356.23 23.0907 355.857 24.5413 355.11 25.736C354.385 26.9307 353.436 27.848 352.262 28.488C351.089 29.1067 349.852 29.416 348.55 29.416ZM368.732 29.416C367.26 29.416 365.97 28.968 364.86 28.072C363.772 27.176 362.93 25.8213 362.332 24.008C361.735 22.1947 361.436 19.9227 361.436 17.192C361.436 14.4613 361.735 12.2107 362.332 10.44C362.93 8.648 363.772 7.31467 364.86 6.44C365.97 5.56533 367.26 5.128 368.732 5.128C370.226 5.128 371.516 5.576 372.604 6.472C373.692 7.34667 374.535 8.66933 375.132 10.44C375.73 12.2107 376.028 14.4613 376.028 17.192C376.028 19.9227 375.73 22.1947 375.132 24.008C374.535 25.8213 373.692 27.176 372.604 28.072C371.516 28.968 370.226 29.416 368.732 29.416ZM368.732 27.048C369.628 27.048 370.407 26.7067 371.068 26.024C371.751 25.3413 372.274 24.2747 372.636 22.824C373.02 21.352 373.212 19.4747 373.212 17.192C373.212 14.9093 373.02 13.0533 372.636 11.624C372.274 10.1733 371.751 9.11733 371.068 8.456C370.407 7.77333 369.628 7.432 368.732 7.432C367.858 7.432 367.079 7.77333 366.396 8.456C365.714 9.11733 365.18 10.1733 364.796 11.624C364.434 13.0533 364.252 14.9093 364.252 17.192C364.252 19.4747 364.434 21.352 364.796 22.824C365.18 24.2747 365.714 25.3413 366.396 26.024C367.079 26.7067 367.858 27.048 368.732 27.048Z" fill="#1C1B1B"/>
</svg>
