<svg width="378" height="37" viewBox="0 0 378 37" fill="none" xmlns="http://www.w3.org/2000/svg">
<path d="M10.88 29V13C10.88 12.424 10.9013 11.72 10.944 10.888C10.9867 10.056 11.0187 9.34133 11.04 8.744H10.912C10.6133 9.29867 10.304 9.87466 9.984 10.472C9.68533 11.048 9.36533 11.624 9.024 12.2L3.68 20.2H16.768V22.536H0.64V20.616L10.4 5.544H13.632V29H10.88Z" fill="#1C1B1B"/>
<path d="M28.08 13.26H38.5V14.72H28.08V13.26ZM28.08 18.08H38.6V19.5H28.08V18.08ZM27.92 22.9H38.5V24.36H27.92V22.9ZM27.14 13.26H28.66V19.42C28.66 20.2867 28.6133 21.2133 28.52 22.2C28.44 23.1867 28.2667 24.1867 28 25.2C27.7333 26.2 27.3333 27.1667 26.8 28.1C26.28 29.0333 25.5867 29.8733 24.72 30.62C24.6533 30.5133 24.5467 30.3867 24.4 30.24C24.2667 30.0933 24.1267 29.9533 23.98 29.82C23.8333 29.7 23.7 29.6067 23.58 29.54C24.3933 28.82 25.0333 28.0467 25.5 27.22C25.98 26.38 26.3333 25.5133 26.56 24.62C26.8 23.7267 26.9533 22.84 27.02 21.96C27.1 21.0667 27.14 20.22 27.14 19.42V13.26ZM37.84 13.26H39.42V28.38C39.42 28.9133 39.34 29.32 39.18 29.6C39.02 29.88 38.7533 30.0867 38.38 30.22C37.9933 30.3533 37.4533 30.4333 36.76 30.46C36.0667 30.5 35.1867 30.52 34.12 30.52C34.0933 30.36 34.04 30.1867 33.96 30C33.8933 29.8133 33.8133 29.62 33.72 29.42C33.64 29.2333 33.56 29.0733 33.48 28.94C34.04 28.9533 34.5733 28.9667 35.08 28.98C35.6 28.98 36.0467 28.98 36.42 28.98C36.8067 28.9667 37.0733 28.96 37.22 28.96C37.46 28.9467 37.62 28.9 37.7 28.82C37.7933 28.7267 37.84 28.5733 37.84 28.36V13.26Z" fill="#1C1B1B"/>
<path d="M93.52 13.56H106.64V30.28H105.04V15.06H95.06V30.38H93.52V13.56ZM94.56 20.48H105.72V21.96H94.56V20.48ZM94.52 27.58H105.74V29.08H94.52V27.58Z" fill="#1C1B1B"/>
<path d="M119.78 30.92C118.86 29.4267 118.14 27.86 117.62 26.22C117.1 24.5667 116.84 22.7533 116.84 20.78C116.84 18.82 117.1 17.0133 117.62 15.36C118.14 13.7067 118.86 12.1333 119.78 10.64L120.9 11.16C120.047 12.5867 119.407 14.1267 118.98 15.78C118.567 17.42 118.36 19.0867 118.36 20.78C118.36 22.4867 118.567 24.1667 118.98 25.82C119.407 27.46 120.047 28.9933 120.9 30.42L119.78 30.92ZM124.298 15.12H141.658V16.62H124.298V15.12ZM132.158 10.22H133.738V28.6H132.158V10.22ZM131.818 15.88L133.118 16.34C132.651 17.38 132.104 18.3933 131.478 19.38C130.851 20.3667 130.171 21.3067 129.438 22.2C128.704 23.08 127.931 23.8867 127.118 24.62C126.318 25.34 125.491 25.9533 124.638 26.46C124.558 26.3267 124.444 26.1867 124.298 26.04C124.164 25.88 124.031 25.7267 123.898 25.58C123.764 25.4333 123.638 25.3067 123.518 25.2C124.344 24.7467 125.158 24.1867 125.958 23.52C126.771 22.8533 127.538 22.1067 128.258 21.28C128.991 20.44 129.658 19.5667 130.258 18.66C130.871 17.74 131.391 16.8133 131.818 15.88ZM134.038 15.92C134.478 16.8133 135.004 17.7133 135.618 18.62C136.231 19.5133 136.904 20.3733 137.638 21.2C138.384 22.0267 139.158 22.7733 139.958 23.44C140.758 24.1067 141.558 24.6667 142.358 25.12C142.238 25.2133 142.104 25.34 141.958 25.5C141.811 25.6467 141.671 25.8 141.538 25.96C141.404 26.12 141.298 26.2733 141.218 26.42C140.404 25.9 139.598 25.28 138.798 24.56C137.998 23.8267 137.224 23.02 136.478 22.14C135.744 21.2467 135.058 20.3133 134.418 19.34C133.791 18.3533 133.238 17.3667 132.758 16.38L134.038 15.92ZM146.138 30.92L144.998 30.42C145.864 28.9933 146.511 27.46 146.938 25.82C147.364 24.1667 147.578 22.4867 147.578 20.78C147.578 19.0867 147.364 17.42 146.938 15.78C146.511 14.1267 145.864 12.5867 144.998 11.16L146.138 10.64C147.071 12.1333 147.791 13.7067 148.298 15.36C148.818 17.0133 149.078 18.82 149.078 20.78C149.078 22.7533 148.818 24.5667 148.298 26.22C147.791 27.86 147.071 29.4267 146.138 30.92Z" fill="#1C1B1B"/>
<path d="M50.816 29V26.568H56.064V9.064H51.872V7.208C52.9173 7.016 53.824 6.78133 54.592 6.504C55.3813 6.22667 56.096 5.90667 56.736 5.544H58.976V26.568H63.68V29H50.816ZM77.302 29.416C76.1927 29.416 75.158 29.1813 74.198 28.712C73.238 28.2213 72.406 27.496 71.702 26.536C70.998 25.5547 70.4433 24.3387 70.038 22.888C69.654 21.4373 69.462 19.7413 69.462 17.8C69.462 15.5173 69.6967 13.5653 70.166 11.944C70.6353 10.3227 71.2753 9.01067 72.086 8.008C72.8967 7.00533 73.8247 6.28 74.87 5.832C75.9153 5.36267 77.0033 5.128 78.134 5.128C79.35 5.128 80.406 5.352 81.302 5.8C82.198 6.248 82.9767 6.824 83.638 7.528L81.974 9.32C81.526 8.76533 80.9713 8.328 80.31 8.008C79.6487 7.688 78.966 7.528 78.262 7.528C77.1527 7.528 76.1393 7.85867 75.222 8.52C74.3047 9.16 73.5687 10.2267 73.014 11.72C72.4807 13.2133 72.214 15.24 72.214 17.8C72.214 19.8053 72.406 21.5013 72.79 22.888C73.1953 24.2747 73.7713 25.3307 74.518 26.056C75.286 26.76 76.214 27.112 77.302 27.112C78.07 27.112 78.742 26.888 79.318 26.44C79.9153 25.992 80.3847 25.3733 80.726 24.584C81.0887 23.7733 81.27 22.8453 81.27 21.8C81.27 20.7333 81.11 19.816 80.79 19.048C80.4913 18.2587 80.0327 17.6613 79.414 17.256C78.7953 16.8293 78.006 16.616 77.046 16.616C76.2993 16.616 75.4887 16.8613 74.614 17.352C73.7393 17.8213 72.9073 18.6427 72.118 19.816L72.022 17.512C72.5127 16.872 73.0567 16.328 73.654 15.88C74.2513 15.4107 74.8807 15.0587 75.542 14.824C76.2247 14.568 76.886 14.44 77.526 14.44C78.8487 14.44 79.99 14.7173 80.95 15.272C81.9313 15.8053 82.6887 16.616 83.222 17.704C83.7767 18.792 84.054 20.1573 84.054 21.8C84.054 23.3147 83.7447 24.648 83.126 25.8C82.5073 26.9307 81.686 27.816 80.662 28.456C79.6593 29.096 78.5393 29.416 77.302 29.416Z" fill="#1C1B1B"/>
<path d="M163.816 29V26.568H169.064V9.064H164.872V7.208C165.917 7.016 166.824 6.78133 167.592 6.504C168.381 6.22667 169.096 5.90667 169.736 5.544H171.976V26.568H176.68V29H163.816ZM189.054 29.416C187.838 29.416 186.761 29.2667 185.822 28.968C184.905 28.6693 184.094 28.2853 183.39 27.816C182.707 27.3467 182.089 26.8453 181.534 26.312L183.006 24.392C183.454 24.84 183.945 25.2667 184.478 25.672C185.033 26.056 185.662 26.376 186.366 26.632C187.07 26.8667 187.87 26.984 188.766 26.984C189.683 26.984 190.515 26.76 191.262 26.312C192.03 25.864 192.638 25.224 193.086 24.392C193.534 23.56 193.758 22.5787 193.758 21.448C193.758 19.784 193.31 18.4827 192.414 17.544C191.539 16.584 190.366 16.104 188.894 16.104C188.126 16.104 187.454 16.2213 186.878 16.456C186.302 16.6907 185.673 17.032 184.99 17.48L183.422 16.488L184.19 5.544H195.582V8.04H186.75L186.142 14.824C186.654 14.5253 187.187 14.3013 187.742 14.152C188.318 13.9813 188.958 13.896 189.662 13.896C190.963 13.896 192.147 14.1627 193.214 14.696C194.281 15.208 195.134 16.0187 195.774 17.128C196.414 18.2373 196.734 19.656 196.734 21.384C196.734 23.0907 196.361 24.5413 195.614 25.736C194.889 26.9307 193.939 27.848 192.766 28.488C191.593 29.1067 190.355 29.416 189.054 29.416ZM204.788 16.52C204.212 16.52 203.711 16.3173 203.284 15.912C202.879 15.4853 202.676 14.9413 202.676 14.28C202.676 13.6187 202.879 13.0853 203.284 12.68C203.711 12.2533 204.212 12.04 204.788 12.04C205.364 12.04 205.855 12.2533 206.26 12.68C206.687 13.0853 206.9 13.6187 206.9 14.28C206.9 14.9413 206.687 15.4853 206.26 15.912C205.855 16.3173 205.364 16.52 204.788 16.52ZM204.788 29.416C204.212 29.416 203.711 29.2133 203.284 28.808C202.879 28.3813 202.676 27.848 202.676 27.208C202.676 26.5253 202.879 25.9813 203.284 25.576C203.711 25.1707 204.212 24.968 204.788 24.968C205.364 24.968 205.855 25.1707 206.26 25.576C206.687 25.9813 206.9 26.5253 206.9 27.208C206.9 27.848 206.687 28.3813 206.26 28.808C205.855 29.2133 205.364 29.416 204.788 29.416ZM220.062 29.416C218.59 29.416 217.3 28.968 216.19 28.072C215.102 27.176 214.26 25.8213 213.662 24.008C213.065 22.1947 212.766 19.9227 212.766 17.192C212.766 14.4613 213.065 12.2107 213.662 10.44C214.26 8.648 215.102 7.31467 216.19 6.44C217.3 5.56533 218.59 5.128 220.062 5.128C221.556 5.128 222.846 5.576 223.934 6.472C225.022 7.34667 225.865 8.66933 226.462 10.44C227.06 12.2107 227.358 14.4613 227.358 17.192C227.358 19.9227 227.06 22.1947 226.462 24.008C225.865 25.8213 225.022 27.176 223.934 28.072C222.846 28.968 221.556 29.416 220.062 29.416ZM220.062 27.048C220.958 27.048 221.737 26.7067 222.398 26.024C223.081 25.3413 223.604 24.2747 223.966 22.824C224.35 21.352 224.542 19.4747 224.542 17.192C224.542 14.9093 224.35 13.0533 223.966 11.624C223.604 10.1733 223.081 9.11733 222.398 8.456C221.737 7.77333 220.958 7.432 220.062 7.432C219.188 7.432 218.409 7.77333 217.726 8.456C217.044 9.11733 216.51 10.1733 216.126 11.624C215.764 13.0533 215.582 14.9093 215.582 17.192C215.582 19.4747 215.764 21.352 216.126 22.824C216.51 24.2747 217.044 25.3413 217.726 26.024C218.409 26.7067 219.188 27.048 220.062 27.048ZM239.22 29.416C238.004 29.416 236.927 29.2667 235.988 28.968C235.071 28.6693 234.26 28.2853 233.556 27.816C232.874 27.3467 232.255 26.8453 231.7 26.312L233.172 24.392C233.62 24.84 234.111 25.2667 234.644 25.672C235.199 26.056 235.828 26.376 236.532 26.632C237.236 26.8667 238.036 26.984 238.932 26.984C239.85 26.984 240.682 26.76 241.428 26.312C242.196 25.864 242.804 25.224 243.252 24.392C243.7 23.56 243.924 22.5787 243.924 21.448C243.924 19.784 243.476 18.4827 242.58 17.544C241.706 16.584 240.532 16.104 239.06 16.104C238.292 16.104 237.62 16.2213 237.044 16.456C236.468 16.6907 235.839 17.032 235.156 17.48L233.588 16.488L234.356 5.544H245.748V8.04H236.916L236.308 14.824C236.82 14.5253 237.354 14.3013 237.908 14.152C238.484 13.9813 239.124 13.896 239.828 13.896C241.13 13.896 242.314 14.1627 243.38 14.696C244.447 15.208 245.3 16.0187 245.94 17.128C246.58 18.2373 246.9 19.656 246.9 21.384C246.9 23.0907 246.527 24.5413 245.78 25.736C245.055 26.9307 244.106 27.848 242.932 28.488C241.759 29.1067 240.522 29.416 239.22 29.416Z" fill="#1C1B1B"/>
<path d="M268.104 17.736C267.251 16.9253 266.419 16.2853 265.608 15.816C264.819 15.3467 263.837 15.112 262.664 15.112C261.405 15.112 260.243 15.5067 259.176 16.296C258.131 17.064 257.277 18.0773 256.616 19.336L254.344 18.12C255.347 16.2853 256.563 14.8987 257.992 13.96C259.443 13 261.011 12.52 262.696 12.52C264.147 12.52 265.427 12.8187 266.536 13.416C267.667 13.992 268.787 14.8347 269.896 15.944C270.749 16.7547 271.581 17.3947 272.392 17.864C273.203 18.3333 274.184 18.568 275.336 18.568C276.595 18.568 277.747 18.184 278.792 17.416C279.859 16.6267 280.723 15.6027 281.384 14.344L283.656 15.56C282.653 17.3947 281.427 18.792 279.976 19.752C278.547 20.6907 276.989 21.16 275.304 21.16C273.875 21.16 272.595 20.872 271.464 20.296C270.333 19.6987 269.213 18.8453 268.104 17.736Z" fill="#1C1B1B"/>
<path d="M292.816 29V26.568H298.064V9.064H293.872V7.208C294.917 7.016 295.824 6.78133 296.592 6.504C297.381 6.22667 298.096 5.90667 298.736 5.544H300.976V26.568H305.68V29H292.816ZM319.302 29.416C318.193 29.416 317.158 29.1813 316.198 28.712C315.238 28.2213 314.406 27.496 313.702 26.536C312.998 25.5547 312.443 24.3387 312.038 22.888C311.654 21.4373 311.462 19.7413 311.462 17.8C311.462 15.5173 311.697 13.5653 312.166 11.944C312.635 10.3227 313.275 9.01067 314.086 8.008C314.897 7.00533 315.825 6.28 316.87 5.832C317.915 5.36267 319.003 5.128 320.134 5.128C321.35 5.128 322.406 5.352 323.302 5.8C324.198 6.248 324.977 6.824 325.638 7.528L323.974 9.32C323.526 8.76533 322.971 8.328 322.31 8.008C321.649 7.688 320.966 7.528 320.262 7.528C319.153 7.528 318.139 7.85867 317.222 8.52C316.305 9.16 315.569 10.2267 315.014 11.72C314.481 13.2133 314.214 15.24 314.214 17.8C314.214 19.8053 314.406 21.5013 314.79 22.888C315.195 24.2747 315.771 25.3307 316.518 26.056C317.286 26.76 318.214 27.112 319.302 27.112C320.07 27.112 320.742 26.888 321.318 26.44C321.915 25.992 322.385 25.3733 322.726 24.584C323.089 23.7733 323.27 22.8453 323.27 21.8C323.27 20.7333 323.11 19.816 322.79 19.048C322.491 18.2587 322.033 17.6613 321.414 17.256C320.795 16.8293 320.006 16.616 319.046 16.616C318.299 16.616 317.489 16.8613 316.614 17.352C315.739 17.8213 314.907 18.6427 314.118 19.816L314.022 17.512C314.513 16.872 315.057 16.328 315.654 15.88C316.251 15.4107 316.881 15.0587 317.542 14.824C318.225 14.568 318.886 14.44 319.526 14.44C320.849 14.44 321.99 14.7173 322.95 15.272C323.931 15.8053 324.689 16.616 325.222 17.704C325.777 18.792 326.054 20.1573 326.054 21.8C326.054 23.3147 325.745 24.648 325.126 25.8C324.507 26.9307 323.686 27.816 322.662 28.456C321.659 29.096 320.539 29.416 319.302 29.416ZM333.788 16.52C333.212 16.52 332.711 16.3173 332.284 15.912C331.879 15.4853 331.676 14.9413 331.676 14.28C331.676 13.6187 331.879 13.0853 332.284 12.68C332.711 12.2533 333.212 12.04 333.788 12.04C334.364 12.04 334.855 12.2533 335.26 12.68C335.687 13.0853 335.9 13.6187 335.9 14.28C335.9 14.9413 335.687 15.4853 335.26 15.912C334.855 16.3173 334.364 16.52 333.788 16.52ZM333.788 29.416C333.212 29.416 332.711 29.2133 332.284 28.808C331.879 28.3813 331.676 27.848 331.676 27.208C331.676 26.5253 331.879 25.9813 332.284 25.576C332.711 25.1707 333.212 24.968 333.788 24.968C334.364 24.968 334.855 25.1707 335.26 25.576C335.687 25.9813 335.9 26.5253 335.9 27.208C335.9 27.848 335.687 28.3813 335.26 28.808C334.855 29.2133 334.364 29.416 333.788 29.416ZM351.046 29V13C351.046 12.424 351.068 11.72 351.11 10.888C351.153 10.056 351.185 9.34133 351.206 8.744H351.078C350.78 9.29867 350.47 9.87466 350.15 10.472C349.852 11.048 349.532 11.624 349.19 12.2L343.846 20.2H356.934V22.536H340.806V20.616L350.566 5.544H353.798V29H351.046ZM368.22 29.416C367.004 29.416 365.927 29.2667 364.988 28.968C364.071 28.6693 363.26 28.2853 362.556 27.816C361.874 27.3467 361.255 26.8453 360.7 26.312L362.172 24.392C362.62 24.84 363.111 25.2667 363.644 25.672C364.199 26.056 364.828 26.376 365.532 26.632C366.236 26.8667 367.036 26.984 367.932 26.984C368.85 26.984 369.682 26.76 370.428 26.312C371.196 25.864 371.804 25.224 372.252 24.392C372.7 23.56 372.924 22.5787 372.924 21.448C372.924 19.784 372.476 18.4827 371.58 17.544C370.706 16.584 369.532 16.104 368.06 16.104C367.292 16.104 366.62 16.2213 366.044 16.456C365.468 16.6907 364.839 17.032 364.156 17.48L362.588 16.488L363.356 5.544H374.748V8.04H365.916L365.308 14.824C365.82 14.5253 366.354 14.3013 366.908 14.152C367.484 13.9813 368.124 13.896 368.828 13.896C370.13 13.896 371.314 14.1627 372.38 14.696C373.447 15.208 374.3 16.0187 374.94 17.128C375.58 18.2373 375.9 19.656 375.9 21.384C375.9 23.0907 375.527 24.5413 374.78 25.736C374.055 26.9307 373.106 27.848 371.932 28.488C370.759 29.1067 369.522 29.416 368.22 29.416Z" fill="#1C1B1B"/>
</svg>
