<svg width="378" height="37" viewBox="0 0 378 37" fill="none" xmlns="http://www.w3.org/2000/svg">
<path d="M10.88 29V13C10.88 12.424 10.9013 11.72 10.944 10.888C10.9867 10.056 11.0187 9.34133 11.04 8.744H10.912C10.6133 9.29867 10.304 9.87466 9.984 10.472C9.68533 11.048 9.36533 11.624 9.024 12.2L3.68 20.2H16.768V22.536H0.64V20.616L10.4 5.544H13.632V29H10.88Z" fill="#1C1B1B"/>
<path d="M28.08 13.26H38.5V14.72H28.08V13.26ZM28.08 18.08H38.6V19.5H28.08V18.08ZM27.92 22.9H38.5V24.36H27.92V22.9ZM27.14 13.26H28.66V19.42C28.66 20.2867 28.6133 21.2133 28.52 22.2C28.44 23.1867 28.2667 24.1867 28 25.2C27.7333 26.2 27.3333 27.1667 26.8 28.1C26.28 29.0333 25.5867 29.8733 24.72 30.62C24.6533 30.5133 24.5467 30.3867 24.4 30.24C24.2667 30.0933 24.1267 29.9533 23.98 29.82C23.8333 29.7 23.7 29.6067 23.58 29.54C24.3933 28.82 25.0333 28.0467 25.5 27.22C25.98 26.38 26.3333 25.5133 26.56 24.62C26.8 23.7267 26.9533 22.84 27.02 21.96C27.1 21.0667 27.14 20.22 27.14 19.42V13.26ZM37.84 13.26H39.42V28.38C39.42 28.9133 39.34 29.32 39.18 29.6C39.02 29.88 38.7533 30.0867 38.38 30.22C37.9933 30.3533 37.4533 30.4333 36.76 30.46C36.0667 30.5 35.1867 30.52 34.12 30.52C34.0933 30.36 34.04 30.1867 33.96 30C33.8933 29.8133 33.8133 29.62 33.72 29.42C33.64 29.2333 33.56 29.0733 33.48 28.94C34.04 28.9533 34.5733 28.9667 35.08 28.98C35.6 28.98 36.0467 28.98 36.42 28.98C36.8067 28.9667 37.0733 28.96 37.22 28.96C37.46 28.9467 37.62 28.9 37.7 28.82C37.7933 28.7267 37.84 28.5733 37.84 28.36V13.26Z" fill="#1C1B1B"/>
<path d="M93.52 13.56H106.64V30.28H105.04V15.06H95.06V30.38H93.52V13.56ZM94.56 20.48H105.72V21.96H94.56V20.48ZM94.52 27.58H105.74V29.08H94.52V27.58Z" fill="#1C1B1B"/>
<path d="M119.78 30.92C118.86 29.4267 118.14 27.86 117.62 26.22C117.1 24.5667 116.84 22.7533 116.84 20.78C116.84 18.82 117.1 17.0133 117.62 15.36C118.14 13.7067 118.86 12.1333 119.78 10.64L120.9 11.16C120.047 12.5867 119.407 14.1267 118.98 15.78C118.567 17.42 118.36 19.0867 118.36 20.78C118.36 22.4867 118.567 24.1667 118.98 25.82C119.407 27.46 120.047 28.9933 120.9 30.42L119.78 30.92ZM124.298 15.12H141.658V16.62H124.298V15.12ZM132.158 10.22H133.738V28.6H132.158V10.22ZM131.818 15.88L133.118 16.34C132.651 17.38 132.104 18.3933 131.478 19.38C130.851 20.3667 130.171 21.3067 129.438 22.2C128.704 23.08 127.931 23.8867 127.118 24.62C126.318 25.34 125.491 25.9533 124.638 26.46C124.558 26.3267 124.444 26.1867 124.298 26.04C124.164 25.88 124.031 25.7267 123.898 25.58C123.764 25.4333 123.638 25.3067 123.518 25.2C124.344 24.7467 125.158 24.1867 125.958 23.52C126.771 22.8533 127.538 22.1067 128.258 21.28C128.991 20.44 129.658 19.5667 130.258 18.66C130.871 17.74 131.391 16.8133 131.818 15.88ZM134.038 15.92C134.478 16.8133 135.004 17.7133 135.618 18.62C136.231 19.5133 136.904 20.3733 137.638 21.2C138.384 22.0267 139.158 22.7733 139.958 23.44C140.758 24.1067 141.558 24.6667 142.358 25.12C142.238 25.2133 142.104 25.34 141.958 25.5C141.811 25.6467 141.671 25.8 141.538 25.96C141.404 26.12 141.298 26.2733 141.218 26.42C140.404 25.9 139.598 25.28 138.798 24.56C137.998 23.8267 137.224 23.02 136.478 22.14C135.744 21.2467 135.058 20.3133 134.418 19.34C133.791 18.3533 133.238 17.3667 132.758 16.38L134.038 15.92ZM146.138 30.92L144.998 30.42C145.864 28.9933 146.511 27.46 146.938 25.82C147.364 24.1667 147.578 22.4867 147.578 20.78C147.578 19.0867 147.364 17.42 146.938 15.78C146.511 14.1267 145.864 12.5867 144.998 11.16L146.138 10.64C147.071 12.1333 147.791 13.7067 148.298 15.36C148.818 17.0133 149.078 18.82 149.078 20.78C149.078 22.7533 148.818 24.5667 148.298 26.22C147.791 27.86 147.071 29.4267 146.138 30.92Z" fill="#1C1B1B"/>
<path d="M50.816 29V26.568H56.064V9.064H51.872V7.208C52.9173 7.016 53.824 6.78133 54.592 6.504C55.3813 6.22667 56.096 5.90667 56.736 5.544H58.976V26.568H63.68V29H50.816ZM77.302 29.416C76.1927 29.416 75.158 29.1813 74.198 28.712C73.238 28.2213 72.406 27.496 71.702 26.536C70.998 25.5547 70.4433 24.3387 70.038 22.888C69.654 21.4373 69.462 19.7413 69.462 17.8C69.462 15.5173 69.6967 13.5653 70.166 11.944C70.6353 10.3227 71.2753 9.01067 72.086 8.008C72.8967 7.00533 73.8247 6.28 74.87 5.832C75.9153 5.36267 77.0033 5.128 78.134 5.128C79.35 5.128 80.406 5.352 81.302 5.8C82.198 6.248 82.9767 6.824 83.638 7.528L81.974 9.32C81.526 8.76533 80.9713 8.328 80.31 8.008C79.6487 7.688 78.966 7.528 78.262 7.528C77.1527 7.528 76.1393 7.85867 75.222 8.52C74.3047 9.16 73.5687 10.2267 73.014 11.72C72.4807 13.2133 72.214 15.24 72.214 17.8C72.214 19.8053 72.406 21.5013 72.79 22.888C73.1953 24.2747 73.7713 25.3307 74.518 26.056C75.286 26.76 76.214 27.112 77.302 27.112C78.07 27.112 78.742 26.888 79.318 26.44C79.9153 25.992 80.3847 25.3733 80.726 24.584C81.0887 23.7733 81.27 22.8453 81.27 21.8C81.27 20.7333 81.11 19.816 80.79 19.048C80.4913 18.2587 80.0327 17.6613 79.414 17.256C78.7953 16.8293 78.006 16.616 77.046 16.616C76.2993 16.616 75.4887 16.8613 74.614 17.352C73.7393 17.8213 72.9073 18.6427 72.118 19.816L72.022 17.512C72.5127 16.872 73.0567 16.328 73.654 15.88C74.2513 15.4107 74.8807 15.0587 75.542 14.824C76.2247 14.568 76.886 14.44 77.526 14.44C78.8487 14.44 79.99 14.7173 80.95 15.272C81.9313 15.8053 82.6887 16.616 83.222 17.704C83.7767 18.792 84.054 20.1573 84.054 21.8C84.054 23.3147 83.7447 24.648 83.126 25.8C82.5073 26.9307 81.686 27.816 80.662 28.456C79.6593 29.096 78.5393 29.416 77.302 29.416Z" fill="#1C1B1B"/>
<path d="M163.816 29V26.568H169.064V9.064H164.872V7.208C165.917 7.016 166.824 6.78133 167.592 6.504C168.381 6.22667 169.096 5.90667 169.736 5.544H171.976V26.568H176.68V29H163.816ZM189.566 29.416C188.094 29.416 186.803 28.968 185.694 28.072C184.606 27.176 183.763 25.8213 183.166 24.008C182.569 22.1947 182.27 19.9227 182.27 17.192C182.27 14.4613 182.569 12.2107 183.166 10.44C183.763 8.648 184.606 7.31467 185.694 6.44C186.803 5.56533 188.094 5.128 189.566 5.128C191.059 5.128 192.35 5.576 193.438 6.472C194.526 7.34667 195.369 8.66933 195.966 10.44C196.563 12.2107 196.862 14.4613 196.862 17.192C196.862 19.9227 196.563 22.1947 195.966 24.008C195.369 25.8213 194.526 27.176 193.438 28.072C192.35 28.968 191.059 29.416 189.566 29.416ZM189.566 27.048C190.462 27.048 191.241 26.7067 191.902 26.024C192.585 25.3413 193.107 24.2747 193.47 22.824C193.854 21.352 194.046 19.4747 194.046 17.192C194.046 14.9093 193.854 13.0533 193.47 11.624C193.107 10.1733 192.585 9.11733 191.902 8.456C191.241 7.77333 190.462 7.432 189.566 7.432C188.691 7.432 187.913 7.77333 187.23 8.456C186.547 9.11733 186.014 10.1733 185.63 11.624C185.267 13.0533 185.086 14.9093 185.086 17.192C185.086 19.4747 185.267 21.352 185.63 22.824C186.014 24.2747 186.547 25.3413 187.23 26.024C187.913 26.7067 188.691 27.048 189.566 27.048ZM204.788 16.52C204.212 16.52 203.711 16.3173 203.284 15.912C202.879 15.4853 202.676 14.9413 202.676 14.28C202.676 13.6187 202.879 13.0853 203.284 12.68C203.711 12.2533 204.212 12.04 204.788 12.04C205.364 12.04 205.855 12.2533 206.26 12.68C206.687 13.0853 206.9 13.6187 206.9 14.28C206.9 14.9413 206.687 15.4853 206.26 15.912C205.855 16.3173 205.364 16.52 204.788 16.52ZM204.788 29.416C204.212 29.416 203.711 29.2133 203.284 28.808C202.879 28.3813 202.676 27.848 202.676 27.208C202.676 26.5253 202.879 25.9813 203.284 25.576C203.711 25.1707 204.212 24.968 204.788 24.968C205.364 24.968 205.855 25.1707 206.26 25.576C206.687 25.9813 206.9 26.5253 206.9 27.208C206.9 27.848 206.687 28.3813 206.26 28.808C205.855 29.2133 205.364 29.416 204.788 29.416ZM222.046 29V13C222.046 12.424 222.068 11.72 222.11 10.888C222.153 10.056 222.185 9.34133 222.206 8.744H222.078C221.78 9.29867 221.47 9.87466 221.15 10.472C220.852 11.048 220.532 11.624 220.19 12.2L214.846 20.2H227.934V22.536H211.806V20.616L221.566 5.544H224.798V29H222.046ZM239.732 29.416C238.26 29.416 236.97 28.968 235.86 28.072C234.772 27.176 233.93 25.8213 233.332 24.008C232.735 22.1947 232.436 19.9227 232.436 17.192C232.436 14.4613 232.735 12.2107 233.332 10.44C233.93 8.648 234.772 7.31467 235.86 6.44C236.97 5.56533 238.26 5.128 239.732 5.128C241.226 5.128 242.516 5.576 243.604 6.472C244.692 7.34667 245.535 8.66933 246.132 10.44C246.73 12.2107 247.028 14.4613 247.028 17.192C247.028 19.9227 246.73 22.1947 246.132 24.008C245.535 25.8213 244.692 27.176 243.604 28.072C242.516 28.968 241.226 29.416 239.732 29.416ZM239.732 27.048C240.628 27.048 241.407 26.7067 242.068 26.024C242.751 25.3413 243.274 24.2747 243.636 22.824C244.02 21.352 244.212 19.4747 244.212 17.192C244.212 14.9093 244.02 13.0533 243.636 11.624C243.274 10.1733 242.751 9.11733 242.068 8.456C241.407 7.77333 240.628 7.432 239.732 7.432C238.858 7.432 238.079 7.77333 237.396 8.456C236.714 9.11733 236.18 10.1733 235.796 11.624C235.434 13.0533 235.252 14.9093 235.252 17.192C235.252 19.4747 235.434 21.352 235.796 22.824C236.18 24.2747 236.714 25.3413 237.396 26.024C238.079 26.7067 238.858 27.048 239.732 27.048Z" fill="#1C1B1B"/>
<path d="M268.104 17.736C267.251 16.9253 266.419 16.2853 265.608 15.816C264.819 15.3467 263.837 15.112 262.664 15.112C261.405 15.112 260.243 15.5067 259.176 16.296C258.131 17.064 257.277 18.0773 256.616 19.336L254.344 18.12C255.347 16.2853 256.563 14.8987 257.992 13.96C259.443 13 261.011 12.52 262.696 12.52C264.147 12.52 265.427 12.8187 266.536 13.416C267.667 13.992 268.787 14.8347 269.896 15.944C270.749 16.7547 271.581 17.3947 272.392 17.864C273.203 18.3333 274.184 18.568 275.336 18.568C276.595 18.568 277.747 18.184 278.792 17.416C279.859 16.6267 280.723 15.6027 281.384 14.344L283.656 15.56C282.653 17.3947 281.427 18.792 279.976 19.752C278.547 20.6907 276.989 21.16 275.304 21.16C273.875 21.16 272.595 20.872 271.464 20.296C270.333 19.6987 269.213 18.8453 268.104 17.736Z" fill="#1C1B1B"/>
<path d="M292.816 29V26.568H298.064V9.064H293.872V7.208C294.917 7.016 295.824 6.78133 296.592 6.504C297.381 6.22667 298.096 5.90667 298.736 5.544H300.976V26.568H305.68V29H292.816ZM311.078 29V27.272C313.531 25.1173 315.547 23.1547 317.126 21.384C318.726 19.6133 319.91 17.9707 320.678 16.456C321.446 14.92 321.83 13.48 321.83 12.136C321.83 11.24 321.67 10.44 321.35 9.736C321.051 9.032 320.582 8.488 319.942 8.104C319.302 7.69866 318.491 7.496 317.51 7.496C316.55 7.496 315.654 7.752 314.822 8.264C314.011 8.776 313.286 9.42667 312.646 10.216L310.95 8.552C311.889 7.50667 312.902 6.67467 313.99 6.056C315.078 5.43733 316.369 5.128 317.862 5.128C319.27 5.128 320.475 5.416 321.478 5.992C322.502 6.54667 323.291 7.34667 323.846 8.392C324.422 9.416 324.71 10.6213 324.71 12.008C324.71 13.5653 324.315 15.144 323.526 16.744C322.758 18.344 321.681 19.976 320.294 21.64C318.929 23.2827 317.329 24.968 315.494 26.696C316.113 26.6533 316.753 26.6107 317.414 26.568C318.097 26.504 318.737 26.472 319.334 26.472H325.83V29H311.078ZM333.788 16.52C333.212 16.52 332.711 16.3173 332.284 15.912C331.879 15.4853 331.676 14.9413 331.676 14.28C331.676 13.6187 331.879 13.0853 332.284 12.68C332.711 12.2533 333.212 12.04 333.788 12.04C334.364 12.04 334.855 12.2533 335.26 12.68C335.687 13.0853 335.9 13.6187 335.9 14.28C335.9 14.9413 335.687 15.4853 335.26 15.912C334.855 16.3173 334.364 16.52 333.788 16.52ZM333.788 29.416C333.212 29.416 332.711 29.2133 332.284 28.808C331.879 28.3813 331.676 27.848 331.676 27.208C331.676 26.5253 331.879 25.9813 332.284 25.576C332.711 25.1707 333.212 24.968 333.788 24.968C334.364 24.968 334.855 25.1707 335.26 25.576C335.687 25.9813 335.9 26.5253 335.9 27.208C335.9 27.848 335.687 28.3813 335.26 28.808C334.855 29.2133 334.364 29.416 333.788 29.416ZM341.574 29V27.272C344.028 25.1173 346.044 23.1547 347.622 21.384C349.222 19.6133 350.406 17.9707 351.174 16.456C351.942 14.92 352.326 13.48 352.326 12.136C352.326 11.24 352.166 10.44 351.846 9.736C351.548 9.032 351.078 8.488 350.438 8.104C349.798 7.69866 348.988 7.496 348.006 7.496C347.046 7.496 346.15 7.752 345.318 8.264C344.508 8.776 343.782 9.42667 343.142 10.216L341.446 8.552C342.385 7.50667 343.398 6.67467 344.486 6.056C345.574 5.43733 346.865 5.128 348.358 5.128C349.766 5.128 350.972 5.416 351.974 5.992C352.998 6.54667 353.788 7.34667 354.342 8.392C354.918 9.416 355.206 10.6213 355.206 12.008C355.206 13.5653 354.812 15.144 354.022 16.744C353.254 18.344 352.177 19.976 350.79 21.64C349.425 23.2827 347.825 24.968 345.99 26.696C346.609 26.6533 347.249 26.6107 347.91 26.568C348.593 26.504 349.233 26.472 349.83 26.472H356.326V29H341.574ZM368.732 29.416C367.26 29.416 365.97 28.968 364.86 28.072C363.772 27.176 362.93 25.8213 362.332 24.008C361.735 22.1947 361.436 19.9227 361.436 17.192C361.436 14.4613 361.735 12.2107 362.332 10.44C362.93 8.648 363.772 7.31467 364.86 6.44C365.97 5.56533 367.26 5.128 368.732 5.128C370.226 5.128 371.516 5.576 372.604 6.472C373.692 7.34667 374.535 8.66933 375.132 10.44C375.73 12.2107 376.028 14.4613 376.028 17.192C376.028 19.9227 375.73 22.1947 375.132 24.008C374.535 25.8213 373.692 27.176 372.604 28.072C371.516 28.968 370.226 29.416 368.732 29.416ZM368.732 27.048C369.628 27.048 370.407 26.7067 371.068 26.024C371.751 25.3413 372.274 24.2747 372.636 22.824C373.02 21.352 373.212 19.4747 373.212 17.192C373.212 14.9093 373.02 13.0533 372.636 11.624C372.274 10.1733 371.751 9.11733 371.068 8.456C370.407 7.77333 369.628 7.432 368.732 7.432C367.858 7.432 367.079 7.77333 366.396 8.456C365.714 9.11733 365.18 10.1733 364.796 11.624C364.434 13.0533 364.252 14.9093 364.252 17.192C364.252 19.4747 364.434 21.352 364.796 22.824C365.18 24.2747 365.714 25.3413 366.396 26.024C367.079 26.7067 367.858 27.048 368.732 27.048Z" fill="#1C1B1B"/>
</svg>
