<svg width="378" height="37" viewBox="0 0 378 37" fill="none" xmlns="http://www.w3.org/2000/svg">
<path d="M10.88 29V13C10.88 12.424 10.9013 11.72 10.944 10.888C10.9867 10.056 11.0187 9.34133 11.04 8.744H10.912C10.6133 9.29867 10.304 9.87466 9.984 10.472C9.68533 11.048 9.36533 11.624 9.024 12.2L3.68 20.2H16.768V22.536H0.64V20.616L10.4 5.544H13.632V29H10.88Z" fill="#1C1B1B"/>
<path d="M28.08 13.26H38.5V14.72H28.08V13.26ZM28.08 18.08H38.6V19.5H28.08V18.08ZM27.92 22.9H38.5V24.36H27.92V22.9ZM27.14 13.26H28.66V19.42C28.66 20.2867 28.6133 21.2133 28.52 22.2C28.44 23.1867 28.2667 24.1867 28 25.2C27.7333 26.2 27.3333 27.1667 26.8 28.1C26.28 29.0333 25.5867 29.8733 24.72 30.62C24.6533 30.5133 24.5467 30.3867 24.4 30.24C24.2667 30.0933 24.1267 29.9533 23.98 29.82C23.8333 29.7 23.7 29.6067 23.58 29.54C24.3933 28.82 25.0333 28.0467 25.5 27.22C25.98 26.38 26.3333 25.5133 26.56 24.62C26.8 23.7267 26.9533 22.84 27.02 21.96C27.1 21.0667 27.14 20.22 27.14 19.42V13.26ZM37.84 13.26H39.42V28.38C39.42 28.9133 39.34 29.32 39.18 29.6C39.02 29.88 38.7533 30.0867 38.38 30.22C37.9933 30.3533 37.4533 30.4333 36.76 30.46C36.0667 30.5 35.1867 30.52 34.12 30.52C34.0933 30.36 34.04 30.1867 33.96 30C33.8933 29.8133 33.8133 29.62 33.72 29.42C33.64 29.2333 33.56 29.0733 33.48 28.94C34.04 28.9533 34.5733 28.9667 35.08 28.98C35.6 28.98 36.0467 28.98 36.42 28.98C36.8067 28.9667 37.0733 28.96 37.22 28.96C37.46 28.9467 37.62 28.9 37.7 28.82C37.7933 28.7267 37.84 28.5733 37.84 28.36V13.26Z" fill="#1C1B1B"/>
<path d="M93.52 13.56H106.64V30.28H105.04V15.06H95.06V30.38H93.52V13.56ZM94.56 20.48H105.72V21.96H94.56V20.48ZM94.52 27.58H105.74V29.08H94.52V27.58Z" fill="#1C1B1B"/>
<path d="M119.78 30.92C118.86 29.4267 118.14 27.86 117.62 26.22C117.1 24.5667 116.84 22.7533 116.84 20.78C116.84 18.82 117.1 17.0133 117.62 15.36C118.14 13.7067 118.86 12.1333 119.78 10.64L120.9 11.16C120.047 12.5867 119.407 14.1267 118.98 15.78C118.567 17.42 118.36 19.0867 118.36 20.78C118.36 22.4867 118.567 24.1667 118.98 25.82C119.407 27.46 120.047 28.9933 120.9 30.42L119.78 30.92ZM128.038 11.26H138.458V12.72H128.038V11.26ZM128.038 16.08H138.558V17.5H128.038V16.08ZM127.878 20.9H138.458V22.36H127.878V20.9ZM127.098 11.26H128.618V17.42C128.618 18.2867 128.571 19.2133 128.478 20.2C128.398 21.1867 128.224 22.1867 127.958 23.2C127.691 24.2 127.291 25.1667 126.758 26.1C126.238 27.0333 125.544 27.8733 124.678 28.62C124.611 28.5133 124.504 28.3867 124.358 28.24C124.224 28.0933 124.084 27.9533 123.938 27.82C123.791 27.7 123.658 27.6067 123.538 27.54C124.351 26.82 124.991 26.0467 125.458 25.22C125.938 24.38 126.291 23.5133 126.518 22.62C126.758 21.7267 126.911 20.84 126.978 19.96C127.058 19.0667 127.098 18.22 127.098 17.42V11.26ZM137.798 11.26H139.378V26.38C139.378 26.9133 139.298 27.32 139.138 27.6C138.978 27.88 138.711 28.0867 138.338 28.22C137.951 28.3533 137.411 28.4333 136.718 28.46C136.024 28.5 135.144 28.52 134.078 28.52C134.051 28.36 133.998 28.1867 133.918 28C133.851 27.8133 133.771 27.62 133.678 27.42C133.598 27.2333 133.518 27.0733 133.438 26.94C133.998 26.9533 134.531 26.9667 135.038 26.98C135.558 26.98 136.004 26.98 136.378 26.98C136.764 26.9667 137.031 26.96 137.178 26.96C137.418 26.9467 137.578 26.9 137.658 26.82C137.751 26.7267 137.798 26.5733 137.798 26.36V11.26ZM146.138 30.92L144.998 30.42C145.864 28.9933 146.511 27.46 146.938 25.82C147.364 24.1667 147.578 22.4867 147.578 20.78C147.578 19.0867 147.364 17.42 146.938 15.78C146.511 14.1267 145.864 12.5867 144.998 11.16L146.138 10.64C147.071 12.1333 147.791 13.7067 148.298 15.36C148.818 17.0133 149.078 18.82 149.078 20.78C149.078 22.7533 148.818 24.5667 148.298 26.22C147.791 27.86 147.071 29.4267 146.138 30.92Z" fill="#1C1B1B"/>
<path d="M50.408 29V27.272C52.8613 25.1173 54.8773 23.1547 56.456 21.384C58.056 19.6133 59.24 17.9707 60.008 16.456C60.776 14.92 61.16 13.48 61.16 12.136C61.16 11.24 61 10.44 60.68 9.736C60.3813 9.032 59.912 8.488 59.272 8.104C58.632 7.69866 57.8213 7.496 56.84 7.496C55.88 7.496 54.984 7.752 54.152 8.264C53.3413 8.776 52.616 9.42667 51.976 10.216L50.28 8.552C51.2187 7.50667 52.232 6.67467 53.32 6.056C54.408 5.43733 55.6987 5.128 57.192 5.128C58.6 5.128 59.8053 5.416 60.808 5.992C61.832 6.54667 62.6213 7.34667 63.176 8.392C63.752 9.416 64.04 10.6213 64.04 12.008C64.04 13.5653 63.6453 15.144 62.856 16.744C62.088 18.344 61.0107 19.976 59.624 21.64C58.2587 23.2827 56.6587 24.968 54.824 26.696C55.4427 26.6533 56.0827 26.6107 56.744 26.568C57.4267 26.504 58.0667 26.472 58.664 26.472H65.16V29H50.408ZM77.566 29.416C76.094 29.416 74.8033 28.968 73.694 28.072C72.606 27.176 71.7633 25.8213 71.166 24.008C70.5687 22.1947 70.27 19.9227 70.27 17.192C70.27 14.4613 70.5687 12.2107 71.166 10.44C71.7633 8.648 72.606 7.31467 73.694 6.44C74.8033 5.56533 76.094 5.128 77.566 5.128C79.0593 5.128 80.35 5.576 81.438 6.472C82.526 7.34667 83.3687 8.66933 83.966 10.44C84.5633 12.2107 84.862 14.4613 84.862 17.192C84.862 19.9227 84.5633 22.1947 83.966 24.008C83.3687 25.8213 82.526 27.176 81.438 28.072C80.35 28.968 79.0593 29.416 77.566 29.416ZM77.566 27.048C78.462 27.048 79.2407 26.7067 79.902 26.024C80.5847 25.3413 81.1073 24.2747 81.47 22.824C81.854 21.352 82.046 19.4747 82.046 17.192C82.046 14.9093 81.854 13.0533 81.47 11.624C81.1073 10.1733 80.5847 9.11733 79.902 8.456C79.2407 7.77333 78.462 7.432 77.566 7.432C76.6913 7.432 75.9127 7.77333 75.23 8.456C74.5473 9.11733 74.014 10.1733 73.63 11.624C73.2673 13.0533 73.086 14.9093 73.086 17.192C73.086 19.4747 73.2673 21.352 73.63 22.824C74.014 24.2747 74.5473 25.3413 75.23 26.024C75.9127 26.7067 76.6913 27.048 77.566 27.048Z" fill="#1C1B1B"/>
<path d="M163.816 29V26.568H169.064V9.064H164.872V7.208C165.917 7.016 166.824 6.78133 167.592 6.504C168.381 6.22667 169.096 5.90667 169.736 5.544H171.976V26.568H176.68V29H163.816ZM189.054 29.416C187.838 29.416 186.761 29.2667 185.822 28.968C184.905 28.6693 184.094 28.2853 183.39 27.816C182.707 27.3467 182.089 26.8453 181.534 26.312L183.006 24.392C183.454 24.84 183.945 25.2667 184.478 25.672C185.033 26.056 185.662 26.376 186.366 26.632C187.07 26.8667 187.87 26.984 188.766 26.984C189.683 26.984 190.515 26.76 191.262 26.312C192.03 25.864 192.638 25.224 193.086 24.392C193.534 23.56 193.758 22.5787 193.758 21.448C193.758 19.784 193.31 18.4827 192.414 17.544C191.539 16.584 190.366 16.104 188.894 16.104C188.126 16.104 187.454 16.2213 186.878 16.456C186.302 16.6907 185.673 17.032 184.99 17.48L183.422 16.488L184.19 5.544H195.582V8.04H186.75L186.142 14.824C186.654 14.5253 187.187 14.3013 187.742 14.152C188.318 13.9813 188.958 13.896 189.662 13.896C190.963 13.896 192.147 14.1627 193.214 14.696C194.281 15.208 195.134 16.0187 195.774 17.128C196.414 18.2373 196.734 19.656 196.734 21.384C196.734 23.0907 196.361 24.5413 195.614 25.736C194.889 26.9307 193.939 27.848 192.766 28.488C191.593 29.1067 190.355 29.416 189.054 29.416ZM204.788 16.52C204.212 16.52 203.711 16.3173 203.284 15.912C202.879 15.4853 202.676 14.9413 202.676 14.28C202.676 13.6187 202.879 13.0853 203.284 12.68C203.711 12.2533 204.212 12.04 204.788 12.04C205.364 12.04 205.855 12.2533 206.26 12.68C206.687 13.0853 206.9 13.6187 206.9 14.28C206.9 14.9413 206.687 15.4853 206.26 15.912C205.855 16.3173 205.364 16.52 204.788 16.52ZM204.788 29.416C204.212 29.416 203.711 29.2133 203.284 28.808C202.879 28.3813 202.676 27.848 202.676 27.208C202.676 26.5253 202.879 25.9813 203.284 25.576C203.711 25.1707 204.212 24.968 204.788 24.968C205.364 24.968 205.855 25.1707 206.26 25.576C206.687 25.9813 206.9 26.5253 206.9 27.208C206.9 27.848 206.687 28.3813 206.26 28.808C205.855 29.2133 205.364 29.416 204.788 29.416ZM220.062 29.416C218.59 29.416 217.3 28.968 216.19 28.072C215.102 27.176 214.26 25.8213 213.662 24.008C213.065 22.1947 212.766 19.9227 212.766 17.192C212.766 14.4613 213.065 12.2107 213.662 10.44C214.26 8.648 215.102 7.31467 216.19 6.44C217.3 5.56533 218.59 5.128 220.062 5.128C221.556 5.128 222.846 5.576 223.934 6.472C225.022 7.34667 225.865 8.66933 226.462 10.44C227.06 12.2107 227.358 14.4613 227.358 17.192C227.358 19.9227 227.06 22.1947 226.462 24.008C225.865 25.8213 225.022 27.176 223.934 28.072C222.846 28.968 221.556 29.416 220.062 29.416ZM220.062 27.048C220.958 27.048 221.737 26.7067 222.398 26.024C223.081 25.3413 223.604 24.2747 223.966 22.824C224.35 21.352 224.542 19.4747 224.542 17.192C224.542 14.9093 224.35 13.0533 223.966 11.624C223.604 10.1733 223.081 9.11733 222.398 8.456C221.737 7.77333 220.958 7.432 220.062 7.432C219.188 7.432 218.409 7.77333 217.726 8.456C217.044 9.11733 216.51 10.1733 216.126 11.624C215.764 13.0533 215.582 14.9093 215.582 17.192C215.582 19.4747 215.764 21.352 216.126 22.824C216.51 24.2747 217.044 25.3413 217.726 26.024C218.409 26.7067 219.188 27.048 220.062 27.048ZM239.22 29.416C238.004 29.416 236.927 29.2667 235.988 28.968C235.071 28.6693 234.26 28.2853 233.556 27.816C232.874 27.3467 232.255 26.8453 231.7 26.312L233.172 24.392C233.62 24.84 234.111 25.2667 234.644 25.672C235.199 26.056 235.828 26.376 236.532 26.632C237.236 26.8667 238.036 26.984 238.932 26.984C239.85 26.984 240.682 26.76 241.428 26.312C242.196 25.864 242.804 25.224 243.252 24.392C243.7 23.56 243.924 22.5787 243.924 21.448C243.924 19.784 243.476 18.4827 242.58 17.544C241.706 16.584 240.532 16.104 239.06 16.104C238.292 16.104 237.62 16.2213 237.044 16.456C236.468 16.6907 235.839 17.032 235.156 17.48L233.588 16.488L234.356 5.544H245.748V8.04H236.916L236.308 14.824C236.82 14.5253 237.354 14.3013 237.908 14.152C238.484 13.9813 239.124 13.896 239.828 13.896C241.13 13.896 242.314 14.1627 243.38 14.696C244.447 15.208 245.3 16.0187 245.94 17.128C246.58 18.2373 246.9 19.656 246.9 21.384C246.9 23.0907 246.527 24.5413 245.78 25.736C245.055 26.9307 244.106 27.848 242.932 28.488C241.759 29.1067 240.522 29.416 239.22 29.416Z" fill="#1C1B1B"/>
<path d="M270.104 17.736C269.251 16.9253 268.419 16.2853 267.608 15.816C266.819 15.3467 265.837 15.112 264.664 15.112C263.405 15.112 262.243 15.5067 261.176 16.296C260.131 17.064 259.277 18.0773 258.616 19.336L256.344 18.12C257.347 16.2853 258.563 14.8987 259.992 13.96C261.443 13 263.011 12.52 264.696 12.52C266.147 12.52 267.427 12.8187 268.536 13.416C269.667 13.992 270.787 14.8347 271.896 15.944C272.749 16.7547 273.581 17.3947 274.392 17.864C275.203 18.3333 276.184 18.568 277.336 18.568C278.595 18.568 279.747 18.184 280.792 17.416C281.859 16.6267 282.723 15.6027 283.384 14.344L285.656 15.56C284.653 17.3947 283.427 18.792 281.976 19.752C280.547 20.6907 278.989 21.16 277.304 21.16C275.875 21.16 274.595 20.872 273.464 20.296C272.333 19.6987 271.213 18.8453 270.104 17.736Z" fill="#1C1B1B"/>
<path d="M292.816 29V26.568H298.064V9.064H293.872V7.208C294.917 7.016 295.824 6.78133 296.592 6.504C297.381 6.22667 298.096 5.90667 298.736 5.544H300.976V26.568H305.68V29H292.816ZM319.302 29.416C318.193 29.416 317.158 29.1813 316.198 28.712C315.238 28.2213 314.406 27.496 313.702 26.536C312.998 25.5547 312.443 24.3387 312.038 22.888C311.654 21.4373 311.462 19.7413 311.462 17.8C311.462 15.5173 311.697 13.5653 312.166 11.944C312.635 10.3227 313.275 9.01067 314.086 8.008C314.897 7.00533 315.825 6.28 316.87 5.832C317.915 5.36267 319.003 5.128 320.134 5.128C321.35 5.128 322.406 5.352 323.302 5.8C324.198 6.248 324.977 6.824 325.638 7.528L323.974 9.32C323.526 8.76533 322.971 8.328 322.31 8.008C321.649 7.688 320.966 7.528 320.262 7.528C319.153 7.528 318.139 7.85867 317.222 8.52C316.305 9.16 315.569 10.2267 315.014 11.72C314.481 13.2133 314.214 15.24 314.214 17.8C314.214 19.8053 314.406 21.5013 314.79 22.888C315.195 24.2747 315.771 25.3307 316.518 26.056C317.286 26.76 318.214 27.112 319.302 27.112C320.07 27.112 320.742 26.888 321.318 26.44C321.915 25.992 322.385 25.3733 322.726 24.584C323.089 23.7733 323.27 22.8453 323.27 21.8C323.27 20.7333 323.11 19.816 322.79 19.048C322.491 18.2587 322.033 17.6613 321.414 17.256C320.795 16.8293 320.006 16.616 319.046 16.616C318.299 16.616 317.489 16.8613 316.614 17.352C315.739 17.8213 314.907 18.6427 314.118 19.816L314.022 17.512C314.513 16.872 315.057 16.328 315.654 15.88C316.251 15.4107 316.881 15.0587 317.542 14.824C318.225 14.568 318.886 14.44 319.526 14.44C320.849 14.44 321.99 14.7173 322.95 15.272C323.931 15.8053 324.689 16.616 325.222 17.704C325.777 18.792 326.054 20.1573 326.054 21.8C326.054 23.3147 325.745 24.648 325.126 25.8C324.507 26.9307 323.686 27.816 322.662 28.456C321.659 29.096 320.539 29.416 319.302 29.416ZM333.788 16.52C333.212 16.52 332.711 16.3173 332.284 15.912C331.879 15.4853 331.676 14.9413 331.676 14.28C331.676 13.6187 331.879 13.0853 332.284 12.68C332.711 12.2533 333.212 12.04 333.788 12.04C334.364 12.04 334.855 12.2533 335.26 12.68C335.687 13.0853 335.9 13.6187 335.9 14.28C335.9 14.9413 335.687 15.4853 335.26 15.912C334.855 16.3173 334.364 16.52 333.788 16.52ZM333.788 29.416C333.212 29.416 332.711 29.2133 332.284 28.808C331.879 28.3813 331.676 27.848 331.676 27.208C331.676 26.5253 331.879 25.9813 332.284 25.576C332.711 25.1707 333.212 24.968 333.788 24.968C334.364 24.968 334.855 25.1707 335.26 25.576C335.687 25.9813 335.9 26.5253 335.9 27.208C335.9 27.848 335.687 28.3813 335.26 28.808C334.855 29.2133 334.364 29.416 333.788 29.416ZM351.046 29V13C351.046 12.424 351.068 11.72 351.11 10.888C351.153 10.056 351.185 9.34133 351.206 8.744H351.078C350.78 9.29867 350.47 9.87466 350.15 10.472C349.852 11.048 349.532 11.624 349.19 12.2L343.846 20.2H356.934V22.536H340.806V20.616L350.566 5.544H353.798V29H351.046ZM368.22 29.416C367.004 29.416 365.927 29.2667 364.988 28.968C364.071 28.6693 363.26 28.2853 362.556 27.816C361.874 27.3467 361.255 26.8453 360.7 26.312L362.172 24.392C362.62 24.84 363.111 25.2667 363.644 25.672C364.199 26.056 364.828 26.376 365.532 26.632C366.236 26.8667 367.036 26.984 367.932 26.984C368.85 26.984 369.682 26.76 370.428 26.312C371.196 25.864 371.804 25.224 372.252 24.392C372.7 23.56 372.924 22.5787 372.924 21.448C372.924 19.784 372.476 18.4827 371.58 17.544C370.706 16.584 369.532 16.104 368.06 16.104C367.292 16.104 366.62 16.2213 366.044 16.456C365.468 16.6907 364.839 17.032 364.156 17.48L362.588 16.488L363.356 5.544H374.748V8.04H365.916L365.308 14.824C365.82 14.5253 366.354 14.3013 366.908 14.152C367.484 13.9813 368.124 13.896 368.828 13.896C370.13 13.896 371.314 14.1627 372.38 14.696C373.447 15.208 374.3 16.0187 374.94 17.128C375.58 18.2373 375.9 19.656 375.9 21.384C375.9 23.0907 375.527 24.5413 374.78 25.736C374.055 26.9307 373.106 27.848 371.932 28.488C370.759 29.1067 369.522 29.416 368.22 29.416Z" fill="#1C1B1B"/>
</svg>
