<svg width="378" height="33" viewBox="0 0 378 33" fill="none" xmlns="http://www.w3.org/2000/svg">
<path d="M163.816 29V26.568H169.064V9.064H164.872V7.208C165.917 7.016 166.824 6.78133 167.592 6.504C168.381 6.22667 169.096 5.90667 169.736 5.544H171.976V26.568H176.68V29H163.816ZM187.006 29C187.113 26.7813 187.294 24.744 187.55 22.888C187.827 21.0107 188.222 19.2507 188.734 17.608C189.246 15.944 189.897 14.3333 190.686 12.776C191.497 11.2187 192.478 9.64 193.63 8.04H182.238V5.544H196.926V7.304C195.561 9.07467 194.441 10.7707 193.566 12.392C192.713 14.0133 192.041 15.6667 191.55 17.352C191.081 19.0373 190.729 20.8293 190.494 22.728C190.281 24.6053 190.131 26.696 190.046 29H187.006ZM204.788 16.52C204.212 16.52 203.711 16.3173 203.284 15.912C202.879 15.4853 202.676 14.9413 202.676 14.28C202.676 13.6187 202.879 13.0853 203.284 12.68C203.711 12.2533 204.212 12.04 204.788 12.04C205.364 12.04 205.855 12.2533 206.26 12.68C206.687 13.0853 206.9 13.6187 206.9 14.28C206.9 14.9413 206.687 15.4853 206.26 15.912C205.855 16.3173 205.364 16.52 204.788 16.52ZM204.788 29.416C204.212 29.416 203.711 29.2133 203.284 28.808C202.879 28.3813 202.676 27.848 202.676 27.208C202.676 26.5253 202.879 25.9813 203.284 25.576C203.711 25.1707 204.212 24.968 204.788 24.968C205.364 24.968 205.855 25.1707 206.26 25.576C206.687 25.9813 206.9 26.5253 206.9 27.208C206.9 27.848 206.687 28.3813 206.26 28.808C205.855 29.2133 205.364 29.416 204.788 29.416ZM220.062 29.416C218.59 29.416 217.3 28.968 216.19 28.072C215.102 27.176 214.26 25.8213 213.662 24.008C213.065 22.1947 212.766 19.9227 212.766 17.192C212.766 14.4613 213.065 12.2107 213.662 10.44C214.26 8.648 215.102 7.31467 216.19 6.44C217.3 5.56533 218.59 5.128 220.062 5.128C221.556 5.128 222.846 5.576 223.934 6.472C225.022 7.34667 225.865 8.66933 226.462 10.44C227.06 12.2107 227.358 14.4613 227.358 17.192C227.358 19.9227 227.06 22.1947 226.462 24.008C225.865 25.8213 225.022 27.176 223.934 28.072C222.846 28.968 221.556 29.416 220.062 29.416ZM220.062 27.048C220.958 27.048 221.737 26.7067 222.398 26.024C223.081 25.3413 223.604 24.2747 223.966 22.824C224.35 21.352 224.542 19.4747 224.542 17.192C224.542 14.9093 224.35 13.0533 223.966 11.624C223.604 10.1733 223.081 9.11733 222.398 8.456C221.737 7.77333 220.958 7.432 220.062 7.432C219.188 7.432 218.409 7.77333 217.726 8.456C217.044 9.11733 216.51 10.1733 216.126 11.624C215.764 13.0533 215.582 14.9093 215.582 17.192C215.582 19.4747 215.764 21.352 216.126 22.824C216.51 24.2747 217.044 25.3413 217.726 26.024C218.409 26.7067 219.188 27.048 220.062 27.048ZM239.732 29.416C238.26 29.416 236.97 28.968 235.86 28.072C234.772 27.176 233.93 25.8213 233.332 24.008C232.735 22.1947 232.436 19.9227 232.436 17.192C232.436 14.4613 232.735 12.2107 233.332 10.44C233.93 8.648 234.772 7.31467 235.86 6.44C236.97 5.56533 238.26 5.128 239.732 5.128C241.226 5.128 242.516 5.576 243.604 6.472C244.692 7.34667 245.535 8.66933 246.132 10.44C246.73 12.2107 247.028 14.4613 247.028 17.192C247.028 19.9227 246.73 22.1947 246.132 24.008C245.535 25.8213 244.692 27.176 243.604 28.072C242.516 28.968 241.226 29.416 239.732 29.416ZM239.732 27.048C240.628 27.048 241.407 26.7067 242.068 26.024C242.751 25.3413 243.274 24.2747 243.636 22.824C244.02 21.352 244.212 19.4747 244.212 17.192C244.212 14.9093 244.02 13.0533 243.636 11.624C243.274 10.1733 242.751 9.11733 242.068 8.456C241.407 7.77333 240.628 7.432 239.732 7.432C238.858 7.432 238.079 7.77333 237.396 8.456C236.714 9.11733 236.18 10.1733 235.796 11.624C235.434 13.0533 235.252 14.9093 235.252 17.192C235.252 19.4747 235.434 21.352 235.796 22.824C236.18 24.2747 236.714 25.3413 237.396 26.024C238.079 26.7067 238.858 27.048 239.732 27.048Z" fill="#1C1B1B"/>
<path d="M270.104 17.736C269.251 16.9253 268.419 16.2853 267.608 15.816C266.819 15.3467 265.837 15.112 264.664 15.112C263.405 15.112 262.243 15.5067 261.176 16.296C260.131 17.064 259.277 18.0773 258.616 19.336L256.344 18.12C257.347 16.2853 258.563 14.8987 259.992 13.96C261.443 13 263.011 12.52 264.696 12.52C266.147 12.52 267.427 12.8187 268.536 13.416C269.667 13.992 270.787 14.8347 271.896 15.944C272.749 16.7547 273.581 17.3947 274.392 17.864C275.203 18.3333 276.184 18.568 277.336 18.568C278.595 18.568 279.747 18.184 280.792 17.416C281.859 16.6267 282.723 15.6027 283.384 14.344L285.656 15.56C284.653 17.3947 283.427 18.792 281.976 19.752C280.547 20.6907 278.989 21.16 277.304 21.16C275.875 21.16 274.595 20.872 273.464 20.296C272.333 19.6987 271.213 18.8453 270.104 17.736Z" fill="#1C1B1B"/>
<path d="M292.816 29V26.568H298.064V9.064H293.872V7.208C294.917 7.016 295.824 6.78133 296.592 6.504C297.381 6.22667 298.096 5.90667 298.736 5.544H300.976V26.568H305.68V29H292.816ZM318.63 29.416C317.179 29.416 315.889 29.1493 314.758 28.616C313.627 28.0827 312.742 27.3467 312.102 26.408C311.462 25.4693 311.142 24.392 311.142 23.176C311.142 22.1307 311.345 21.192 311.75 20.36C312.177 19.5067 312.721 18.7813 313.382 18.184C314.043 17.5653 314.726 17.064 315.43 16.68V16.552C314.577 15.9547 313.83 15.2187 313.19 14.344C312.571 13.448 312.262 12.3813 312.262 11.144C312.262 9.94933 312.539 8.91467 313.094 8.04C313.67 7.144 314.438 6.45067 315.398 5.96C316.379 5.448 317.478 5.192 318.694 5.192C320.038 5.192 321.19 5.45867 322.15 5.992C323.11 6.52533 323.846 7.25067 324.358 8.168C324.87 9.08533 325.126 10.152 325.126 11.368C325.126 12.1787 324.955 12.9467 324.614 13.672C324.294 14.3973 323.899 15.048 323.43 15.624C322.961 16.1787 322.491 16.648 322.022 17.032V17.192C322.705 17.576 323.345 18.0453 323.942 18.6C324.539 19.1333 325.019 19.7947 325.382 20.584C325.766 21.352 325.958 22.28 325.958 23.368C325.958 24.4773 325.649 25.5013 325.03 26.44C324.433 27.3573 323.579 28.0827 322.47 28.616C321.382 29.1493 320.102 29.416 318.63 29.416ZM320.23 16.264C321.019 15.56 321.617 14.8133 322.022 14.024C322.427 13.2133 322.63 12.3813 322.63 11.528C322.63 10.7387 322.47 10.0347 322.15 9.416C321.851 8.79733 321.403 8.30667 320.806 7.944C320.209 7.56 319.494 7.368 318.662 7.368C317.574 7.368 316.678 7.70933 315.974 8.392C315.27 9.07467 314.918 9.992 314.918 11.144C314.918 12.0613 315.163 12.84 315.654 13.48C316.166 14.0987 316.827 14.632 317.638 15.08C318.449 15.5067 319.313 15.9013 320.23 16.264ZM318.662 27.24C319.579 27.24 320.369 27.0693 321.03 26.728C321.713 26.3867 322.235 25.9173 322.598 25.32C322.982 24.7227 323.174 24.04 323.174 23.272C323.174 22.4827 323.003 21.8107 322.662 21.256C322.321 20.68 321.862 20.1787 321.286 19.752C320.731 19.3253 320.081 18.9413 319.334 18.6C318.587 18.2587 317.798 17.928 316.966 17.608C316.027 18.2053 315.249 18.9627 314.63 19.88C314.033 20.776 313.734 21.7893 313.734 22.92C313.734 23.7307 313.947 24.4667 314.374 25.128C314.801 25.7893 315.387 26.312 316.134 26.696C316.902 27.0587 317.745 27.24 318.662 27.24ZM333.788 16.52C333.212 16.52 332.711 16.3173 332.284 15.912C331.879 15.4853 331.676 14.9413 331.676 14.28C331.676 13.6187 331.879 13.0853 332.284 12.68C332.711 12.2533 333.212 12.04 333.788 12.04C334.364 12.04 334.855 12.2533 335.26 12.68C335.687 13.0853 335.9 13.6187 335.9 14.28C335.9 14.9413 335.687 15.4853 335.26 15.912C334.855 16.3173 334.364 16.52 333.788 16.52ZM333.788 29.416C333.212 29.416 332.711 29.2133 332.284 28.808C331.879 28.3813 331.676 27.848 331.676 27.208C331.676 26.5253 331.879 25.9813 332.284 25.576C332.711 25.1707 333.212 24.968 333.788 24.968C334.364 24.968 334.855 25.1707 335.26 25.576C335.687 25.9813 335.9 26.5253 335.9 27.208C335.9 27.848 335.687 28.3813 335.26 28.808C334.855 29.2133 334.364 29.416 333.788 29.416ZM351.046 29V13C351.046 12.424 351.068 11.72 351.11 10.888C351.153 10.056 351.185 9.34133 351.206 8.744H351.078C350.78 9.29867 350.47 9.87466 350.15 10.472C349.852 11.048 349.532 11.624 349.19 12.2L343.846 20.2H356.934V22.536H340.806V20.616L350.566 5.544H353.798V29H351.046ZM368.732 29.416C367.26 29.416 365.97 28.968 364.86 28.072C363.772 27.176 362.93 25.8213 362.332 24.008C361.735 22.1947 361.436 19.9227 361.436 17.192C361.436 14.4613 361.735 12.2107 362.332 10.44C362.93 8.648 363.772 7.31467 364.86 6.44C365.97 5.56533 367.26 5.128 368.732 5.128C370.226 5.128 371.516 5.576 372.604 6.472C373.692 7.34667 374.535 8.66933 375.132 10.44C375.73 12.2107 376.028 14.4613 376.028 17.192C376.028 19.9227 375.73 22.1947 375.132 24.008C374.535 25.8213 373.692 27.176 372.604 28.072C371.516 28.968 370.226 29.416 368.732 29.416ZM368.732 27.048C369.628 27.048 370.407 26.7067 371.068 26.024C371.751 25.3413 372.274 24.2747 372.636 22.824C373.02 21.352 373.212 19.4747 373.212 17.192C373.212 14.9093 373.02 13.0533 372.636 11.624C372.274 10.1733 371.751 9.11733 371.068 8.456C370.407 7.77333 369.628 7.432 368.732 7.432C367.858 7.432 367.079 7.77333 366.396 8.456C365.714 9.11733 365.18 10.1733 364.796 11.624C364.434 13.0533 364.252 14.9093 364.252 17.192C364.252 19.4747 364.434 21.352 364.796 22.824C365.18 24.2747 365.714 25.3413 366.396 26.024C367.079 26.7067 367.858 27.048 368.732 27.048Z" fill="#1C1B1B"/>
</svg>
