<svg width="378" height="33" viewBox="0 0 378 33" fill="none" xmlns="http://www.w3.org/2000/svg">
<path d="M10.88 29V13C10.88 12.424 10.9013 11.72 10.944 10.888C10.9867 10.056 11.0187 9.34133 11.04 8.744H10.912C10.6133 9.29867 10.304 9.87466 9.984 10.472C9.68533 11.048 9.36533 11.624 9.024 12.2L3.68 20.2H16.768V22.536H0.64V20.616L10.4 5.544H13.632V29H10.88Z" fill="#1C1B1B"/>
<path d="M28.08 13.26H38.5V14.72H28.08V13.26ZM28.08 18.08H38.6V19.5H28.08V18.08ZM27.92 22.9H38.5V24.36H27.92V22.9ZM27.14 13.26H28.66V19.42C28.66 20.2867 28.6133 21.2133 28.52 22.2C28.44 23.1867 28.2667 24.1867 28 25.2C27.7333 26.2 27.3333 27.1667 26.8 28.1C26.28 29.0333 25.5867 29.8733 24.72 30.62C24.6533 30.5133 24.5467 30.3867 24.4 30.24C24.2667 30.0933 24.1267 29.9533 23.98 29.82C23.8333 29.7 23.7 29.6067 23.58 29.54C24.3933 28.82 25.0333 28.0467 25.5 27.22C25.98 26.38 26.3333 25.5133 26.56 24.62C26.8 23.7267 26.9533 22.84 27.02 21.96C27.1 21.0667 27.14 20.22 27.14 19.42V13.26ZM37.84 13.26H39.42V28.38C39.42 28.9133 39.34 29.32 39.18 29.6C39.02 29.88 38.7533 30.0867 38.38 30.22C37.9933 30.3533 37.4533 30.4333 36.76 30.46C36.0667 30.5 35.1867 30.52 34.12 30.52C34.0933 30.36 34.04 30.1867 33.96 30C33.8933 29.8133 33.8133 29.62 33.72 29.42C33.64 29.2333 33.56 29.0733 33.48 28.94C34.04 28.9533 34.5733 28.9667 35.08 28.98C35.6 28.98 36.0467 28.98 36.42 28.98C36.8067 28.9667 37.0733 28.96 37.22 28.96C37.46 28.9467 37.62 28.9 37.7 28.82C37.7933 28.7267 37.84 28.5733 37.84 28.36V13.26Z" fill="#1C1B1B"/>
<path d="M75.52 13.56H88.64V30.28H87.04V15.06H77.06V30.38H75.52V13.56ZM76.56 20.48H87.72V21.96H76.56V20.48ZM76.52 27.58H87.74V29.08H76.52V27.58Z" fill="#1C1B1B"/>
<path d="M101.78 32.92C100.86 31.4267 100.14 29.86 99.62 28.22C99.1 26.5667 98.84 24.7533 98.84 22.78C98.84 20.82 99.1 19.0133 99.62 17.36C100.14 15.7067 100.86 14.1333 101.78 12.64L102.9 13.16C102.047 14.5867 101.407 16.1267 100.98 17.78C100.567 19.42 100.36 21.0867 100.36 22.78C100.36 24.4867 100.567 26.1667 100.98 27.82C101.407 29.46 102.047 30.9933 102.9 32.42L101.78 32.92ZM106.058 17.32H112.058V18.84H106.058V17.32ZM114.198 12.24H115.778V28.48C115.778 29.0133 115.698 29.4133 115.538 29.68C115.391 29.9467 115.151 30.1533 114.818 30.3C114.484 30.42 114.018 30.5 113.418 30.54C112.818 30.5933 112.058 30.62 111.138 30.62C111.111 30.46 111.064 30.28 110.998 30.08C110.931 29.8933 110.858 29.7 110.778 29.5C110.698 29.3 110.611 29.1267 110.518 28.98C111.251 28.9933 111.904 29 112.478 29C113.064 29.0133 113.458 29.0133 113.658 29C113.858 28.9867 113.998 28.9467 114.078 28.88C114.158 28.8 114.198 28.6667 114.198 28.48V12.24ZM111.538 17.32H111.858L112.138 17.26L113.158 17.66C112.811 19.4067 112.324 20.9867 111.698 22.4C111.071 23.8133 110.338 25.0467 109.498 26.1C108.658 27.1533 107.744 28.0067 106.758 28.66C106.678 28.54 106.564 28.4067 106.418 28.26C106.271 28.1 106.118 27.9467 105.958 27.8C105.798 27.6533 105.658 27.5467 105.538 27.48C106.498 26.88 107.378 26.1067 108.178 25.16C108.978 24.2133 109.664 23.1133 110.238 21.86C110.824 20.5933 111.258 19.2 111.538 17.68V17.32ZM115.678 15.52C116.024 16.8533 116.464 18.1467 116.998 19.4C117.531 20.6533 118.158 21.82 118.878 22.9C119.598 23.9667 120.418 24.9133 121.338 25.74C122.258 26.5667 123.278 27.22 124.398 27.7C124.278 27.7933 124.144 27.92 123.998 28.08C123.851 28.24 123.711 28.4067 123.578 28.58C123.444 28.7533 123.331 28.9133 123.238 29.06C121.718 28.3133 120.391 27.28 119.258 25.96C118.138 24.6267 117.184 23.0933 116.398 21.36C115.624 19.6133 114.991 17.7533 114.498 15.78L115.678 15.52ZM122.218 15.44L123.598 16.42C123.051 17.0333 122.444 17.6733 121.778 18.34C121.124 18.9933 120.464 19.62 119.798 20.22C119.131 20.82 118.504 21.3467 117.918 21.8L116.858 20.96C117.431 20.4933 118.044 19.9467 118.698 19.32C119.364 18.68 120.004 18.0267 120.618 17.36C121.244 16.68 121.778 16.04 122.218 15.44ZM128.138 32.92L126.998 32.42C127.864 30.9933 128.511 29.46 128.938 27.82C129.364 26.1667 129.578 24.4867 129.578 22.78C129.578 21.0867 129.364 19.42 128.938 17.78C128.511 16.1267 127.864 14.5867 126.998 13.16L128.138 12.64C129.071 14.1333 129.791 15.7067 130.298 17.36C130.818 19.0133 131.078 20.82 131.078 22.78C131.078 24.7533 130.818 26.5667 130.298 28.22C129.791 29.86 129.071 31.4267 128.138 32.92Z" fill="#1C1B1B"/>
<path d="M55.336 29C55.4427 26.7813 55.624 24.744 55.88 22.888C56.1573 21.0107 56.552 19.2507 57.064 17.608C57.576 15.944 58.2267 14.3333 59.016 12.776C59.8267 11.2187 60.808 9.64 61.96 8.04H50.568V5.544H65.256V7.304C63.8907 9.07467 62.7707 10.7707 61.896 12.392C61.0427 14.0133 60.3707 15.6667 59.88 17.352C59.4107 19.0373 59.0587 20.8293 58.824 22.728C58.6107 24.6053 58.4613 26.696 58.376 29H55.336Z" fill="#1C1B1B"/>
<path d="M163.816 29V26.568H169.064V9.064H164.872V7.208C165.917 7.016 166.824 6.78133 167.592 6.504C168.381 6.22667 169.096 5.90667 169.736 5.544H171.976V26.568H176.68V29H163.816ZM189.086 29.416C187.87 29.416 186.793 29.2667 185.854 28.968C184.937 28.6693 184.126 28.2747 183.422 27.784C182.718 27.2933 182.11 26.76 181.598 26.184L183.102 24.296C183.785 25 184.585 25.6293 185.502 26.184C186.441 26.7173 187.571 26.984 188.894 26.984C189.833 26.984 190.654 26.8133 191.358 26.472C192.083 26.1093 192.649 25.608 193.054 24.968C193.459 24.3067 193.662 23.528 193.662 22.632C193.662 21.6933 193.427 20.872 192.958 20.168C192.51 19.464 191.753 18.92 190.686 18.536C189.619 18.1307 188.179 17.928 186.366 17.928V15.688C187.987 15.688 189.267 15.496 190.206 15.112C191.145 14.7067 191.817 14.1627 192.222 13.48C192.649 12.7973 192.862 12.04 192.862 11.208C192.862 10.0773 192.51 9.18133 191.806 8.52C191.102 7.83733 190.131 7.496 188.894 7.496C187.955 7.496 187.07 7.70933 186.238 8.136C185.427 8.56267 184.691 9.10667 184.03 9.768L182.462 7.912C183.358 7.10133 184.329 6.44 185.374 5.928C186.441 5.39467 187.646 5.128 188.99 5.128C190.313 5.128 191.486 5.36267 192.51 5.832C193.555 6.28 194.366 6.94133 194.942 7.816C195.539 8.69066 195.838 9.74667 195.838 10.984C195.838 12.4133 195.454 13.5973 194.686 14.536C193.918 15.4747 192.915 16.168 191.678 16.616V16.776C192.595 16.9893 193.427 17.3627 194.174 17.896C194.921 18.4293 195.518 19.1013 195.966 19.912C196.414 20.7227 196.638 21.6613 196.638 22.728C196.638 24.1147 196.297 25.3093 195.614 26.312C194.931 27.3147 194.025 28.0827 192.894 28.616C191.763 29.1493 190.494 29.416 189.086 29.416ZM204.788 16.52C204.212 16.52 203.711 16.3173 203.284 15.912C202.879 15.4853 202.676 14.9413 202.676 14.28C202.676 13.6187 202.879 13.0853 203.284 12.68C203.711 12.2533 204.212 12.04 204.788 12.04C205.364 12.04 205.855 12.2533 206.26 12.68C206.687 13.0853 206.9 13.6187 206.9 14.28C206.9 14.9413 206.687 15.4853 206.26 15.912C205.855 16.3173 205.364 16.52 204.788 16.52ZM204.788 29.416C204.212 29.416 203.711 29.2133 203.284 28.808C202.879 28.3813 202.676 27.848 202.676 27.208C202.676 26.5253 202.879 25.9813 203.284 25.576C203.711 25.1707 204.212 24.968 204.788 24.968C205.364 24.968 205.855 25.1707 206.26 25.576C206.687 25.9813 206.9 26.5253 206.9 27.208C206.9 27.848 206.687 28.3813 206.26 28.808C205.855 29.2133 205.364 29.416 204.788 29.416ZM219.582 29.416C218.366 29.416 217.289 29.2667 216.35 28.968C215.433 28.6693 214.622 28.2747 213.918 27.784C213.214 27.2933 212.606 26.76 212.094 26.184L213.598 24.296C214.281 25 215.081 25.6293 215.998 26.184C216.937 26.7173 218.068 26.984 219.39 26.984C220.329 26.984 221.15 26.8133 221.854 26.472C222.58 26.1093 223.145 25.608 223.55 24.968C223.956 24.3067 224.158 23.528 224.158 22.632C224.158 21.6933 223.924 20.872 223.454 20.168C223.006 19.464 222.249 18.92 221.182 18.536C220.116 18.1307 218.676 17.928 216.862 17.928V15.688C218.484 15.688 219.764 15.496 220.702 15.112C221.641 14.7067 222.313 14.1627 222.718 13.48C223.145 12.7973 223.358 12.04 223.358 11.208C223.358 10.0773 223.006 9.18133 222.302 8.52C221.598 7.83733 220.628 7.496 219.39 7.496C218.452 7.496 217.566 7.70933 216.734 8.136C215.924 8.56267 215.188 9.10667 214.526 9.768L212.958 7.912C213.854 7.10133 214.825 6.44 215.87 5.928C216.937 5.39467 218.142 5.128 219.486 5.128C220.809 5.128 221.982 5.36267 223.006 5.832C224.052 6.28 224.862 6.94133 225.438 7.816C226.036 8.69066 226.334 9.74667 226.334 10.984C226.334 12.4133 225.95 13.5973 225.182 14.536C224.414 15.4747 223.412 16.168 222.174 16.616V16.776C223.092 16.9893 223.924 17.3627 224.67 17.896C225.417 18.4293 226.014 19.1013 226.462 19.912C226.91 20.7227 227.134 21.6613 227.134 22.728C227.134 24.1147 226.793 25.3093 226.11 26.312C225.428 27.3147 224.521 28.0827 223.39 28.616C222.26 29.1493 220.99 29.416 219.582 29.416ZM239.732 29.416C238.26 29.416 236.97 28.968 235.86 28.072C234.772 27.176 233.93 25.8213 233.332 24.008C232.735 22.1947 232.436 19.9227 232.436 17.192C232.436 14.4613 232.735 12.2107 233.332 10.44C233.93 8.648 234.772 7.31467 235.86 6.44C236.97 5.56533 238.26 5.128 239.732 5.128C241.226 5.128 242.516 5.576 243.604 6.472C244.692 7.34667 245.535 8.66933 246.132 10.44C246.73 12.2107 247.028 14.4613 247.028 17.192C247.028 19.9227 246.73 22.1947 246.132 24.008C245.535 25.8213 244.692 27.176 243.604 28.072C242.516 28.968 241.226 29.416 239.732 29.416ZM239.732 27.048C240.628 27.048 241.407 26.7067 242.068 26.024C242.751 25.3413 243.274 24.2747 243.636 22.824C244.02 21.352 244.212 19.4747 244.212 17.192C244.212 14.9093 244.02 13.0533 243.636 11.624C243.274 10.1733 242.751 9.11733 242.068 8.456C241.407 7.77333 240.628 7.432 239.732 7.432C238.858 7.432 238.079 7.77333 237.396 8.456C236.714 9.11733 236.18 10.1733 235.796 11.624C235.434 13.0533 235.252 14.9093 235.252 17.192C235.252 19.4747 235.434 21.352 235.796 22.824C236.18 24.2747 236.714 25.3413 237.396 26.024C238.079 26.7067 238.858 27.048 239.732 27.048Z" fill="#1C1B1B"/>
<path d="M269.104 17.736C268.251 16.9253 267.419 16.2853 266.608 15.816C265.819 15.3467 264.837 15.112 263.664 15.112C262.405 15.112 261.243 15.5067 260.176 16.296C259.131 17.064 258.277 18.0773 257.616 19.336L255.344 18.12C256.347 16.2853 257.563 14.8987 258.992 13.96C260.443 13 262.011 12.52 263.696 12.52C265.147 12.52 266.427 12.8187 267.536 13.416C268.667 13.992 269.787 14.8347 270.896 15.944C271.749 16.7547 272.581 17.3947 273.392 17.864C274.203 18.3333 275.184 18.568 276.336 18.568C277.595 18.568 278.747 18.184 279.792 17.416C280.859 16.6267 281.723 15.6027 282.384 14.344L284.656 15.56C283.653 17.3947 282.427 18.792 280.976 19.752C279.547 20.6907 277.989 21.16 276.304 21.16C274.875 21.16 273.595 20.872 272.464 20.296C271.333 19.6987 270.213 18.8453 269.104 17.736Z" fill="#1C1B1B"/>
<path d="M292.816 29V26.568H298.064V9.064H293.872V7.208C294.917 7.016 295.824 6.78133 296.592 6.504C297.381 6.22667 298.096 5.90667 298.736 5.544H300.976V26.568H305.68V29H292.816ZM320.55 29V13C320.55 12.424 320.571 11.72 320.614 10.888C320.657 10.056 320.689 9.34133 320.71 8.744H320.582C320.283 9.29867 319.974 9.87466 319.654 10.472C319.355 11.048 319.035 11.624 318.694 12.2L313.35 20.2H326.438V22.536H310.31V20.616L320.07 5.544H323.302V29H320.55ZM333.788 16.52C333.212 16.52 332.711 16.3173 332.284 15.912C331.879 15.4853 331.676 14.9413 331.676 14.28C331.676 13.6187 331.879 13.0853 332.284 12.68C332.711 12.2533 333.212 12.04 333.788 12.04C334.364 12.04 334.855 12.2533 335.26 12.68C335.687 13.0853 335.9 13.6187 335.9 14.28C335.9 14.9413 335.687 15.4853 335.26 15.912C334.855 16.3173 334.364 16.52 333.788 16.52ZM333.788 29.416C333.212 29.416 332.711 29.2133 332.284 28.808C331.879 28.3813 331.676 27.848 331.676 27.208C331.676 26.5253 331.879 25.9813 332.284 25.576C332.711 25.1707 333.212 24.968 333.788 24.968C334.364 24.968 334.855 25.1707 335.26 25.576C335.687 25.9813 335.9 26.5253 335.9 27.208C335.9 27.848 335.687 28.3813 335.26 28.808C334.855 29.2133 334.364 29.416 333.788 29.416ZM348.582 29.416C347.366 29.416 346.289 29.2667 345.35 28.968C344.433 28.6693 343.622 28.2747 342.918 27.784C342.214 27.2933 341.606 26.76 341.094 26.184L342.598 24.296C343.281 25 344.081 25.6293 344.998 26.184C345.937 26.7173 347.068 26.984 348.39 26.984C349.329 26.984 350.15 26.8133 350.854 26.472C351.58 26.1093 352.145 25.608 352.55 24.968C352.956 24.3067 353.158 23.528 353.158 22.632C353.158 21.6933 352.924 20.872 352.454 20.168C352.006 19.464 351.249 18.92 350.182 18.536C349.116 18.1307 347.676 17.928 345.862 17.928V15.688C347.484 15.688 348.764 15.496 349.702 15.112C350.641 14.7067 351.313 14.1627 351.718 13.48C352.145 12.7973 352.358 12.04 352.358 11.208C352.358 10.0773 352.006 9.18133 351.302 8.52C350.598 7.83733 349.628 7.496 348.39 7.496C347.452 7.496 346.566 7.70933 345.734 8.136C344.924 8.56267 344.188 9.10667 343.526 9.768L341.958 7.912C342.854 7.10133 343.825 6.44 344.87 5.928C345.937 5.39467 347.142 5.128 348.486 5.128C349.809 5.128 350.982 5.36267 352.006 5.832C353.052 6.28 353.862 6.94133 354.438 7.816C355.036 8.69066 355.334 9.74667 355.334 10.984C355.334 12.4133 354.95 13.5973 354.182 14.536C353.414 15.4747 352.412 16.168 351.174 16.616V16.776C352.092 16.9893 352.924 17.3627 353.67 17.896C354.417 18.4293 355.014 19.1013 355.462 19.912C355.91 20.7227 356.134 21.6613 356.134 22.728C356.134 24.1147 355.793 25.3093 355.11 26.312C354.428 27.3147 353.521 28.0827 352.39 28.616C351.26 29.1493 349.99 29.416 348.582 29.416ZM368.732 29.416C367.26 29.416 365.97 28.968 364.86 28.072C363.772 27.176 362.93 25.8213 362.332 24.008C361.735 22.1947 361.436 19.9227 361.436 17.192C361.436 14.4613 361.735 12.2107 362.332 10.44C362.93 8.648 363.772 7.31467 364.86 6.44C365.97 5.56533 367.26 5.128 368.732 5.128C370.226 5.128 371.516 5.576 372.604 6.472C373.692 7.34667 374.535 8.66933 375.132 10.44C375.73 12.2107 376.028 14.4613 376.028 17.192C376.028 19.9227 375.73 22.1947 375.132 24.008C374.535 25.8213 373.692 27.176 372.604 28.072C371.516 28.968 370.226 29.416 368.732 29.416ZM368.732 27.048C369.628 27.048 370.407 26.7067 371.068 26.024C371.751 25.3413 372.274 24.2747 372.636 22.824C373.02 21.352 373.212 19.4747 373.212 17.192C373.212 14.9093 373.02 13.0533 372.636 11.624C372.274 10.1733 371.751 9.11733 371.068 8.456C370.407 7.77333 369.628 7.432 368.732 7.432C367.858 7.432 367.079 7.77333 366.396 8.456C365.714 9.11733 365.18 10.1733 364.796 11.624C364.434 13.0533 364.252 14.9093 364.252 17.192C364.252 19.4747 364.434 21.352 364.796 22.824C365.18 24.2747 365.714 25.3413 366.396 26.024C367.079 26.7067 367.858 27.048 368.732 27.048Z" fill="#1C1B1B"/>
</svg>
