<svg width="230" height="36" viewBox="0 0 230 36" fill="none" xmlns="http://www.w3.org/2000/svg">
<path d="M23.184 5.816C22.32 6.552 21.528 7.472 20.808 8.576C20.088 9.68 19.512 10.936 19.08 12.344C18.648 13.736 18.432 15.248 18.432 16.88C18.432 18.496 18.648 20.008 19.08 21.416C19.512 22.824 20.088 24.08 20.808 25.184C21.528 26.272 22.32 27.192 23.184 27.944V28.064H15.984V5.696H23.184V5.816ZM27.552 26V24.176H31.488V11.048H28.344V9.656C29.128 9.512 29.808 9.336 30.384 9.128C30.976 8.92 31.512 8.68 31.992 8.408H33.672V24.176H37.2V26H27.552ZM41.2485 26V24.704C43.0885 23.088 44.6005 21.616 45.7845 20.288C46.9845 18.96 47.8725 17.728 48.4485 16.592C49.0245 15.44 49.3125 14.36 49.3125 13.352C49.3125 12.68 49.1925 12.08 48.9525 11.552C48.7285 11.024 48.3765 10.616 47.8965 10.328C47.4165 10.024 46.8085 9.872 46.0725 9.872C45.3525 9.872 44.6805 10.064 44.0565 10.448C43.4485 10.832 42.9045 11.32 42.4245 11.912L41.1525 10.664C41.8565 9.88 42.6165 9.256 43.4325 8.792C44.2485 8.328 45.2165 8.096 46.3365 8.096C47.3925 8.096 48.2965 8.312 49.0485 8.744C49.8165 9.16 50.4085 9.76 50.8245 10.544C51.2565 11.312 51.4725 12.216 51.4725 13.256C51.4725 14.424 51.1765 15.608 50.5845 16.808C50.0085 18.008 49.2005 19.232 48.1605 20.48C47.1365 21.712 45.9365 22.976 44.5605 24.272C45.0245 24.24 45.5045 24.208 46.0005 24.176C46.5125 24.128 46.9925 24.104 47.4405 24.104H52.3125V26H41.2485Z" fill="#1C1B1B"/>
<path d="M58.816 13.648H69.312V27.024H68.032V14.848H60.048V27.104H58.816V13.648ZM59.648 19.184H68.576V20.368H59.648V19.184ZM59.616 24.864H68.592V26.064H59.616V24.864Z" fill="black"/>
<path d="M192.816 13.648H203.312V27.024H202.032V14.848H194.048V27.104H192.816V13.648ZM193.648 19.184H202.576V20.368H193.648V19.184ZM193.616 24.864H202.592V26.064H193.616V24.864Z" fill="black"/>
<path d="M161.112 26V24.176H165.048V11.048H161.904V9.656C162.688 9.512 163.368 9.336 163.944 9.128C164.536 8.92 165.072 8.68 165.552 8.408H167.232V24.176H170.76V26H161.112ZM180.977 26.312C180.145 26.312 179.369 26.136 178.649 25.784C177.929 25.416 177.305 24.872 176.777 24.152C176.249 23.416 175.833 22.504 175.529 21.416C175.241 20.328 175.097 19.056 175.097 17.6C175.097 15.888 175.273 14.424 175.625 13.208C175.977 11.992 176.457 11.008 177.065 10.256C177.673 9.504 178.369 8.96 179.153 8.624C179.937 8.272 180.753 8.096 181.601 8.096C182.513 8.096 183.305 8.264 183.977 8.6C184.649 8.936 185.233 9.368 185.729 9.896L184.481 11.24C184.145 10.824 183.729 10.496 183.233 10.256C182.737 10.016 182.225 9.896 181.697 9.896C180.865 9.896 180.105 10.144 179.417 10.64C178.729 11.12 178.177 11.92 177.761 13.04C177.361 14.16 177.161 15.68 177.161 17.6C177.161 19.104 177.305 20.376 177.593 21.416C177.897 22.456 178.329 23.248 178.889 23.792C179.465 24.32 180.161 24.584 180.977 24.584C181.553 24.584 182.057 24.416 182.489 24.08C182.937 23.744 183.289 23.28 183.545 22.688C183.817 22.08 183.953 21.384 183.953 20.6C183.953 19.8 183.833 19.112 183.593 18.536C183.369 17.944 183.025 17.496 182.561 17.192C182.097 16.872 181.505 16.712 180.785 16.712C180.225 16.712 179.617 16.896 178.961 17.264C178.305 17.616 177.681 18.232 177.089 19.112L177.017 17.384C177.385 16.904 177.793 16.496 178.241 16.16C178.689 15.808 179.161 15.544 179.657 15.368C180.169 15.176 180.665 15.08 181.145 15.08C182.137 15.08 182.993 15.288 183.713 15.704C184.449 16.104 185.017 16.712 185.417 17.528C185.833 18.344 186.041 19.368 186.041 20.6C186.041 21.736 185.809 22.736 185.345 23.6C184.881 24.448 184.265 25.112 183.497 25.592C182.745 26.072 181.905 26.312 180.977 26.312Z" fill="#1C1B1B"/>
<path d="M95.112 26V24.176H99.048V11.048H95.904V9.656C96.688 9.512 97.368 9.336 97.944 9.128C98.536 8.92 99.072 8.68 99.552 8.408H101.232V24.176H104.76V26H95.112ZM115.913 26V14C115.913 13.568 115.929 13.04 115.961 12.416C115.993 11.792 116.017 11.256 116.033 10.808H115.937C115.713 11.224 115.481 11.656 115.241 12.104C115.017 12.536 114.777 12.968 114.521 13.4L110.513 19.4H120.329V21.152H108.233V19.712L115.553 8.408H117.977V26H115.913Z" fill="#1C1B1B"/>
<path d="M214.016 28.064H206.816V27.944C207.696 27.192 208.488 26.272 209.192 25.184C209.912 24.08 210.488 22.824 210.92 21.416C211.352 20.008 211.568 18.496 211.568 16.88C211.568 15.248 211.352 13.736 210.92 12.344C210.488 10.936 209.912 9.68 209.192 8.576C208.488 7.472 207.696 6.552 206.816 5.816V5.696H214.016V28.064Z" fill="#1C1B1B"/>
<path d="M81 14.336C81.48 14.336 81.912 14.448 82.296 14.672C82.68 14.896 82.984 15.2 83.208 15.584C83.432 15.968 83.544 16.4 83.544 16.88C83.544 17.344 83.432 17.776 83.208 18.176C82.984 18.56 82.68 18.864 82.296 19.088C81.912 19.312 81.48 19.424 81 19.424C80.536 19.424 80.104 19.312 79.704 19.088C79.32 18.864 79.016 18.56 78.792 18.176C78.568 17.776 78.456 17.344 78.456 16.88C78.456 16.4 78.568 15.968 78.792 15.584C79.016 15.2 79.32 14.896 79.704 14.672C80.104 14.448 80.536 14.336 81 14.336Z" fill="#1C1B1B"/>
<path d="M126.816 13.648H137.312V27.024H136.032V14.848H128.048V27.104H126.816V13.648ZM127.648 19.184H136.576V20.368H127.648V19.184ZM127.616 24.864H136.592V26.064H127.616V24.864Z" fill="black"/>
<path d="M150 14.336C150.48 14.336 150.912 14.448 151.296 14.672C151.68 14.896 151.984 15.2 152.208 15.584C152.432 15.968 152.544 16.4 152.544 16.88C152.544 17.344 152.432 17.776 152.208 18.176C151.984 18.56 151.68 18.864 151.296 19.088C150.912 19.312 150.48 19.424 150 19.424C149.536 19.424 149.104 19.312 148.704 19.088C148.32 18.864 148.016 18.56 147.792 18.176C147.568 17.776 147.456 17.344 147.456 16.88C147.456 16.4 147.568 15.968 147.792 15.584C148.016 15.2 148.32 14.896 148.704 14.672C149.104 14.448 149.536 14.336 150 14.336Z" fill="#1C1B1B"/>
</svg>
