<svg width="378" height="33" viewBox="0 0 378 33" fill="none" xmlns="http://www.w3.org/2000/svg">
<path d="M163.816 29V26.568H169.064V9.064H164.872V7.208C165.917 7.016 166.824 6.78133 167.592 6.504C168.381 6.22667 169.096 5.90667 169.736 5.544H171.976V26.568H176.68V29H163.816ZM182.078 29V27.272C184.531 25.1173 186.547 23.1547 188.126 21.384C189.726 19.6133 190.91 17.9707 191.678 16.456C192.446 14.92 192.83 13.48 192.83 12.136C192.83 11.24 192.67 10.44 192.35 9.736C192.051 9.032 191.582 8.488 190.942 8.104C190.302 7.69866 189.491 7.496 188.51 7.496C187.55 7.496 186.654 7.752 185.822 8.264C185.011 8.776 184.286 9.42667 183.646 10.216L181.95 8.552C182.889 7.50667 183.902 6.67467 184.99 6.056C186.078 5.43733 187.369 5.128 188.862 5.128C190.27 5.128 191.475 5.416 192.478 5.992C193.502 6.54667 194.291 7.34667 194.846 8.392C195.422 9.416 195.71 10.6213 195.71 12.008C195.71 13.5653 195.315 15.144 194.526 16.744C193.758 18.344 192.681 19.976 191.294 21.64C189.929 23.2827 188.329 24.968 186.494 26.696C187.113 26.6533 187.753 26.6107 188.414 26.568C189.097 26.504 189.737 26.472 190.334 26.472H196.83V29H182.078ZM204.788 16.52C204.212 16.52 203.711 16.3173 203.284 15.912C202.879 15.4853 202.676 14.9413 202.676 14.28C202.676 13.6187 202.879 13.0853 203.284 12.68C203.711 12.2533 204.212 12.04 204.788 12.04C205.364 12.04 205.855 12.2533 206.26 12.68C206.687 13.0853 206.9 13.6187 206.9 14.28C206.9 14.9413 206.687 15.4853 206.26 15.912C205.855 16.3173 205.364 16.52 204.788 16.52ZM204.788 29.416C204.212 29.416 203.711 29.2133 203.284 28.808C202.879 28.3813 202.676 27.848 202.676 27.208C202.676 26.5253 202.879 25.9813 203.284 25.576C203.711 25.1707 204.212 24.968 204.788 24.968C205.364 24.968 205.855 25.1707 206.26 25.576C206.687 25.9813 206.9 26.5253 206.9 27.208C206.9 27.848 206.687 28.3813 206.26 28.808C205.855 29.2133 205.364 29.416 204.788 29.416ZM212.574 29V27.272C215.028 25.1173 217.044 23.1547 218.622 21.384C220.222 19.6133 221.406 17.9707 222.174 16.456C222.942 14.92 223.326 13.48 223.326 12.136C223.326 11.24 223.166 10.44 222.846 9.736C222.548 9.032 222.078 8.488 221.438 8.104C220.798 7.69866 219.988 7.496 219.006 7.496C218.046 7.496 217.15 7.752 216.318 8.264C215.508 8.776 214.782 9.42667 214.142 10.216L212.446 8.552C213.385 7.50667 214.398 6.67467 215.486 6.056C216.574 5.43733 217.865 5.128 219.358 5.128C220.766 5.128 221.972 5.416 222.974 5.992C223.998 6.54667 224.788 7.34667 225.342 8.392C225.918 9.416 226.206 10.6213 226.206 12.008C226.206 13.5653 225.812 15.144 225.022 16.744C224.254 18.344 223.177 19.976 221.79 21.64C220.425 23.2827 218.825 24.968 216.99 26.696C217.609 26.6533 218.249 26.6107 218.91 26.568C219.593 26.504 220.233 26.472 220.83 26.472H227.326V29H212.574ZM239.732 29.416C238.26 29.416 236.97 28.968 235.86 28.072C234.772 27.176 233.93 25.8213 233.332 24.008C232.735 22.1947 232.436 19.9227 232.436 17.192C232.436 14.4613 232.735 12.2107 233.332 10.44C233.93 8.648 234.772 7.31467 235.86 6.44C236.97 5.56533 238.26 5.128 239.732 5.128C241.226 5.128 242.516 5.576 243.604 6.472C244.692 7.34667 245.535 8.66933 246.132 10.44C246.73 12.2107 247.028 14.4613 247.028 17.192C247.028 19.9227 246.73 22.1947 246.132 24.008C245.535 25.8213 244.692 27.176 243.604 28.072C242.516 28.968 241.226 29.416 239.732 29.416ZM239.732 27.048C240.628 27.048 241.407 26.7067 242.068 26.024C242.751 25.3413 243.274 24.2747 243.636 22.824C244.02 21.352 244.212 19.4747 244.212 17.192C244.212 14.9093 244.02 13.0533 243.636 11.624C243.274 10.1733 242.751 9.11733 242.068 8.456C241.407 7.77333 240.628 7.432 239.732 7.432C238.858 7.432 238.079 7.77333 237.396 8.456C236.714 9.11733 236.18 10.1733 235.796 11.624C235.434 13.0533 235.252 14.9093 235.252 17.192C235.252 19.4747 235.434 21.352 235.796 22.824C236.18 24.2747 236.714 25.3413 237.396 26.024C238.079 26.7067 238.858 27.048 239.732 27.048Z" fill="#1C1B1B"/>
<path d="M270.104 17.736C269.251 16.9253 268.419 16.2853 267.608 15.816C266.819 15.3467 265.837 15.112 264.664 15.112C263.405 15.112 262.243 15.5067 261.176 16.296C260.131 17.064 259.277 18.0773 258.616 19.336L256.344 18.12C257.347 16.2853 258.563 14.8987 259.992 13.96C261.443 13 263.011 12.52 264.696 12.52C266.147 12.52 267.427 12.8187 268.536 13.416C269.667 13.992 270.787 14.8347 271.896 15.944C272.749 16.7547 273.581 17.3947 274.392 17.864C275.203 18.3333 276.184 18.568 277.336 18.568C278.595 18.568 279.747 18.184 280.792 17.416C281.859 16.6267 282.723 15.6027 283.384 14.344L285.656 15.56C284.653 17.3947 283.427 18.792 281.976 19.752C280.547 20.6907 278.989 21.16 277.304 21.16C275.875 21.16 274.595 20.872 273.464 20.296C272.333 19.6987 271.213 18.8453 270.104 17.736Z" fill="#1C1B1B"/>
<path d="M292.816 29V26.568H298.064V9.064H293.872V7.208C294.917 7.016 295.824 6.78133 296.592 6.504C297.381 6.22667 298.096 5.90667 298.736 5.544H300.976V26.568H305.68V29H292.816ZM318.086 29.416C316.87 29.416 315.793 29.2667 314.854 28.968C313.937 28.6693 313.126 28.2747 312.422 27.784C311.718 27.2933 311.11 26.76 310.598 26.184L312.102 24.296C312.785 25 313.585 25.6293 314.502 26.184C315.441 26.7173 316.571 26.984 317.894 26.984C318.833 26.984 319.654 26.8133 320.358 26.472C321.083 26.1093 321.649 25.608 322.054 24.968C322.459 24.3067 322.662 23.528 322.662 22.632C322.662 21.6933 322.427 20.872 321.958 20.168C321.51 19.464 320.753 18.92 319.686 18.536C318.619 18.1307 317.179 17.928 315.366 17.928V15.688C316.987 15.688 318.267 15.496 319.206 15.112C320.145 14.7067 320.817 14.1627 321.222 13.48C321.649 12.7973 321.862 12.04 321.862 11.208C321.862 10.0773 321.51 9.18133 320.806 8.52C320.102 7.83733 319.131 7.496 317.894 7.496C316.955 7.496 316.07 7.70933 315.238 8.136C314.427 8.56267 313.691 9.10667 313.03 9.768L311.462 7.912C312.358 7.10133 313.329 6.44 314.374 5.928C315.441 5.39467 316.646 5.128 317.99 5.128C319.313 5.128 320.486 5.36267 321.51 5.832C322.555 6.28 323.366 6.94133 323.942 7.816C324.539 8.69066 324.838 9.74667 324.838 10.984C324.838 12.4133 324.454 13.5973 323.686 14.536C322.918 15.4747 321.915 16.168 320.678 16.616V16.776C321.595 16.9893 322.427 17.3627 323.174 17.896C323.921 18.4293 324.518 19.1013 324.966 19.912C325.414 20.7227 325.638 21.6613 325.638 22.728C325.638 24.1147 325.297 25.3093 324.614 26.312C323.931 27.3147 323.025 28.0827 321.894 28.616C320.763 29.1493 319.494 29.416 318.086 29.416ZM333.788 16.52C333.212 16.52 332.711 16.3173 332.284 15.912C331.879 15.4853 331.676 14.9413 331.676 14.28C331.676 13.6187 331.879 13.0853 332.284 12.68C332.711 12.2533 333.212 12.04 333.788 12.04C334.364 12.04 334.855 12.2533 335.26 12.68C335.687 13.0853 335.9 13.6187 335.9 14.28C335.9 14.9413 335.687 15.4853 335.26 15.912C334.855 16.3173 334.364 16.52 333.788 16.52ZM333.788 29.416C333.212 29.416 332.711 29.2133 332.284 28.808C331.879 28.3813 331.676 27.848 331.676 27.208C331.676 26.5253 331.879 25.9813 332.284 25.576C332.711 25.1707 333.212 24.968 333.788 24.968C334.364 24.968 334.855 25.1707 335.26 25.576C335.687 25.9813 335.9 26.5253 335.9 27.208C335.9 27.848 335.687 28.3813 335.26 28.808C334.855 29.2133 334.364 29.416 333.788 29.416ZM342.982 29V26.568H348.23V9.064H344.038V7.208C345.084 7.016 345.99 6.78133 346.758 6.504C347.548 6.22667 348.262 5.90667 348.902 5.544H351.142V26.568H355.846V29H342.982ZM368.732 29.416C367.26 29.416 365.97 28.968 364.86 28.072C363.772 27.176 362.93 25.8213 362.332 24.008C361.735 22.1947 361.436 19.9227 361.436 17.192C361.436 14.4613 361.735 12.2107 362.332 10.44C362.93 8.648 363.772 7.31467 364.86 6.44C365.97 5.56533 367.26 5.128 368.732 5.128C370.226 5.128 371.516 5.576 372.604 6.472C373.692 7.34667 374.535 8.66933 375.132 10.44C375.73 12.2107 376.028 14.4613 376.028 17.192C376.028 19.9227 375.73 22.1947 375.132 24.008C374.535 25.8213 373.692 27.176 372.604 28.072C371.516 28.968 370.226 29.416 368.732 29.416ZM368.732 27.048C369.628 27.048 370.407 26.7067 371.068 26.024C371.751 25.3413 372.274 24.2747 372.636 22.824C373.02 21.352 373.212 19.4747 373.212 17.192C373.212 14.9093 373.02 13.0533 372.636 11.624C372.274 10.1733 371.751 9.11733 371.068 8.456C370.407 7.77333 369.628 7.432 368.732 7.432C367.858 7.432 367.079 7.77333 366.396 8.456C365.714 9.11733 365.18 10.1733 364.796 11.624C364.434 13.0533 364.252 14.9093 364.252 17.192C364.252 19.4747 364.434 21.352 364.796 22.824C365.18 24.2747 365.714 25.3413 366.396 26.024C367.079 26.7067 367.858 27.048 368.732 27.048Z" fill="#1C1B1B"/>
</svg>
