<svg width="378" height="37" viewBox="0 0 378 37" fill="none" xmlns="http://www.w3.org/2000/svg">
<path d="M10.88 29V13C10.88 12.424 10.9013 11.72 10.944 10.888C10.9867 10.056 11.0187 9.34133 11.04 8.744H10.912C10.6133 9.29867 10.304 9.87466 9.984 10.472C9.68533 11.048 9.36533 11.624 9.024 12.2L3.68 20.2H16.768V22.536H0.64V20.616L10.4 5.544H13.632V29H10.88Z" fill="#1C1B1B"/>
<path d="M28.08 13.26H38.5V14.72H28.08V13.26ZM28.08 18.08H38.6V19.5H28.08V18.08ZM27.92 22.9H38.5V24.36H27.92V22.9ZM27.14 13.26H28.66V19.42C28.66 20.2867 28.6133 21.2133 28.52 22.2C28.44 23.1867 28.2667 24.1867 28 25.2C27.7333 26.2 27.3333 27.1667 26.8 28.1C26.28 29.0333 25.5867 29.8733 24.72 30.62C24.6533 30.5133 24.5467 30.3867 24.4 30.24C24.2667 30.0933 24.1267 29.9533 23.98 29.82C23.8333 29.7 23.7 29.6067 23.58 29.54C24.3933 28.82 25.0333 28.0467 25.5 27.22C25.98 26.38 26.3333 25.5133 26.56 24.62C26.8 23.7267 26.9533 22.84 27.02 21.96C27.1 21.0667 27.14 20.22 27.14 19.42V13.26ZM37.84 13.26H39.42V28.38C39.42 28.9133 39.34 29.32 39.18 29.6C39.02 29.88 38.7533 30.0867 38.38 30.22C37.9933 30.3533 37.4533 30.4333 36.76 30.46C36.0667 30.5 35.1867 30.52 34.12 30.52C34.0933 30.36 34.04 30.1867 33.96 30C33.8933 29.8133 33.8133 29.62 33.72 29.42C33.64 29.2333 33.56 29.0733 33.48 28.94C34.04 28.9533 34.5733 28.9667 35.08 28.98C35.6 28.98 36.0467 28.98 36.42 28.98C36.8067 28.9667 37.0733 28.96 37.22 28.96C37.46 28.9467 37.62 28.9 37.7 28.82C37.7933 28.7267 37.84 28.5733 37.84 28.36V13.26Z" fill="#1C1B1B"/>
<path d="M93.52 13.56H106.64V30.28H105.04V15.06H95.06V30.38H93.52V13.56ZM94.56 20.48H105.72V21.96H94.56V20.48ZM94.52 27.58H105.74V29.08H94.52V27.58Z" fill="#1C1B1B"/>
<path d="M119.78 30.92C118.86 29.4267 118.14 27.86 117.62 26.22C117.1 24.5667 116.84 22.7533 116.84 20.78C116.84 18.82 117.1 17.0133 117.62 15.36C118.14 13.7067 118.86 12.1333 119.78 10.64L120.9 11.16C120.047 12.5867 119.407 14.1267 118.98 15.78C118.567 17.42 118.36 19.0867 118.36 20.78C118.36 22.4867 118.567 24.1667 118.98 25.82C119.407 27.46 120.047 28.9933 120.9 30.42L119.78 30.92ZM126.978 14.26L128.478 14.58C128.358 15.3667 128.191 16.1533 127.978 16.94C127.764 17.7133 127.471 18.4333 127.098 19.1C126.738 19.7533 126.258 20.3067 125.658 20.76L124.358 19.88C124.904 19.48 125.351 18.98 125.698 18.38C126.044 17.78 126.318 17.1267 126.518 16.42C126.731 15.7133 126.884 14.9933 126.978 14.26ZM139.538 14.22L141.158 14.86C140.838 15.4867 140.484 16.14 140.098 16.82C139.724 17.5 139.344 18.16 138.958 18.8C138.584 19.4267 138.224 19.98 137.878 20.46L136.618 19.86C136.951 19.3667 137.298 18.7933 137.658 18.14C138.031 17.4867 138.378 16.82 138.698 16.14C139.031 15.4467 139.311 14.8067 139.538 14.22ZM132.878 10.48H133.678V16.96C133.678 17.3467 133.724 17.8133 133.818 18.36C133.911 18.8933 134.071 19.48 134.298 20.12C134.524 20.7467 134.838 21.3933 135.238 22.06C135.651 22.7133 136.164 23.36 136.778 24C137.391 24.64 138.131 25.24 138.998 25.8C139.864 26.3467 140.878 26.8267 142.038 27.24C141.931 27.3467 141.811 27.48 141.678 27.64C141.558 27.8133 141.438 27.9867 141.318 28.16C141.198 28.3333 141.098 28.4867 141.018 28.62C139.858 28.18 138.844 27.66 137.978 27.06C137.111 26.46 136.371 25.8267 135.758 25.16C135.144 24.4933 134.638 23.8267 134.238 23.16C133.838 22.4933 133.531 21.8733 133.318 21.3C133.104 20.7267 132.951 20.2533 132.858 19.88C132.778 20.2667 132.631 20.74 132.418 21.3C132.218 21.86 131.924 22.4667 131.538 23.12C131.164 23.7733 130.678 24.4333 130.078 25.1C129.491 25.7667 128.771 26.4 127.918 27C127.078 27.6133 126.091 28.1533 124.958 28.62C124.904 28.5133 124.811 28.38 124.678 28.22C124.558 28.0733 124.431 27.92 124.298 27.76C124.164 27.6 124.044 27.4667 123.938 27.36C125.284 26.8533 126.424 26.2467 127.358 25.54C128.304 24.82 129.084 24.0667 129.698 23.28C130.311 22.48 130.791 21.6867 131.138 20.9C131.484 20.1133 131.724 19.38 131.858 18.7C131.991 18.02 132.058 17.4467 132.058 16.98V10.48H132.878ZM146.138 30.92L144.998 30.42C145.864 28.9933 146.511 27.46 146.938 25.82C147.364 24.1667 147.578 22.4867 147.578 20.78C147.578 19.0867 147.364 17.42 146.938 15.78C146.511 14.1267 145.864 12.5867 144.998 11.16L146.138 10.64C147.071 12.1333 147.791 13.7067 148.298 15.36C148.818 17.0133 149.078 18.82 149.078 20.78C149.078 22.7533 148.818 24.5667 148.298 26.22C147.791 27.86 147.071 29.4267 146.138 30.92Z" fill="#1C1B1B"/>
<path d="M50.816 29V26.568H56.064V9.064H51.872V7.208C52.9173 7.016 53.824 6.78133 54.592 6.504C55.3813 6.22667 56.096 5.90667 56.736 5.544H58.976V26.568H63.68V29H50.816ZM78.55 29V13C78.55 12.424 78.5713 11.72 78.614 10.888C78.6567 10.056 78.6887 9.34133 78.71 8.744H78.582C78.2833 9.29867 77.974 9.87466 77.654 10.472C77.3553 11.048 77.0353 11.624 76.694 12.2L71.35 20.2H84.438V22.536H68.31V20.616L78.07 5.544H81.302V29H78.55Z" fill="#1C1B1B"/>
<path d="M163.816 29V26.568H169.064V9.064H164.872V7.208C165.917 7.016 166.824 6.78133 167.592 6.504C168.381 6.22667 169.096 5.90667 169.736 5.544H171.976V26.568H176.68V29H163.816ZM183.486 29V26.568H188.734V9.064H184.542V7.208C185.587 7.016 186.494 6.78133 187.262 6.504C188.051 6.22667 188.766 5.90667 189.406 5.544H191.646V26.568H196.35V29H183.486ZM204.788 16.52C204.212 16.52 203.711 16.3173 203.284 15.912C202.879 15.4853 202.676 14.9413 202.676 14.28C202.676 13.6187 202.879 13.0853 203.284 12.68C203.711 12.2533 204.212 12.04 204.788 12.04C205.364 12.04 205.855 12.2533 206.26 12.68C206.687 13.0853 206.9 13.6187 206.9 14.28C206.9 14.9413 206.687 15.4853 206.26 15.912C205.855 16.3173 205.364 16.52 204.788 16.52ZM204.788 29.416C204.212 29.416 203.711 29.2133 203.284 28.808C202.879 28.3813 202.676 27.848 202.676 27.208C202.676 26.5253 202.879 25.9813 203.284 25.576C203.711 25.1707 204.212 24.968 204.788 24.968C205.364 24.968 205.855 25.1707 206.26 25.576C206.687 25.9813 206.9 26.5253 206.9 27.208C206.9 27.848 206.687 28.3813 206.26 28.808C205.855 29.2133 205.364 29.416 204.788 29.416ZM220.062 29.416C218.59 29.416 217.3 28.968 216.19 28.072C215.102 27.176 214.26 25.8213 213.662 24.008C213.065 22.1947 212.766 19.9227 212.766 17.192C212.766 14.4613 213.065 12.2107 213.662 10.44C214.26 8.648 215.102 7.31467 216.19 6.44C217.3 5.56533 218.59 5.128 220.062 5.128C221.556 5.128 222.846 5.576 223.934 6.472C225.022 7.34667 225.865 8.66933 226.462 10.44C227.06 12.2107 227.358 14.4613 227.358 17.192C227.358 19.9227 227.06 22.1947 226.462 24.008C225.865 25.8213 225.022 27.176 223.934 28.072C222.846 28.968 221.556 29.416 220.062 29.416ZM220.062 27.048C220.958 27.048 221.737 26.7067 222.398 26.024C223.081 25.3413 223.604 24.2747 223.966 22.824C224.35 21.352 224.542 19.4747 224.542 17.192C224.542 14.9093 224.35 13.0533 223.966 11.624C223.604 10.1733 223.081 9.11733 222.398 8.456C221.737 7.77333 220.958 7.432 220.062 7.432C219.188 7.432 218.409 7.77333 217.726 8.456C217.044 9.11733 216.51 10.1733 216.126 11.624C215.764 13.0533 215.582 14.9093 215.582 17.192C215.582 19.4747 215.764 21.352 216.126 22.824C216.51 24.2747 217.044 25.3413 217.726 26.024C218.409 26.7067 219.188 27.048 220.062 27.048ZM239.732 29.416C238.26 29.416 236.97 28.968 235.86 28.072C234.772 27.176 233.93 25.8213 233.332 24.008C232.735 22.1947 232.436 19.9227 232.436 17.192C232.436 14.4613 232.735 12.2107 233.332 10.44C233.93 8.648 234.772 7.31467 235.86 6.44C236.97 5.56533 238.26 5.128 239.732 5.128C241.226 5.128 242.516 5.576 243.604 6.472C244.692 7.34667 245.535 8.66933 246.132 10.44C246.73 12.2107 247.028 14.4613 247.028 17.192C247.028 19.9227 246.73 22.1947 246.132 24.008C245.535 25.8213 244.692 27.176 243.604 28.072C242.516 28.968 241.226 29.416 239.732 29.416ZM239.732 27.048C240.628 27.048 241.407 26.7067 242.068 26.024C242.751 25.3413 243.274 24.2747 243.636 22.824C244.02 21.352 244.212 19.4747 244.212 17.192C244.212 14.9093 244.02 13.0533 243.636 11.624C243.274 10.1733 242.751 9.11733 242.068 8.456C241.407 7.77333 240.628 7.432 239.732 7.432C238.858 7.432 238.079 7.77333 237.396 8.456C236.714 9.11733 236.18 10.1733 235.796 11.624C235.434 13.0533 235.252 14.9093 235.252 17.192C235.252 19.4747 235.434 21.352 235.796 22.824C236.18 24.2747 236.714 25.3413 237.396 26.024C238.079 26.7067 238.858 27.048 239.732 27.048Z" fill="#1C1B1B"/>
<path d="M268.104 17.736C267.251 16.9253 266.419 16.2853 265.608 15.816C264.819 15.3467 263.837 15.112 262.664 15.112C261.405 15.112 260.243 15.5067 259.176 16.296C258.131 17.064 257.277 18.0773 256.616 19.336L254.344 18.12C255.347 16.2853 256.563 14.8987 257.992 13.96C259.443 13 261.011 12.52 262.696 12.52C264.147 12.52 265.427 12.8187 266.536 13.416C267.667 13.992 268.787 14.8347 269.896 15.944C270.749 16.7547 271.581 17.3947 272.392 17.864C273.203 18.3333 274.184 18.568 275.336 18.568C276.595 18.568 277.747 18.184 278.792 17.416C279.859 16.6267 280.723 15.6027 281.384 14.344L283.656 15.56C282.653 17.3947 281.427 18.792 279.976 19.752C278.547 20.6907 276.989 21.16 275.304 21.16C273.875 21.16 272.595 20.872 271.464 20.296C270.333 19.6987 269.213 18.8453 268.104 17.736Z" fill="#1C1B1B"/>
<path d="M292.816 29V26.568H298.064V9.064H293.872V7.208C294.917 7.016 295.824 6.78133 296.592 6.504C297.381 6.22667 298.096 5.90667 298.736 5.544H300.976V26.568H305.68V29H292.816ZM311.078 29V27.272C313.531 25.1173 315.547 23.1547 317.126 21.384C318.726 19.6133 319.91 17.9707 320.678 16.456C321.446 14.92 321.83 13.48 321.83 12.136C321.83 11.24 321.67 10.44 321.35 9.736C321.051 9.032 320.582 8.488 319.942 8.104C319.302 7.69866 318.491 7.496 317.51 7.496C316.55 7.496 315.654 7.752 314.822 8.264C314.011 8.776 313.286 9.42667 312.646 10.216L310.95 8.552C311.889 7.50667 312.902 6.67467 313.99 6.056C315.078 5.43733 316.369 5.128 317.862 5.128C319.27 5.128 320.475 5.416 321.478 5.992C322.502 6.54667 323.291 7.34667 323.846 8.392C324.422 9.416 324.71 10.6213 324.71 12.008C324.71 13.5653 324.315 15.144 323.526 16.744C322.758 18.344 321.681 19.976 320.294 21.64C318.929 23.2827 317.329 24.968 315.494 26.696C316.113 26.6533 316.753 26.6107 317.414 26.568C318.097 26.504 318.737 26.472 319.334 26.472H325.83V29H311.078ZM333.788 16.52C333.212 16.52 332.711 16.3173 332.284 15.912C331.879 15.4853 331.676 14.9413 331.676 14.28C331.676 13.6187 331.879 13.0853 332.284 12.68C332.711 12.2533 333.212 12.04 333.788 12.04C334.364 12.04 334.855 12.2533 335.26 12.68C335.687 13.0853 335.9 13.6187 335.9 14.28C335.9 14.9413 335.687 15.4853 335.26 15.912C334.855 16.3173 334.364 16.52 333.788 16.52ZM333.788 29.416C333.212 29.416 332.711 29.2133 332.284 28.808C331.879 28.3813 331.676 27.848 331.676 27.208C331.676 26.5253 331.879 25.9813 332.284 25.576C332.711 25.1707 333.212 24.968 333.788 24.968C334.364 24.968 334.855 25.1707 335.26 25.576C335.687 25.9813 335.9 26.5253 335.9 27.208C335.9 27.848 335.687 28.3813 335.26 28.808C334.855 29.2133 334.364 29.416 333.788 29.416ZM349.062 29.416C347.59 29.416 346.3 28.968 345.19 28.072C344.102 27.176 343.26 25.8213 342.662 24.008C342.065 22.1947 341.766 19.9227 341.766 17.192C341.766 14.4613 342.065 12.2107 342.662 10.44C343.26 8.648 344.102 7.31467 345.19 6.44C346.3 5.56533 347.59 5.128 349.062 5.128C350.556 5.128 351.846 5.576 352.934 6.472C354.022 7.34667 354.865 8.66933 355.462 10.44C356.06 12.2107 356.358 14.4613 356.358 17.192C356.358 19.9227 356.06 22.1947 355.462 24.008C354.865 25.8213 354.022 27.176 352.934 28.072C351.846 28.968 350.556 29.416 349.062 29.416ZM349.062 27.048C349.958 27.048 350.737 26.7067 351.398 26.024C352.081 25.3413 352.604 24.2747 352.966 22.824C353.35 21.352 353.542 19.4747 353.542 17.192C353.542 14.9093 353.35 13.0533 352.966 11.624C352.604 10.1733 352.081 9.11733 351.398 8.456C350.737 7.77333 349.958 7.432 349.062 7.432C348.188 7.432 347.409 7.77333 346.726 8.456C346.044 9.11733 345.51 10.1733 345.126 11.624C344.764 13.0533 344.582 14.9093 344.582 17.192C344.582 19.4747 344.764 21.352 345.126 22.824C345.51 24.2747 346.044 25.3413 346.726 26.024C347.409 26.7067 348.188 27.048 349.062 27.048ZM368.732 29.416C367.26 29.416 365.97 28.968 364.86 28.072C363.772 27.176 362.93 25.8213 362.332 24.008C361.735 22.1947 361.436 19.9227 361.436 17.192C361.436 14.4613 361.735 12.2107 362.332 10.44C362.93 8.648 363.772 7.31467 364.86 6.44C365.97 5.56533 367.26 5.128 368.732 5.128C370.226 5.128 371.516 5.576 372.604 6.472C373.692 7.34667 374.535 8.66933 375.132 10.44C375.73 12.2107 376.028 14.4613 376.028 17.192C376.028 19.9227 375.73 22.1947 375.132 24.008C374.535 25.8213 373.692 27.176 372.604 28.072C371.516 28.968 370.226 29.416 368.732 29.416ZM368.732 27.048C369.628 27.048 370.407 26.7067 371.068 26.024C371.751 25.3413 372.274 24.2747 372.636 22.824C373.02 21.352 373.212 19.4747 373.212 17.192C373.212 14.9093 373.02 13.0533 372.636 11.624C372.274 10.1733 371.751 9.11733 371.068 8.456C370.407 7.77333 369.628 7.432 368.732 7.432C367.858 7.432 367.079 7.77333 366.396 8.456C365.714 9.11733 365.18 10.1733 364.796 11.624C364.434 13.0533 364.252 14.9093 364.252 17.192C364.252 19.4747 364.434 21.352 364.796 22.824C365.18 24.2747 365.714 25.3413 366.396 26.024C367.079 26.7067 367.858 27.048 368.732 27.048Z" fill="#1C1B1B"/>
</svg>
