<svg width="95" height="36" viewBox="0 0 95 36" fill="none" xmlns="http://www.w3.org/2000/svg">
<path d="M23.184 5.816C22.32 6.552 21.528 7.472 20.808 8.576C20.088 9.68 19.512 10.936 19.08 12.344C18.648 13.736 18.432 15.248 18.432 16.88C18.432 18.496 18.648 20.008 19.08 21.416C19.512 22.824 20.088 24.08 20.808 25.184C21.528 26.272 22.32 27.192 23.184 27.944V28.064H15.984V5.696H23.184V5.816ZM27.552 26V24.176H31.488V11.048H28.344V9.656C29.128 9.512 29.808 9.336 30.384 9.128C30.976 8.92 31.512 8.68 31.992 8.408H33.672V24.176H37.2V26H27.552ZM48.3525 26V14C48.3525 13.568 48.3685 13.04 48.4005 12.416C48.4325 11.792 48.4565 11.256 48.4725 10.808H48.3765C48.1525 11.224 47.9205 11.656 47.6805 12.104C47.4565 12.536 47.2165 12.968 46.9605 13.4L42.9525 19.4H52.7685V21.152H40.6725V19.712L47.9925 8.408H50.4165V26H48.3525Z" fill="#1C1B1B"/>
<path d="M57.816 13.648H68.312V27.024H67.032V14.848H59.048V27.104H57.816V13.648ZM58.648 19.184H67.576V20.368H58.648V19.184ZM58.616 24.864H67.592V26.064H58.616V24.864Z" fill="black"/>
<path d="M79.016 28.064H71.816V27.944C72.696 27.192 73.488 26.272 74.192 25.184C74.912 24.08 75.488 22.824 75.92 21.416C76.352 20.008 76.568 18.496 76.568 16.88C76.568 15.248 76.352 13.736 75.92 12.344C75.488 10.936 74.912 9.68 74.192 8.576C73.488 7.472 72.696 6.552 71.816 5.816V5.696H79.016V28.064Z" fill="#1C1B1B"/>
</svg>
