<svg width="378" height="33" viewBox="0 0 378 33" fill="none" xmlns="http://www.w3.org/2000/svg">
<path d="M163.816 29V26.568H169.064V9.064H164.872V7.208C165.917 7.016 166.824 6.78133 167.592 6.504C168.381 6.22667 169.096 5.90667 169.736 5.544H171.976V26.568H176.68V29H163.816ZM189.086 29.416C187.87 29.416 186.793 29.2667 185.854 28.968C184.937 28.6693 184.126 28.2747 183.422 27.784C182.718 27.2933 182.11 26.76 181.598 26.184L183.102 24.296C183.785 25 184.585 25.6293 185.502 26.184C186.441 26.7173 187.571 26.984 188.894 26.984C189.833 26.984 190.654 26.8133 191.358 26.472C192.083 26.1093 192.649 25.608 193.054 24.968C193.459 24.3067 193.662 23.528 193.662 22.632C193.662 21.6933 193.427 20.872 192.958 20.168C192.51 19.464 191.753 18.92 190.686 18.536C189.619 18.1307 188.179 17.928 186.366 17.928V15.688C187.987 15.688 189.267 15.496 190.206 15.112C191.145 14.7067 191.817 14.1627 192.222 13.48C192.649 12.7973 192.862 12.04 192.862 11.208C192.862 10.0773 192.51 9.18133 191.806 8.52C191.102 7.83733 190.131 7.496 188.894 7.496C187.955 7.496 187.07 7.70933 186.238 8.136C185.427 8.56267 184.691 9.10667 184.03 9.768L182.462 7.912C183.358 7.10133 184.329 6.44 185.374 5.928C186.441 5.39467 187.646 5.128 188.99 5.128C190.313 5.128 191.486 5.36267 192.51 5.832C193.555 6.28 194.366 6.94133 194.942 7.816C195.539 8.69066 195.838 9.74667 195.838 10.984C195.838 12.4133 195.454 13.5973 194.686 14.536C193.918 15.4747 192.915 16.168 191.678 16.616V16.776C192.595 16.9893 193.427 17.3627 194.174 17.896C194.921 18.4293 195.518 19.1013 195.966 19.912C196.414 20.7227 196.638 21.6613 196.638 22.728C196.638 24.1147 196.297 25.3093 195.614 26.312C194.931 27.3147 194.025 28.0827 192.894 28.616C191.763 29.1493 190.494 29.416 189.086 29.416ZM204.788 16.52C204.212 16.52 203.711 16.3173 203.284 15.912C202.879 15.4853 202.676 14.9413 202.676 14.28C202.676 13.6187 202.879 13.0853 203.284 12.68C203.711 12.2533 204.212 12.04 204.788 12.04C205.364 12.04 205.855 12.2533 206.26 12.68C206.687 13.0853 206.9 13.6187 206.9 14.28C206.9 14.9413 206.687 15.4853 206.26 15.912C205.855 16.3173 205.364 16.52 204.788 16.52ZM204.788 29.416C204.212 29.416 203.711 29.2133 203.284 28.808C202.879 28.3813 202.676 27.848 202.676 27.208C202.676 26.5253 202.879 25.9813 203.284 25.576C203.711 25.1707 204.212 24.968 204.788 24.968C205.364 24.968 205.855 25.1707 206.26 25.576C206.687 25.9813 206.9 26.5253 206.9 27.208C206.9 27.848 206.687 28.3813 206.26 28.808C205.855 29.2133 205.364 29.416 204.788 29.416ZM219.582 29.416C218.366 29.416 217.289 29.2667 216.35 28.968C215.433 28.6693 214.622 28.2747 213.918 27.784C213.214 27.2933 212.606 26.76 212.094 26.184L213.598 24.296C214.281 25 215.081 25.6293 215.998 26.184C216.937 26.7173 218.068 26.984 219.39 26.984C220.329 26.984 221.15 26.8133 221.854 26.472C222.58 26.1093 223.145 25.608 223.55 24.968C223.956 24.3067 224.158 23.528 224.158 22.632C224.158 21.6933 223.924 20.872 223.454 20.168C223.006 19.464 222.249 18.92 221.182 18.536C220.116 18.1307 218.676 17.928 216.862 17.928V15.688C218.484 15.688 219.764 15.496 220.702 15.112C221.641 14.7067 222.313 14.1627 222.718 13.48C223.145 12.7973 223.358 12.04 223.358 11.208C223.358 10.0773 223.006 9.18133 222.302 8.52C221.598 7.83733 220.628 7.496 219.39 7.496C218.452 7.496 217.566 7.70933 216.734 8.136C215.924 8.56267 215.188 9.10667 214.526 9.768L212.958 7.912C213.854 7.10133 214.825 6.44 215.87 5.928C216.937 5.39467 218.142 5.128 219.486 5.128C220.809 5.128 221.982 5.36267 223.006 5.832C224.052 6.28 224.862 6.94133 225.438 7.816C226.036 8.69066 226.334 9.74667 226.334 10.984C226.334 12.4133 225.95 13.5973 225.182 14.536C224.414 15.4747 223.412 16.168 222.174 16.616V16.776C223.092 16.9893 223.924 17.3627 224.67 17.896C225.417 18.4293 226.014 19.1013 226.462 19.912C226.91 20.7227 227.134 21.6613 227.134 22.728C227.134 24.1147 226.793 25.3093 226.11 26.312C225.428 27.3147 224.521 28.0827 223.39 28.616C222.26 29.1493 220.99 29.416 219.582 29.416ZM239.732 29.416C238.26 29.416 236.97 28.968 235.86 28.072C234.772 27.176 233.93 25.8213 233.332 24.008C232.735 22.1947 232.436 19.9227 232.436 17.192C232.436 14.4613 232.735 12.2107 233.332 10.44C233.93 8.648 234.772 7.31467 235.86 6.44C236.97 5.56533 238.26 5.128 239.732 5.128C241.226 5.128 242.516 5.576 243.604 6.472C244.692 7.34667 245.535 8.66933 246.132 10.44C246.73 12.2107 247.028 14.4613 247.028 17.192C247.028 19.9227 246.73 22.1947 246.132 24.008C245.535 25.8213 244.692 27.176 243.604 28.072C242.516 28.968 241.226 29.416 239.732 29.416ZM239.732 27.048C240.628 27.048 241.407 26.7067 242.068 26.024C242.751 25.3413 243.274 24.2747 243.636 22.824C244.02 21.352 244.212 19.4747 244.212 17.192C244.212 14.9093 244.02 13.0533 243.636 11.624C243.274 10.1733 242.751 9.11733 242.068 8.456C241.407 7.77333 240.628 7.432 239.732 7.432C238.858 7.432 238.079 7.77333 237.396 8.456C236.714 9.11733 236.18 10.1733 235.796 11.624C235.434 13.0533 235.252 14.9093 235.252 17.192C235.252 19.4747 235.434 21.352 235.796 22.824C236.18 24.2747 236.714 25.3413 237.396 26.024C238.079 26.7067 238.858 27.048 239.732 27.048Z" fill="#1C1B1B"/>
<path d="M270.104 17.736C269.251 16.9253 268.419 16.2853 267.608 15.816C266.819 15.3467 265.837 15.112 264.664 15.112C263.405 15.112 262.243 15.5067 261.176 16.296C260.131 17.064 259.277 18.0773 258.616 19.336L256.344 18.12C257.347 16.2853 258.563 14.8987 259.992 13.96C261.443 13 263.011 12.52 264.696 12.52C266.147 12.52 267.427 12.8187 268.536 13.416C269.667 13.992 270.787 14.8347 271.896 15.944C272.749 16.7547 273.581 17.3947 274.392 17.864C275.203 18.3333 276.184 18.568 277.336 18.568C278.595 18.568 279.747 18.184 280.792 17.416C281.859 16.6267 282.723 15.6027 283.384 14.344L285.656 15.56C284.653 17.3947 283.427 18.792 281.976 19.752C280.547 20.6907 278.989 21.16 277.304 21.16C275.875 21.16 274.595 20.872 273.464 20.296C272.333 19.6987 271.213 18.8453 270.104 17.736Z" fill="#1C1B1B"/>
<path d="M292.816 29V26.568H298.064V9.064H293.872V7.208C294.917 7.016 295.824 6.78133 296.592 6.504C297.381 6.22667 298.096 5.90667 298.736 5.544H300.976V26.568H305.68V29H292.816ZM320.55 29V13C320.55 12.424 320.571 11.72 320.614 10.888C320.657 10.056 320.689 9.34133 320.71 8.744H320.582C320.283 9.29867 319.974 9.87466 319.654 10.472C319.355 11.048 319.035 11.624 318.694 12.2L313.35 20.2H326.438V22.536H310.31V20.616L320.07 5.544H323.302V29H320.55ZM333.788 16.52C333.212 16.52 332.711 16.3173 332.284 15.912C331.879 15.4853 331.676 14.9413 331.676 14.28C331.676 13.6187 331.879 13.0853 332.284 12.68C332.711 12.2533 333.212 12.04 333.788 12.04C334.364 12.04 334.855 12.2533 335.26 12.68C335.687 13.0853 335.9 13.6187 335.9 14.28C335.9 14.9413 335.687 15.4853 335.26 15.912C334.855 16.3173 334.364 16.52 333.788 16.52ZM333.788 29.416C333.212 29.416 332.711 29.2133 332.284 28.808C331.879 28.3813 331.676 27.848 331.676 27.208C331.676 26.5253 331.879 25.9813 332.284 25.576C332.711 25.1707 333.212 24.968 333.788 24.968C334.364 24.968 334.855 25.1707 335.26 25.576C335.687 25.9813 335.9 26.5253 335.9 27.208C335.9 27.848 335.687 28.3813 335.26 28.808C334.855 29.2133 334.364 29.416 333.788 29.416ZM348.582 29.416C347.366 29.416 346.289 29.2667 345.35 28.968C344.433 28.6693 343.622 28.2747 342.918 27.784C342.214 27.2933 341.606 26.76 341.094 26.184L342.598 24.296C343.281 25 344.081 25.6293 344.998 26.184C345.937 26.7173 347.068 26.984 348.39 26.984C349.329 26.984 350.15 26.8133 350.854 26.472C351.58 26.1093 352.145 25.608 352.55 24.968C352.956 24.3067 353.158 23.528 353.158 22.632C353.158 21.6933 352.924 20.872 352.454 20.168C352.006 19.464 351.249 18.92 350.182 18.536C349.116 18.1307 347.676 17.928 345.862 17.928V15.688C347.484 15.688 348.764 15.496 349.702 15.112C350.641 14.7067 351.313 14.1627 351.718 13.48C352.145 12.7973 352.358 12.04 352.358 11.208C352.358 10.0773 352.006 9.18133 351.302 8.52C350.598 7.83733 349.628 7.496 348.39 7.496C347.452 7.496 346.566 7.70933 345.734 8.136C344.924 8.56267 344.188 9.10667 343.526 9.768L341.958 7.912C342.854 7.10133 343.825 6.44 344.87 5.928C345.937 5.39467 347.142 5.128 348.486 5.128C349.809 5.128 350.982 5.36267 352.006 5.832C353.052 6.28 353.862 6.94133 354.438 7.816C355.036 8.69066 355.334 9.74667 355.334 10.984C355.334 12.4133 354.95 13.5973 354.182 14.536C353.414 15.4747 352.412 16.168 351.174 16.616V16.776C352.092 16.9893 352.924 17.3627 353.67 17.896C354.417 18.4293 355.014 19.1013 355.462 19.912C355.91 20.7227 356.134 21.6613 356.134 22.728C356.134 24.1147 355.793 25.3093 355.11 26.312C354.428 27.3147 353.521 28.0827 352.39 28.616C351.26 29.1493 349.99 29.416 348.582 29.416ZM368.732 29.416C367.26 29.416 365.97 28.968 364.86 28.072C363.772 27.176 362.93 25.8213 362.332 24.008C361.735 22.1947 361.436 19.9227 361.436 17.192C361.436 14.4613 361.735 12.2107 362.332 10.44C362.93 8.648 363.772 7.31467 364.86 6.44C365.97 5.56533 367.26 5.128 368.732 5.128C370.226 5.128 371.516 5.576 372.604 6.472C373.692 7.34667 374.535 8.66933 375.132 10.44C375.73 12.2107 376.028 14.4613 376.028 17.192C376.028 19.9227 375.73 22.1947 375.132 24.008C374.535 25.8213 373.692 27.176 372.604 28.072C371.516 28.968 370.226 29.416 368.732 29.416ZM368.732 27.048C369.628 27.048 370.407 26.7067 371.068 26.024C371.751 25.3413 372.274 24.2747 372.636 22.824C373.02 21.352 373.212 19.4747 373.212 17.192C373.212 14.9093 373.02 13.0533 372.636 11.624C372.274 10.1733 371.751 9.11733 371.068 8.456C370.407 7.77333 369.628 7.432 368.732 7.432C367.858 7.432 367.079 7.77333 366.396 8.456C365.714 9.11733 365.18 10.1733 364.796 11.624C364.434 13.0533 364.252 14.9093 364.252 17.192C364.252 19.4747 364.434 21.352 364.796 22.824C365.18 24.2747 365.714 25.3413 366.396 26.024C367.079 26.7067 367.858 27.048 368.732 27.048Z" fill="#1C1B1B"/>
</svg>
