<svg width="147" height="36" viewBox="0 0 147 36" fill="none" xmlns="http://www.w3.org/2000/svg">
<path d="M23.184 5.816C22.32 6.552 21.528 7.472 20.808 8.576C20.088 9.68 19.512 10.936 19.08 12.344C18.648 13.736 18.432 15.248 18.432 16.88C18.432 18.496 18.648 20.008 19.08 21.416C19.512 22.824 20.088 24.08 20.808 25.184C21.528 26.272 22.32 27.192 23.184 27.944V28.064H15.984V5.696H23.184V5.816ZM31.728 26.312C30.816 26.312 30.008 26.2 29.304 25.976C28.616 25.752 28.008 25.464 27.48 25.112C26.968 24.76 26.504 24.384 26.088 23.984L27.192 22.544C27.528 22.88 27.896 23.2 28.296 23.504C28.712 23.792 29.184 24.032 29.712 24.224C30.24 24.4 30.84 24.488 31.512 24.488C32.2 24.488 32.824 24.32 33.384 23.984C33.96 23.648 34.416 23.168 34.752 22.544C35.088 21.92 35.256 21.184 35.256 20.336C35.256 19.088 34.92 18.112 34.248 17.408C33.592 16.688 32.712 16.328 31.608 16.328C31.032 16.328 30.528 16.416 30.096 16.592C29.664 16.768 29.192 17.024 28.68 17.36L27.504 16.616L28.08 8.408H36.624V10.28H30L29.544 15.368C29.928 15.144 30.328 14.976 30.744 14.864C31.176 14.736 31.656 14.672 32.184 14.672C33.16 14.672 34.048 14.872 34.848 15.272C35.648 15.656 36.288 16.264 36.768 17.096C37.248 17.928 37.488 18.992 37.488 20.288C37.488 21.568 37.208 22.656 36.648 23.552C36.104 24.448 35.392 25.136 34.512 25.616C33.632 26.08 32.704 26.312 31.728 26.312Z" fill="#1C1B1B"/>
<path d="M43.816 13.648H54.312V27.024H53.032V14.848H45.048V27.104H43.816V13.648ZM44.648 19.184H53.576V20.368H44.648V19.184ZM44.616 24.864H53.592V26.064H44.616V24.864Z" fill="black"/>
<path d="M109.816 13.648H120.312V27.024H119.032V14.848H111.048V27.104H109.816V13.648ZM110.648 19.184H119.576V20.368H110.648V19.184ZM110.616 24.864H119.592V26.064H110.616V24.864Z" fill="black"/>
<path d="M77.056 26V24.704C78.896 23.088 80.408 21.616 81.592 20.288C82.792 18.96 83.68 17.728 84.256 16.592C84.832 15.44 85.12 14.36 85.12 13.352C85.12 12.68 85 12.08 84.76 11.552C84.536 11.024 84.184 10.616 83.704 10.328C83.224 10.024 82.616 9.872 81.88 9.872C81.16 9.872 80.488 10.064 79.864 10.448C79.256 10.832 78.712 11.32 78.232 11.912L76.96 10.664C77.664 9.88 78.424 9.256 79.24 8.792C80.056 8.328 81.024 8.096 82.144 8.096C83.2 8.096 84.104 8.312 84.856 8.744C85.624 9.16 86.216 9.76 86.632 10.544C87.064 11.312 87.28 12.216 87.28 13.256C87.28 14.424 86.984 15.608 86.392 16.808C85.816 18.008 85.008 19.232 83.968 20.48C82.944 21.712 81.744 22.976 80.368 24.272C80.832 24.24 81.312 24.208 81.808 24.176C82.32 24.128 82.8 24.104 83.248 24.104H88.12V26H77.056ZM97.4245 26.312C96.3205 26.312 95.3525 25.976 94.5205 25.304C93.7045 24.632 93.0725 23.616 92.6245 22.256C92.1765 20.896 91.9525 19.192 91.9525 17.144C91.9525 15.096 92.1765 13.408 92.6245 12.08C93.0725 10.736 93.7045 9.736 94.5205 9.08C95.3525 8.424 96.3205 8.096 97.4245 8.096C98.5445 8.096 99.5125 8.432 100.329 9.104C101.145 9.76 101.777 10.752 102.225 12.08C102.673 13.408 102.897 15.096 102.897 17.144C102.897 19.192 102.673 20.896 102.225 22.256C101.777 23.616 101.145 24.632 100.329 25.304C99.5125 25.976 98.5445 26.312 97.4245 26.312ZM97.4245 24.536C98.0965 24.536 98.6805 24.28 99.1765 23.768C99.6885 23.256 100.081 22.456 100.353 21.368C100.641 20.264 100.785 18.856 100.785 17.144C100.785 15.432 100.641 14.04 100.353 12.968C100.081 11.88 99.6885 11.088 99.1765 10.592C98.6805 10.08 98.0965 9.824 97.4245 9.824C96.7685 9.824 96.1845 10.08 95.6725 10.592C95.1605 11.088 94.7605 11.88 94.4725 12.968C94.2005 14.04 94.0645 15.432 94.0645 17.144C94.0645 18.856 94.2005 20.264 94.4725 21.368C94.7605 22.456 95.1605 23.256 95.6725 23.768C96.1845 24.28 96.7685 24.536 97.4245 24.536Z" fill="#1C1B1B"/>
<path d="M131.016 28.064H123.816V27.944C124.696 27.192 125.488 26.272 126.192 25.184C126.912 24.08 127.488 22.824 127.92 21.416C128.352 20.008 128.568 18.496 128.568 16.88C128.568 15.248 128.352 13.736 127.92 12.344C127.488 10.936 126.912 9.68 126.192 8.576C125.488 7.472 124.696 6.552 123.816 5.816V5.696H131.016V28.064Z" fill="#1C1B1B"/>
<path d="M66 14.336C66.48 14.336 66.912 14.448 67.296 14.672C67.68 14.896 67.984 15.2 68.208 15.584C68.432 15.968 68.544 16.4 68.544 16.88C68.544 17.344 68.432 17.776 68.208 18.176C67.984 18.56 67.68 18.864 67.296 19.088C66.912 19.312 66.48 19.424 66 19.424C65.536 19.424 65.104 19.312 64.704 19.088C64.32 18.864 64.016 18.56 63.792 18.176C63.568 17.776 63.456 17.344 63.456 16.88C63.456 16.4 63.568 15.968 63.792 15.584C64.016 15.2 64.32 14.896 64.704 14.672C65.104 14.448 65.536 14.336 66 14.336Z" fill="#1C1B1B"/>
</svg>
