<svg width="265" height="36" viewBox="0 0 265 36" fill="none" xmlns="http://www.w3.org/2000/svg">
<path d="M83.64 26.312C82.68 26.312 81.848 26.144 81.144 25.808C80.456 25.456 79.872 25.024 79.392 24.512L80.592 23.144C80.976 23.56 81.424 23.888 81.936 24.128C82.464 24.368 83.008 24.488 83.568 24.488C84.16 24.488 84.72 24.352 85.248 24.08C85.776 23.808 86.24 23.36 86.64 22.736C87.056 22.096 87.376 21.264 87.6 20.24C87.84 19.216 87.96 17.952 87.96 16.448C87.96 15.008 87.808 13.792 87.504 12.8C87.216 11.808 86.784 11.064 86.208 10.568C85.632 10.056 84.936 9.8 84.12 9.8C83.56 9.8 83.056 9.968 82.608 10.304C82.16 10.64 81.8 11.104 81.528 11.696C81.256 12.288 81.12 12.992 81.12 13.808C81.12 14.592 81.232 15.28 81.456 15.872C81.696 16.448 82.048 16.896 82.512 17.216C82.992 17.536 83.576 17.696 84.264 17.696C84.856 17.696 85.472 17.512 86.112 17.144C86.768 16.76 87.392 16.136 87.984 15.272L88.08 17.024C87.728 17.472 87.32 17.872 86.856 18.224C86.408 18.576 85.928 18.848 85.416 19.04C84.92 19.232 84.416 19.328 83.904 19.328C82.928 19.328 82.072 19.12 81.336 18.704C80.616 18.288 80.056 17.672 79.656 16.856C79.256 16.024 79.056 15.008 79.056 13.808C79.056 12.656 79.288 11.656 79.752 10.808C80.216 9.944 80.824 9.28 81.576 8.816C82.344 8.336 83.184 8.096 84.096 8.096C84.944 8.096 85.728 8.272 86.448 8.624C87.168 8.96 87.792 9.48 88.32 10.184C88.848 10.872 89.264 11.736 89.568 12.776C89.872 13.816 90.024 15.04 90.024 16.448C90.024 18.224 89.848 19.744 89.496 21.008C89.144 22.256 88.664 23.272 88.056 24.056C87.448 24.84 86.76 25.416 85.992 25.784C85.24 26.136 84.456 26.312 83.64 26.312Z" fill="#1C1B1B"/>
<path d="M96.816 13.648H107.312V27.024H106.032V14.848H98.048V27.104H96.816V13.648ZM97.648 19.184H106.576V20.368H97.648V19.184ZM97.616 24.864H106.592V26.064H97.616V24.864Z" fill="black"/>
<path d="M23.184 5.816C22.32 6.552 21.528 7.472 20.808 8.576C20.088 9.68 19.512 10.936 19.08 12.344C18.648 13.736 18.432 15.248 18.432 16.88C18.432 18.496 18.648 20.008 19.08 21.416C19.512 22.824 20.088 24.08 20.808 25.184C21.528 26.272 22.32 27.192 23.184 27.944V28.064H15.984V5.696H23.184V5.816ZM31.728 26.312C30.816 26.312 30.008 26.2 29.304 25.976C28.616 25.752 28.008 25.464 27.48 25.112C26.968 24.76 26.504 24.384 26.088 23.984L27.192 22.544C27.528 22.88 27.896 23.2 28.296 23.504C28.712 23.792 29.184 24.032 29.712 24.224C30.24 24.4 30.84 24.488 31.512 24.488C32.2 24.488 32.824 24.32 33.384 23.984C33.96 23.648 34.416 23.168 34.752 22.544C35.088 21.92 35.256 21.184 35.256 20.336C35.256 19.088 34.92 18.112 34.248 17.408C33.592 16.688 32.712 16.328 31.608 16.328C31.032 16.328 30.528 16.416 30.096 16.592C29.664 16.768 29.192 17.024 28.68 17.36L27.504 16.616L28.08 8.408H36.624V10.28H30L29.544 15.368C29.928 15.144 30.328 14.976 30.744 14.864C31.176 14.736 31.656 14.672 32.184 14.672C33.16 14.672 34.048 14.872 34.848 15.272C35.648 15.656 36.288 16.264 36.768 17.096C37.248 17.928 37.488 18.992 37.488 20.288C37.488 21.568 37.208 22.656 36.648 23.552C36.104 24.448 35.392 25.136 34.512 25.616C33.632 26.08 32.704 26.312 31.728 26.312Z" fill="#1C1B1B"/>
<path d="M43.816 13.648H54.312V27.024H53.032V14.848H45.048V27.104H43.816V13.648ZM44.648 19.184H53.576V20.368H44.648V19.184ZM44.616 24.864H53.592V26.064H44.616V24.864Z" fill="black"/>
<path d="M227.816 13.648H238.312V27.024H237.032V14.848H229.048V27.104H227.816V13.648ZM228.648 19.184H237.576V20.368H228.648V19.184ZM228.616 24.864H237.592V26.064H228.616V24.864Z" fill="black"/>
<path d="M195.056 26V24.704C196.896 23.088 198.408 21.616 199.592 20.288C200.792 18.96 201.68 17.728 202.256 16.592C202.832 15.44 203.12 14.36 203.12 13.352C203.12 12.68 203 12.08 202.76 11.552C202.536 11.024 202.184 10.616 201.704 10.328C201.224 10.024 200.616 9.872 199.88 9.872C199.16 9.872 198.488 10.064 197.864 10.448C197.256 10.832 196.712 11.32 196.232 11.912L194.96 10.664C195.664 9.88 196.424 9.256 197.24 8.792C198.056 8.328 199.024 8.096 200.144 8.096C201.2 8.096 202.104 8.312 202.856 8.744C203.624 9.16 204.216 9.76 204.632 10.544C205.064 11.312 205.28 12.216 205.28 13.256C205.28 14.424 204.984 15.608 204.392 16.808C203.816 18.008 203.008 19.232 201.968 20.48C200.944 21.712 199.744 22.976 198.368 24.272C198.832 24.24 199.312 24.208 199.808 24.176C200.32 24.128 200.8 24.104 201.248 24.104H206.12V26H195.056ZM215.425 26.312C214.321 26.312 213.353 25.976 212.521 25.304C211.705 24.632 211.073 23.616 210.625 22.256C210.177 20.896 209.953 19.192 209.953 17.144C209.953 15.096 210.177 13.408 210.625 12.08C211.073 10.736 211.705 9.736 212.521 9.08C213.353 8.424 214.321 8.096 215.425 8.096C216.545 8.096 217.513 8.432 218.329 9.104C219.145 9.76 219.777 10.752 220.225 12.08C220.673 13.408 220.897 15.096 220.897 17.144C220.897 19.192 220.673 20.896 220.225 22.256C219.777 23.616 219.145 24.632 218.329 25.304C217.513 25.976 216.545 26.312 215.425 26.312ZM215.425 24.536C216.097 24.536 216.681 24.28 217.177 23.768C217.689 23.256 218.081 22.456 218.353 21.368C218.641 20.264 218.785 18.856 218.785 17.144C218.785 15.432 218.641 14.04 218.353 12.968C218.081 11.88 217.689 11.088 217.177 10.592C216.681 10.08 216.097 9.824 215.425 9.824C214.769 9.824 214.185 10.08 213.673 10.592C213.161 11.088 212.761 11.88 212.473 12.968C212.201 14.04 212.065 15.432 212.065 17.144C212.065 18.856 212.201 20.264 212.473 21.368C212.761 22.456 213.161 23.256 213.673 23.768C214.185 24.28 214.769 24.536 215.425 24.536Z" fill="#1C1B1B"/>
<path d="M249.016 28.064H241.816V27.944C242.696 27.192 243.488 26.272 244.192 25.184C244.912 24.08 245.488 22.824 245.92 21.416C246.352 20.008 246.568 18.496 246.568 16.88C246.568 15.248 246.352 13.736 245.92 12.344C245.488 10.936 244.912 9.68 244.192 8.576C243.488 7.472 242.696 6.552 241.816 5.816V5.696H249.016V28.064Z" fill="#1C1B1B"/>
<path d="M184 14.336C184.48 14.336 184.912 14.448 185.296 14.672C185.68 14.896 185.984 15.2 186.208 15.584C186.432 15.968 186.544 16.4 186.544 16.88C186.544 17.344 186.432 17.776 186.208 18.176C185.984 18.56 185.68 18.864 185.296 19.088C184.912 19.312 184.48 19.424 184 19.424C183.536 19.424 183.104 19.312 182.704 19.088C182.32 18.864 182.016 18.56 181.792 18.176C181.568 17.776 181.456 17.344 181.456 16.88C181.456 16.4 181.568 15.968 181.792 15.584C182.016 15.2 182.32 14.896 182.704 14.672C183.104 14.448 183.536 14.336 184 14.336Z" fill="#1C1B1B"/>
<path d="M66 14.336C66.48 14.336 66.912 14.448 67.296 14.672C67.68 14.896 67.984 15.2 68.208 15.584C68.432 15.968 68.544 16.4 68.544 16.88C68.544 17.344 68.432 17.776 68.208 18.176C67.984 18.56 67.68 18.864 67.296 19.088C66.912 19.312 66.48 19.424 66 19.424C65.536 19.424 65.104 19.312 64.704 19.088C64.32 18.864 64.016 18.56 63.792 18.176C63.568 17.776 63.456 17.344 63.456 16.88C63.456 16.4 63.568 15.968 63.792 15.584C64.016 15.2 64.32 14.896 64.704 14.672C65.104 14.448 65.536 14.336 66 14.336Z" fill="#1C1B1B"/>
<path d="M131.112 26V24.176H135.048V11.048H131.904V9.656C132.688 9.512 133.368 9.336 133.944 9.128C134.536 8.92 135.072 8.68 135.552 8.408H137.232V24.176H140.76V26H131.112ZM144.809 26V24.704C146.649 23.088 148.161 21.616 149.345 20.288C150.545 18.96 151.433 17.728 152.009 16.592C152.585 15.44 152.873 14.36 152.873 13.352C152.873 12.68 152.753 12.08 152.513 11.552C152.289 11.024 151.937 10.616 151.457 10.328C150.977 10.024 150.369 9.872 149.633 9.872C148.913 9.872 148.241 10.064 147.617 10.448C147.009 10.832 146.465 11.32 145.985 11.912L144.713 10.664C145.417 9.88 146.177 9.256 146.993 8.792C147.809 8.328 148.777 8.096 149.897 8.096C150.953 8.096 151.857 8.312 152.609 8.744C153.377 9.16 153.969 9.76 154.385 10.544C154.817 11.312 155.033 12.216 155.033 13.256C155.033 14.424 154.737 15.608 154.145 16.808C153.569 18.008 152.761 19.232 151.721 20.48C150.697 21.712 149.497 22.976 148.121 24.272C148.585 24.24 149.065 24.208 149.561 24.176C150.073 24.128 150.553 24.104 151.001 24.104H155.873V26H144.809Z" fill="#1C1B1B"/>
<path d="M162.816 13.648H173.312V27.024H172.032V14.848H164.048V27.104H162.816V13.648ZM163.648 19.184H172.576V20.368H163.648V19.184ZM163.616 24.864H172.592V26.064H163.616V24.864Z" fill="black"/>
<path d="M119 14.336C119.48 14.336 119.912 14.448 120.296 14.672C120.68 14.896 120.984 15.2 121.208 15.584C121.432 15.968 121.544 16.4 121.544 16.88C121.544 17.344 121.432 17.776 121.208 18.176C120.984 18.56 120.68 18.864 120.296 19.088C119.912 19.312 119.48 19.424 119 19.424C118.536 19.424 118.104 19.312 117.704 19.088C117.32 18.864 117.016 18.56 116.792 18.176C116.568 17.776 116.456 17.344 116.456 16.88C116.456 16.4 116.568 15.968 116.792 15.584C117.016 15.2 117.32 14.896 117.704 14.672C118.104 14.448 118.536 14.336 119 14.336Z" fill="#1C1B1B"/>
</svg>
