<svg width="515" height="33" viewBox="0 0 515 33" fill="none" xmlns="http://www.w3.org/2000/svg">
<path d="M295.88 29V13C295.88 12.424 295.901 11.72 295.944 10.888C295.987 10.056 296.019 9.34133 296.04 8.744H295.912C295.613 9.29867 295.304 9.87466 294.984 10.472C294.685 11.048 294.365 11.624 294.024 12.2L288.68 20.2H301.768V22.536H285.64V20.616L295.4 5.544H298.632V29H295.88Z" fill="#1C1B1B"/>
<path d="M314.08 13.26H324.5V14.72H314.08V13.26ZM314.08 18.08H324.6V19.5H314.08V18.08ZM313.92 22.9H324.5V24.36H313.92V22.9ZM313.14 13.26H314.66V19.42C314.66 20.2867 314.613 21.2133 314.52 22.2C314.44 23.1867 314.267 24.1867 314 25.2C313.733 26.2 313.333 27.1667 312.8 28.1C312.28 29.0333 311.587 29.8733 310.72 30.62C310.653 30.5133 310.547 30.3867 310.4 30.24C310.267 30.0933 310.127 29.9533 309.98 29.82C309.833 29.7 309.7 29.6067 309.58 29.54C310.393 28.82 311.033 28.0467 311.5 27.22C311.98 26.38 312.333 25.5133 312.56 24.62C312.8 23.7267 312.953 22.84 313.02 21.96C313.1 21.0667 313.14 20.22 313.14 19.42V13.26ZM323.84 13.26H325.42V28.38C325.42 28.9133 325.34 29.32 325.18 29.6C325.02 29.88 324.753 30.0867 324.38 30.22C323.993 30.3533 323.453 30.4333 322.76 30.46C322.067 30.5 321.187 30.52 320.12 30.52C320.093 30.36 320.04 30.1867 319.96 30C319.893 29.8133 319.813 29.62 319.72 29.42C319.64 29.2333 319.56 29.0733 319.48 28.94C320.04 28.9533 320.573 28.9667 321.08 28.98C321.6 28.98 322.047 28.98 322.42 28.98C322.807 28.9667 323.073 28.96 323.22 28.96C323.46 28.9467 323.62 28.9 323.7 28.82C323.793 28.7267 323.84 28.5733 323.84 28.36V13.26Z" fill="#1C1B1B"/>
<path d="M359.52 13.56H372.64V30.28H371.04V15.06H361.06V30.38H359.52V13.56ZM360.56 20.48H371.72V21.96H360.56V20.48ZM360.52 27.58H371.74V29.08H360.52V27.58Z" fill="#1C1B1B"/>
<path d="M383.78 30.92C382.86 29.4267 382.14 27.86 381.62 26.22C381.1 24.5667 380.84 22.7533 380.84 20.78C380.84 18.82 381.1 17.0133 381.62 15.36C382.14 13.7067 382.86 12.1333 383.78 10.64L384.9 11.16C384.047 12.5867 383.407 14.1267 382.98 15.78C382.567 17.42 382.36 19.0867 382.36 20.78C382.36 22.4867 382.567 24.1667 382.98 25.82C383.407 27.46 384.047 28.9933 384.9 30.42L383.78 30.92ZM388.298 15.12H405.658V16.62H388.298V15.12ZM396.158 10.22H397.738V28.6H396.158V10.22ZM395.818 15.88L397.118 16.34C396.651 17.38 396.104 18.3933 395.478 19.38C394.851 20.3667 394.171 21.3067 393.438 22.2C392.704 23.08 391.931 23.8867 391.118 24.62C390.318 25.34 389.491 25.9533 388.638 26.46C388.558 26.3267 388.444 26.1867 388.298 26.04C388.164 25.88 388.031 25.7267 387.898 25.58C387.764 25.4333 387.638 25.3067 387.518 25.2C388.344 24.7467 389.158 24.1867 389.958 23.52C390.771 22.8533 391.538 22.1067 392.258 21.28C392.991 20.44 393.658 19.5667 394.258 18.66C394.871 17.74 395.391 16.8133 395.818 15.88ZM398.038 15.92C398.478 16.8133 399.004 17.7133 399.618 18.62C400.231 19.5133 400.904 20.3733 401.638 21.2C402.384 22.0267 403.158 22.7733 403.958 23.44C404.758 24.1067 405.558 24.6667 406.358 25.12C406.238 25.2133 406.104 25.34 405.958 25.5C405.811 25.6467 405.671 25.8 405.538 25.96C405.404 26.12 405.298 26.2733 405.218 26.42C404.404 25.9 403.598 25.28 402.798 24.56C401.998 23.8267 401.224 23.02 400.478 22.14C399.744 21.2467 399.058 20.3133 398.418 19.34C397.791 18.3533 397.238 17.3667 396.758 16.38L398.038 15.92ZM410.138 30.92L408.998 30.42C409.864 28.9933 410.511 27.46 410.938 25.82C411.364 24.1667 411.578 22.4867 411.578 20.78C411.578 19.0867 411.364 17.42 410.938 15.78C410.511 14.1267 409.864 12.5867 408.998 11.16L410.138 10.64C411.071 12.1333 411.791 13.7067 412.298 15.36C412.818 17.0133 413.078 18.82 413.078 20.78C413.078 22.7533 412.818 24.5667 412.298 26.22C411.791 27.86 411.071 29.4267 410.138 30.92Z" fill="#1C1B1B"/>
<path d="M336.408 29V27.272C338.861 25.1173 340.877 23.1547 342.456 21.384C344.056 19.6133 345.24 17.9707 346.008 16.456C346.776 14.92 347.16 13.48 347.16 12.136C347.16 11.24 347 10.44 346.68 9.736C346.381 9.032 345.912 8.488 345.272 8.104C344.632 7.69866 343.821 7.496 342.84 7.496C341.88 7.496 340.984 7.752 340.152 8.264C339.341 8.776 338.616 9.42667 337.976 10.216L336.28 8.552C337.219 7.50667 338.232 6.67467 339.32 6.056C340.408 5.43733 341.699 5.128 343.192 5.128C344.6 5.128 345.805 5.416 346.808 5.992C347.832 6.54667 348.621 7.34667 349.176 8.392C349.752 9.416 350.04 10.6213 350.04 12.008C350.04 13.5653 349.645 15.144 348.856 16.744C348.088 18.344 347.011 19.976 345.624 21.64C344.259 23.2827 342.659 24.968 340.824 26.696C341.443 26.6533 342.083 26.6107 342.744 26.568C343.427 26.504 344.067 26.472 344.664 26.472H351.16V29H336.408Z" fill="#1C1B1B"/>
<path d="M428.408 29V27.272C430.861 25.1173 432.877 23.1547 434.456 21.384C436.056 19.6133 437.24 17.9707 438.008 16.456C438.776 14.92 439.16 13.48 439.16 12.136C439.16 11.24 439 10.44 438.68 9.736C438.381 9.032 437.912 8.488 437.272 8.104C436.632 7.69866 435.821 7.496 434.84 7.496C433.88 7.496 432.984 7.752 432.152 8.264C431.341 8.776 430.616 9.42667 429.976 10.216L428.28 8.552C429.219 7.50667 430.232 6.67467 431.32 6.056C432.408 5.43733 433.699 5.128 435.192 5.128C436.6 5.128 437.805 5.416 438.808 5.992C439.832 6.54667 440.621 7.34667 441.176 8.392C441.752 9.416 442.04 10.6213 442.04 12.008C442.04 13.5653 441.645 15.144 440.856 16.744C440.088 18.344 439.011 19.976 437.624 21.64C436.259 23.2827 434.659 24.968 432.824 26.696C433.443 26.6533 434.083 26.6107 434.744 26.568C435.427 26.504 436.067 26.472 436.664 26.472H443.16V29H428.408ZM455.086 29.416C453.87 29.416 452.793 29.2667 451.854 28.968C450.937 28.6693 450.126 28.2747 449.422 27.784C448.718 27.2933 448.11 26.76 447.598 26.184L449.102 24.296C449.785 25 450.585 25.6293 451.502 26.184C452.441 26.7173 453.571 26.984 454.894 26.984C455.833 26.984 456.654 26.8133 457.358 26.472C458.083 26.1093 458.649 25.608 459.054 24.968C459.459 24.3067 459.662 23.528 459.662 22.632C459.662 21.6933 459.427 20.872 458.958 20.168C458.51 19.464 457.753 18.92 456.686 18.536C455.619 18.1307 454.179 17.928 452.366 17.928V15.688C453.987 15.688 455.267 15.496 456.206 15.112C457.145 14.7067 457.817 14.1627 458.222 13.48C458.649 12.7973 458.862 12.04 458.862 11.208C458.862 10.0773 458.51 9.18133 457.806 8.52C457.102 7.83733 456.131 7.496 454.894 7.496C453.955 7.496 453.07 7.70933 452.238 8.136C451.427 8.56267 450.691 9.10667 450.03 9.768L448.462 7.912C449.358 7.10133 450.329 6.44 451.374 5.928C452.441 5.39467 453.646 5.128 454.99 5.128C456.313 5.128 457.486 5.36267 458.51 5.832C459.555 6.28 460.366 6.94133 460.942 7.816C461.539 8.69066 461.838 9.74667 461.838 10.984C461.838 12.4133 461.454 13.5973 460.686 14.536C459.918 15.4747 458.915 16.168 457.678 16.616V16.776C458.595 16.9893 459.427 17.3627 460.174 17.896C460.921 18.4293 461.518 19.1013 461.966 19.912C462.414 20.7227 462.638 21.6613 462.638 22.728C462.638 24.1147 462.297 25.3093 461.614 26.312C460.931 27.3147 460.025 28.0827 458.894 28.616C457.763 29.1493 456.494 29.416 455.086 29.416ZM470.788 16.52C470.212 16.52 469.711 16.3173 469.284 15.912C468.879 15.4853 468.676 14.9413 468.676 14.28C468.676 13.6187 468.879 13.0853 469.284 12.68C469.711 12.2533 470.212 12.04 470.788 12.04C471.364 12.04 471.855 12.2533 472.26 12.68C472.687 13.0853 472.9 13.6187 472.9 14.28C472.9 14.9413 472.687 15.4853 472.26 15.912C471.855 16.3173 471.364 16.52 470.788 16.52ZM470.788 29.416C470.212 29.416 469.711 29.2133 469.284 28.808C468.879 28.3813 468.676 27.848 468.676 27.208C468.676 26.5253 468.879 25.9813 469.284 25.576C469.711 25.1707 470.212 24.968 470.788 24.968C471.364 24.968 471.855 25.1707 472.26 25.576C472.687 25.9813 472.9 26.5253 472.9 27.208C472.9 27.848 472.687 28.3813 472.26 28.808C471.855 29.2133 471.364 29.416 470.788 29.416ZM485.55 29.416C484.334 29.416 483.257 29.2667 482.318 28.968C481.401 28.6693 480.59 28.2853 479.886 27.816C479.204 27.3467 478.585 26.8453 478.03 26.312L479.502 24.392C479.95 24.84 480.441 25.2667 480.974 25.672C481.529 26.056 482.158 26.376 482.862 26.632C483.566 26.8667 484.366 26.984 485.262 26.984C486.18 26.984 487.012 26.76 487.758 26.312C488.526 25.864 489.134 25.224 489.582 24.392C490.03 23.56 490.254 22.5787 490.254 21.448C490.254 19.784 489.806 18.4827 488.91 17.544C488.036 16.584 486.862 16.104 485.39 16.104C484.622 16.104 483.95 16.2213 483.374 16.456C482.798 16.6907 482.169 17.032 481.486 17.48L479.918 16.488L480.686 5.544H492.078V8.04H483.246L482.638 14.824C483.15 14.5253 483.684 14.3013 484.238 14.152C484.814 13.9813 485.454 13.896 486.158 13.896C487.46 13.896 488.644 14.1627 489.71 14.696C490.777 15.208 491.63 16.0187 492.27 17.128C492.91 18.2373 493.23 19.656 493.23 21.384C493.23 23.0907 492.857 24.5413 492.11 25.736C491.385 26.9307 490.436 27.848 489.262 28.488C488.089 29.1067 486.852 29.416 485.55 29.416ZM504.356 29.416C503.076 29.416 501.967 29.192 501.028 28.744C500.111 28.2747 499.332 27.6987 498.692 27.016L500.292 25.192C500.804 25.7467 501.402 26.184 502.084 26.504C502.788 26.824 503.514 26.984 504.26 26.984C505.05 26.984 505.796 26.8027 506.5 26.44C507.204 26.0773 507.823 25.48 508.356 24.648C508.911 23.7947 509.338 22.6853 509.636 21.32C509.956 19.9547 510.116 18.2693 510.116 16.264C510.116 14.344 509.914 12.7227 509.508 11.4C509.124 10.0773 508.548 9.08533 507.78 8.424C507.012 7.74133 506.084 7.4 504.996 7.4C504.25 7.4 503.578 7.624 502.98 8.072C502.383 8.52 501.903 9.13867 501.54 9.928C501.178 10.7173 500.996 11.656 500.996 12.744C500.996 13.7893 501.146 14.7067 501.444 15.496C501.764 16.264 502.234 16.8613 502.852 17.288C503.492 17.7147 504.271 17.928 505.188 17.928C505.978 17.928 506.799 17.6827 507.652 17.192C508.527 16.68 509.359 15.848 510.148 14.696L510.276 17.032C509.807 17.6293 509.263 18.1627 508.644 18.632C508.047 19.1013 507.407 19.464 506.724 19.72C506.063 19.976 505.391 20.104 504.708 20.104C503.407 20.104 502.266 19.8267 501.284 19.272C500.324 18.7173 499.578 17.896 499.044 16.808C498.511 15.6987 498.244 14.344 498.244 12.744C498.244 11.208 498.554 9.87467 499.172 8.744C499.791 7.592 500.602 6.70667 501.604 6.088C502.628 5.448 503.748 5.128 504.964 5.128C506.095 5.128 507.14 5.36267 508.1 5.832C509.06 6.28 509.892 6.97333 510.596 7.912C511.3 8.82933 511.855 9.98133 512.26 11.368C512.666 12.7547 512.868 14.3867 512.868 16.264C512.868 18.632 512.634 20.6587 512.164 22.344C511.695 24.008 511.055 25.3627 510.244 26.408C509.434 27.4533 508.516 28.2213 507.492 28.712C506.49 29.1813 505.444 29.416 504.356 29.416Z" fill="#1C1B1B"/>
<path d="M8.416 29.416C7.2 29.416 6.12267 29.2667 5.184 28.968C4.26667 28.6693 3.456 28.2747 2.752 27.784C2.048 27.2933 1.44 26.76 0.928 26.184L2.432 24.296C3.11467 25 3.91467 25.6293 4.832 26.184C5.77067 26.7173 6.90133 26.984 8.224 26.984C9.16267 26.984 9.984 26.8133 10.688 26.472C11.4133 26.1093 11.9787 25.608 12.384 24.968C12.7893 24.3067 12.992 23.528 12.992 22.632C12.992 21.6933 12.7573 20.872 12.288 20.168C11.84 19.464 11.0827 18.92 10.016 18.536C8.94933 18.1307 7.50933 17.928 5.696 17.928V15.688C7.31733 15.688 8.59733 15.496 9.536 15.112C10.4747 14.7067 11.1467 14.1627 11.552 13.48C11.9787 12.7973 12.192 12.04 12.192 11.208C12.192 10.0773 11.84 9.18133 11.136 8.52C10.432 7.83733 9.46133 7.496 8.224 7.496C7.28533 7.496 6.4 7.70933 5.568 8.136C4.75733 8.56267 4.02133 9.10667 3.36 9.768L1.792 7.912C2.688 7.10133 3.65867 6.44 4.704 5.928C5.77067 5.39467 6.976 5.128 8.32 5.128C9.64267 5.128 10.816 5.36267 11.84 5.832C12.8853 6.28 13.696 6.94133 14.272 7.816C14.8693 8.69066 15.168 9.74667 15.168 10.984C15.168 12.4133 14.784 13.5973 14.016 14.536C13.248 15.4747 12.2453 16.168 11.008 16.616V16.776C11.9253 16.9893 12.7573 17.3627 13.504 17.896C14.2507 18.4293 14.848 19.1013 15.296 19.912C15.744 20.7227 15.968 21.6613 15.968 22.728C15.968 24.1147 15.6267 25.3093 14.944 26.312C14.2613 27.3147 13.3547 28.0827 12.224 28.616C11.0933 29.1493 9.824 29.416 8.416 29.416Z" fill="#1C1B1B"/>
<path d="M26.08 13.26H36.5V14.72H26.08V13.26ZM26.08 18.08H36.6V19.5H26.08V18.08ZM25.92 22.9H36.5V24.36H25.92V22.9ZM25.14 13.26H26.66V19.42C26.66 20.2867 26.6133 21.2133 26.52 22.2C26.44 23.1867 26.2667 24.1867 26 25.2C25.7333 26.2 25.3333 27.1667 24.8 28.1C24.28 29.0333 23.5867 29.8733 22.72 30.62C22.6533 30.5133 22.5467 30.3867 22.4 30.24C22.2667 30.0933 22.1267 29.9533 21.98 29.82C21.8333 29.7 21.7 29.6067 21.58 29.54C22.3933 28.82 23.0333 28.0467 23.5 27.22C23.98 26.38 24.3333 25.5133 24.56 24.62C24.8 23.7267 24.9533 22.84 25.02 21.96C25.1 21.0667 25.14 20.22 25.14 19.42V13.26ZM35.84 13.26H37.42V28.38C37.42 28.9133 37.34 29.32 37.18 29.6C37.02 29.88 36.7533 30.0867 36.38 30.22C35.9933 30.3533 35.4533 30.4333 34.76 30.46C34.0667 30.5 33.1867 30.52 32.12 30.52C32.0933 30.36 32.04 30.1867 31.96 30C31.8933 29.8133 31.8133 29.62 31.72 29.42C31.64 29.2333 31.56 29.0733 31.48 28.94C32.04 28.9533 32.5733 28.9667 33.08 28.98C33.6 28.98 34.0467 28.98 34.42 28.98C34.8067 28.9667 35.0733 28.96 35.22 28.96C35.46 28.9467 35.62 28.9 35.7 28.82C35.7933 28.7267 35.84 28.5733 35.84 28.36V13.26Z" fill="#1C1B1B"/>
<path d="M88.52 13.56H101.64V30.28H100.04V15.06H90.06V30.38H88.52V13.56ZM89.56 20.48H100.72V21.96H89.56V20.48ZM89.52 27.58H100.74V29.08H89.52V27.58Z" fill="#1C1B1B"/>
<path d="M113.78 30.92C112.86 29.4267 112.14 27.86 111.62 26.22C111.1 24.5667 110.84 22.7533 110.84 20.78C110.84 18.82 111.1 17.0133 111.62 15.36C112.14 13.7067 112.86 12.1333 113.78 10.64L114.9 11.16C114.047 12.5867 113.407 14.1267 112.98 15.78C112.567 17.42 112.36 19.0867 112.36 20.78C112.36 22.4867 112.567 24.1667 112.98 25.82C113.407 27.46 114.047 28.9933 114.9 30.42L113.78 30.92ZM118.298 15.12H135.658V16.62H118.298V15.12ZM126.158 10.22H127.738V28.6H126.158V10.22ZM125.818 15.88L127.118 16.34C126.651 17.38 126.104 18.3933 125.478 19.38C124.851 20.3667 124.171 21.3067 123.438 22.2C122.704 23.08 121.931 23.8867 121.118 24.62C120.318 25.34 119.491 25.9533 118.638 26.46C118.558 26.3267 118.444 26.1867 118.298 26.04C118.164 25.88 118.031 25.7267 117.898 25.58C117.764 25.4333 117.638 25.3067 117.518 25.2C118.344 24.7467 119.158 24.1867 119.958 23.52C120.771 22.8533 121.538 22.1067 122.258 21.28C122.991 20.44 123.658 19.5667 124.258 18.66C124.871 17.74 125.391 16.8133 125.818 15.88ZM128.038 15.92C128.478 16.8133 129.004 17.7133 129.618 18.62C130.231 19.5133 130.904 20.3733 131.638 21.2C132.384 22.0267 133.158 22.7733 133.958 23.44C134.758 24.1067 135.558 24.6667 136.358 25.12C136.238 25.2133 136.104 25.34 135.958 25.5C135.811 25.6467 135.671 25.8 135.538 25.96C135.404 26.12 135.298 26.2733 135.218 26.42C134.404 25.9 133.598 25.28 132.798 24.56C131.998 23.8267 131.224 23.02 130.478 22.14C129.744 21.2467 129.058 20.3133 128.418 19.34C127.791 18.3533 127.238 17.3667 126.758 16.38L128.038 15.92ZM140.138 30.92L138.998 30.42C139.864 28.9933 140.511 27.46 140.938 25.82C141.364 24.1667 141.578 22.4867 141.578 20.78C141.578 19.0867 141.364 17.42 140.938 15.78C140.511 14.1267 139.864 12.5867 138.998 11.16L140.138 10.64C141.071 12.1333 141.791 13.7067 142.298 15.36C142.818 17.0133 143.078 18.82 143.078 20.78C143.078 22.7533 142.818 24.5667 142.298 26.22C141.791 27.86 141.071 29.4267 140.138 30.92Z" fill="#1C1B1B"/>
<path d="M45.408 29V27.272C47.8613 25.1173 49.8773 23.1547 51.456 21.384C53.056 19.6133 54.24 17.9707 55.008 16.456C55.776 14.92 56.16 13.48 56.16 12.136C56.16 11.24 56 10.44 55.68 9.736C55.3813 9.032 54.912 8.488 54.272 8.104C53.632 7.69866 52.8213 7.496 51.84 7.496C50.88 7.496 49.984 7.752 49.152 8.264C48.3413 8.776 47.616 9.42667 46.976 10.216L45.28 8.552C46.2187 7.50667 47.232 6.67467 48.32 6.056C49.408 5.43733 50.6987 5.128 52.192 5.128C53.6 5.128 54.8053 5.416 55.808 5.992C56.832 6.54667 57.6213 7.34667 58.176 8.392C58.752 9.416 59.04 10.6213 59.04 12.008C59.04 13.5653 58.6453 15.144 57.856 16.744C57.088 18.344 56.0107 19.976 54.624 21.64C53.2587 23.2827 51.6587 24.968 49.824 26.696C50.4427 26.6533 51.0827 26.6107 51.744 26.568C52.4267 26.504 53.0667 26.472 53.664 26.472H60.16V29H45.408ZM73.302 29.416C72.1927 29.416 71.158 29.1813 70.198 28.712C69.238 28.2213 68.406 27.496 67.702 26.536C66.998 25.5547 66.4433 24.3387 66.038 22.888C65.654 21.4373 65.462 19.7413 65.462 17.8C65.462 15.5173 65.6967 13.5653 66.166 11.944C66.6353 10.3227 67.2753 9.01067 68.086 8.008C68.8967 7.00533 69.8247 6.28 70.87 5.832C71.9153 5.36267 73.0033 5.128 74.134 5.128C75.35 5.128 76.406 5.352 77.302 5.8C78.198 6.248 78.9767 6.824 79.638 7.528L77.974 9.32C77.526 8.76533 76.9713 8.328 76.31 8.008C75.6487 7.688 74.966 7.528 74.262 7.528C73.1527 7.528 72.1393 7.85867 71.222 8.52C70.3047 9.16 69.5687 10.2267 69.014 11.72C68.4807 13.2133 68.214 15.24 68.214 17.8C68.214 19.8053 68.406 21.5013 68.79 22.888C69.1953 24.2747 69.7713 25.3307 70.518 26.056C71.286 26.76 72.214 27.112 73.302 27.112C74.07 27.112 74.742 26.888 75.318 26.44C75.9153 25.992 76.3847 25.3733 76.726 24.584C77.0887 23.7733 77.27 22.8453 77.27 21.8C77.27 20.7333 77.11 19.816 76.79 19.048C76.4913 18.2587 76.0327 17.6613 75.414 17.256C74.7953 16.8293 74.006 16.616 73.046 16.616C72.2993 16.616 71.4887 16.8613 70.614 17.352C69.7393 17.8213 68.9073 18.6427 68.118 19.816L68.022 17.512C68.5127 16.872 69.0567 16.328 69.654 15.88C70.2513 15.4107 70.8807 15.0587 71.542 14.824C72.2247 14.568 72.886 14.44 73.526 14.44C74.8487 14.44 75.99 14.7173 76.95 15.272C77.9313 15.8053 78.6887 16.616 79.222 17.704C79.7767 18.792 80.054 20.1573 80.054 21.8C80.054 23.3147 79.7447 24.648 79.126 25.8C78.5073 26.9307 77.686 27.816 76.662 28.456C75.6593 29.096 74.5393 29.416 73.302 29.416Z" fill="#1C1B1B"/>
<path d="M153.816 29V26.568H159.064V9.064H154.872V7.208C155.917 7.016 156.824 6.78133 157.592 6.504C158.381 6.22667 159.096 5.90667 159.736 5.544H161.976V26.568H166.68V29H153.816ZM172.078 29V27.272C174.531 25.1173 176.547 23.1547 178.126 21.384C179.726 19.6133 180.91 17.9707 181.678 16.456C182.446 14.92 182.83 13.48 182.83 12.136C182.83 11.24 182.67 10.44 182.35 9.736C182.051 9.032 181.582 8.488 180.942 8.104C180.302 7.69866 179.491 7.496 178.51 7.496C177.55 7.496 176.654 7.752 175.822 8.264C175.011 8.776 174.286 9.42667 173.646 10.216L171.95 8.552C172.889 7.50667 173.902 6.67467 174.99 6.056C176.078 5.43733 177.369 5.128 178.862 5.128C180.27 5.128 181.475 5.416 182.478 5.992C183.502 6.54667 184.291 7.34667 184.846 8.392C185.422 9.416 185.71 10.6213 185.71 12.008C185.71 13.5653 185.315 15.144 184.526 16.744C183.758 18.344 182.681 19.976 181.294 21.64C179.929 23.2827 178.329 24.968 176.494 26.696C177.113 26.6533 177.753 26.6107 178.414 26.568C179.097 26.504 179.737 26.472 180.334 26.472H186.83V29H172.078ZM194.788 16.52C194.212 16.52 193.711 16.3173 193.284 15.912C192.879 15.4853 192.676 14.9413 192.676 14.28C192.676 13.6187 192.879 13.0853 193.284 12.68C193.711 12.2533 194.212 12.04 194.788 12.04C195.364 12.04 195.855 12.2533 196.26 12.68C196.687 13.0853 196.9 13.6187 196.9 14.28C196.9 14.9413 196.687 15.4853 196.26 15.912C195.855 16.3173 195.364 16.52 194.788 16.52ZM194.788 29.416C194.212 29.416 193.711 29.2133 193.284 28.808C192.879 28.3813 192.676 27.848 192.676 27.208C192.676 26.5253 192.879 25.9813 193.284 25.576C193.711 25.1707 194.212 24.968 194.788 24.968C195.364 24.968 195.855 25.1707 196.26 25.576C196.687 25.9813 196.9 26.5253 196.9 27.208C196.9 27.848 196.687 28.3813 196.26 28.808C195.855 29.2133 195.364 29.416 194.788 29.416ZM210.062 29.416C208.59 29.416 207.3 28.968 206.19 28.072C205.102 27.176 204.26 25.8213 203.662 24.008C203.065 22.1947 202.766 19.9227 202.766 17.192C202.766 14.4613 203.065 12.2107 203.662 10.44C204.26 8.648 205.102 7.31467 206.19 6.44C207.3 5.56533 208.59 5.128 210.062 5.128C211.556 5.128 212.846 5.576 213.934 6.472C215.022 7.34667 215.865 8.66933 216.462 10.44C217.06 12.2107 217.358 14.4613 217.358 17.192C217.358 19.9227 217.06 22.1947 216.462 24.008C215.865 25.8213 215.022 27.176 213.934 28.072C212.846 28.968 211.556 29.416 210.062 29.416ZM210.062 27.048C210.958 27.048 211.737 26.7067 212.398 26.024C213.081 25.3413 213.604 24.2747 213.966 22.824C214.35 21.352 214.542 19.4747 214.542 17.192C214.542 14.9093 214.35 13.0533 213.966 11.624C213.604 10.1733 213.081 9.11733 212.398 8.456C211.737 7.77333 210.958 7.432 210.062 7.432C209.188 7.432 208.409 7.77333 207.726 8.456C207.044 9.11733 206.51 10.1733 206.126 11.624C205.764 13.0533 205.582 14.9093 205.582 17.192C205.582 19.4747 205.764 21.352 206.126 22.824C206.51 24.2747 207.044 25.3413 207.726 26.024C208.409 26.7067 209.188 27.048 210.062 27.048ZM229.732 29.416C228.26 29.416 226.97 28.968 225.86 28.072C224.772 27.176 223.93 25.8213 223.332 24.008C222.735 22.1947 222.436 19.9227 222.436 17.192C222.436 14.4613 222.735 12.2107 223.332 10.44C223.93 8.648 224.772 7.31467 225.86 6.44C226.97 5.56533 228.26 5.128 229.732 5.128C231.226 5.128 232.516 5.576 233.604 6.472C234.692 7.34667 235.535 8.66933 236.132 10.44C236.73 12.2107 237.028 14.4613 237.028 17.192C237.028 19.9227 236.73 22.1947 236.132 24.008C235.535 25.8213 234.692 27.176 233.604 28.072C232.516 28.968 231.226 29.416 229.732 29.416ZM229.732 27.048C230.628 27.048 231.407 26.7067 232.068 26.024C232.751 25.3413 233.274 24.2747 233.636 22.824C234.02 21.352 234.212 19.4747 234.212 17.192C234.212 14.9093 234.02 13.0533 233.636 11.624C233.274 10.1733 232.751 9.11733 232.068 8.456C231.407 7.77333 230.628 7.432 229.732 7.432C228.858 7.432 228.079 7.77333 227.396 8.456C226.714 9.11733 226.18 10.1733 225.796 11.624C225.434 13.0533 225.252 14.9093 225.252 17.192C225.252 19.4747 225.434 21.352 225.796 22.824C226.18 24.2747 226.714 25.3413 227.396 26.024C228.079 26.7067 228.858 27.048 229.732 27.048Z" fill="#1C1B1B"/>
<path d="M260.104 17.736C259.251 16.9253 258.419 16.2853 257.608 15.816C256.819 15.3467 255.837 15.112 254.664 15.112C253.405 15.112 252.243 15.5067 251.176 16.296C250.131 17.064 249.277 18.0773 248.616 19.336L246.344 18.12C247.347 16.2853 248.563 14.8987 249.992 13.96C251.443 13 253.011 12.52 254.696 12.52C256.147 12.52 257.427 12.8187 258.536 13.416C259.667 13.992 260.787 14.8347 261.896 15.944C262.749 16.7547 263.581 17.3947 264.392 17.864C265.203 18.3333 266.184 18.568 267.336 18.568C268.595 18.568 269.747 18.184 270.792 17.416C271.859 16.6267 272.723 15.6027 273.384 14.344L275.656 15.56C274.653 17.3947 273.427 18.792 271.976 19.752C270.547 20.6907 268.989 21.16 267.304 21.16C265.875 21.16 264.595 20.872 263.464 20.296C262.333 19.6987 261.213 18.8453 260.104 17.736Z" fill="#1C1B1B"/>
</svg>
