<svg width="221" height="113" viewBox="0 0 221 113" fill="none" xmlns="http://www.w3.org/2000/svg">
<path d="M82.4746 1.31348C84.1584 0.229214 86.3308 0.228402 88.0146 1.3125L109.067 14.9258L103.7 18.4004L85.5225 6.65723L85.251 6.48242L84.9795 6.65723L8.46289 56.083L7.8125 56.5029L8.46289 56.9229L84.9795 106.349L85.251 106.524L85.5225 106.349L103.7 94.6045L109.078 98.0791L88.0293 111.68C87.1787 112.224 86.2135 112.5 85.251 112.5C84.2868 112.5 83.3106 112.223 82.4756 111.682L82.4746 111.681L2.42578 59.9707C1.21242 59.185 0.5 57.8828 0.5 56.5029C0.500038 55.1228 1.21295 53.8208 2.42676 53.0352L2.42578 53.0342L82.4736 1.3125L82.4746 1.31348Z" fill="#A3CE6B" stroke="#A3CE6B"/>
<path d="M139.5 3.5C139.771 3.5 140.045 3.58021 140.283 3.73438L140.284 3.73535L220.115 55.3145V55.3154C220.628 55.6514 220.628 56.3486 220.115 56.6846L140.284 108.265L140.283 108.266C140.045 108.42 139.771 108.5 139.5 108.5C139.229 108.5 138.955 108.42 138.717 108.266L138.716 108.265L115.712 93.4023L109.43 89.3418L58.8838 56.6846H58.8848C58.3722 56.3486 58.3714 55.6505 58.8838 55.3145L109.43 22.6582L115.712 18.5977L138.716 3.73535L138.717 3.73438C138.955 3.58021 139.229 3.5 139.5 3.5Z" fill="#A3CE6B" stroke="#A3CE6B"/>
</svg>
