<svg width="221" height="113" viewBox="0 0 221 113" fill="none" xmlns="http://www.w3.org/2000/svg">
<path d="M85.251 105.929L8.73421 56.503L85.251 7.07731L103.701 18.9963L109.987 14.9261L88.2856 0.893017C86.4368 -0.297672 84.0524 -0.297672 82.2036 0.893017L2.15486 52.6151C0.803292 53.4899 0 54.9479 0 56.503C0 58.0582 0.803292 59.5162 2.15486 60.391L82.2036 112.101C83.1216 112.696 84.1927 113 85.251 113C86.3093 113 87.3676 112.696 88.2984 112.101L110 98.0799L103.701 94.0097L85.251 105.929Z" fill="#BE86B9"/>
<path d="M220.39 57.1032L140.555 108.685C140.238 108.891 139.869 109 139.5 109C139.131 109 138.762 108.891 138.445 108.685L115.44 93.8225L109.158 89.7614L58.6104 57.1032C57.7965 56.5698 57.7965 55.4302 58.6104 54.8968L109.158 22.2386L115.44 18.1775L138.445 3.31519C138.762 3.1091 139.131 3 139.5 3C139.869 3 140.238 3.1091 140.555 3.31519L220.39 54.8968C221.203 55.4302 221.203 56.5698 220.39 57.1032Z" fill="#BE86B9"/>
</svg>
