<svg width="512" height="33" viewBox="0 0 512 33" fill="none" xmlns="http://www.w3.org/2000/svg">
<path d="M10.88 29V13C10.88 12.424 10.9013 11.72 10.944 10.888C10.9867 10.056 11.0187 9.34133 11.04 8.744H10.912C10.6133 9.29867 10.304 9.87466 9.984 10.472C9.68533 11.048 9.36533 11.624 9.024 12.2L3.68 20.2H16.768V22.536H0.64V20.616L10.4 5.544H13.632V29H10.88Z" fill="#1C1B1B"/>
<path d="M27.08 13.26H37.5V14.72H27.08V13.26ZM27.08 18.08H37.6V19.5H27.08V18.08ZM26.92 22.9H37.5V24.36H26.92V22.9ZM26.14 13.26H27.66V19.42C27.66 20.2867 27.6133 21.2133 27.52 22.2C27.44 23.1867 27.2667 24.1867 27 25.2C26.7333 26.2 26.3333 27.1667 25.8 28.1C25.28 29.0333 24.5867 29.8733 23.72 30.62C23.6533 30.5133 23.5467 30.3867 23.4 30.24C23.2667 30.0933 23.1267 29.9533 22.98 29.82C22.8333 29.7 22.7 29.6067 22.58 29.54C23.3933 28.82 24.0333 28.0467 24.5 27.22C24.98 26.38 25.3333 25.5133 25.56 24.62C25.8 23.7267 25.9533 22.84 26.02 21.96C26.1 21.0667 26.14 20.22 26.14 19.42V13.26ZM36.84 13.26H38.42V28.38C38.42 28.9133 38.34 29.32 38.18 29.6C38.02 29.88 37.7533 30.0867 37.38 30.22C36.9933 30.3533 36.4533 30.4333 35.76 30.46C35.0667 30.5 34.1867 30.52 33.12 30.52C33.0933 30.36 33.04 30.1867 32.96 30C32.8933 29.8133 32.8133 29.62 32.72 29.42C32.64 29.2333 32.56 29.0733 32.48 28.94C33.04 28.9533 33.5733 28.9667 34.08 28.98C34.6 28.98 35.0467 28.98 35.42 28.98C35.8067 28.9667 36.0733 28.96 36.22 28.96C36.46 28.9467 36.62 28.9 36.7 28.82C36.7933 28.7267 36.84 28.5733 36.84 28.36V13.26Z" fill="#1C1B1B"/>
<path d="M73.52 13.56H86.64V30.28H85.04V15.06H75.06V30.38H73.52V13.56ZM74.56 20.48H85.72V21.96H74.56V20.48ZM74.52 27.58H85.74V29.08H74.52V27.58Z" fill="#1C1B1B"/>
<path d="M98.78 30.92C97.86 29.4267 97.14 27.86 96.62 26.22C96.1 24.5667 95.84 22.7533 95.84 20.78C95.84 18.82 96.1 17.0133 96.62 15.36C97.14 13.7067 97.86 12.1333 98.78 10.64L99.9 11.16C99.0467 12.5867 98.4067 14.1267 97.98 15.78C97.5667 17.42 97.36 19.0867 97.36 20.78C97.36 22.4867 97.5667 24.1667 97.98 25.82C98.4067 27.46 99.0467 28.9933 99.9 30.42L98.78 30.92ZM111.878 11.64C111.331 12.4267 110.624 13.2467 109.758 14.1C108.904 14.94 107.951 15.7467 106.898 16.52C105.858 17.2933 104.771 17.98 103.638 18.58C103.571 18.46 103.484 18.3267 103.378 18.18C103.271 18.0333 103.158 17.8933 103.038 17.76C102.931 17.6133 102.818 17.4867 102.698 17.38C103.858 16.8067 104.971 16.12 106.038 15.32C107.118 14.5067 108.091 13.6533 108.958 12.76C109.824 11.8667 110.518 11.0067 111.038 10.18H112.558C113.091 10.8867 113.698 11.5867 114.378 12.28C115.058 12.9733 115.778 13.6267 116.538 14.24C117.311 14.84 118.098 15.3867 118.898 15.88C119.711 16.3733 120.511 16.7933 121.298 17.14C121.111 17.3267 120.931 17.54 120.758 17.78C120.584 18.02 120.431 18.2533 120.298 18.48C119.538 18.08 118.758 17.62 117.958 17.1C117.158 16.5667 116.378 16 115.618 15.4C114.871 14.7867 114.178 14.1667 113.538 13.54C112.898 12.9 112.344 12.2667 111.878 11.64ZM106.938 16.3H116.958V17.64H106.938V16.3ZM104.338 20.32H119.558V21.64H104.338V20.32ZM103.418 26.64H120.518V27.96H103.418V26.64ZM111.078 16.82H112.658V27.32H111.078V16.82ZM105.998 22.66L107.218 22.18C107.498 22.54 107.764 22.94 108.018 23.38C108.284 23.8067 108.518 24.2333 108.718 24.66C108.918 25.0733 109.058 25.4467 109.138 25.78L107.838 26.34C107.758 26.0067 107.624 25.6267 107.438 25.2C107.251 24.7733 107.031 24.34 106.778 23.9C106.524 23.46 106.264 23.0467 105.998 22.66ZM116.478 22.14L117.898 22.7C117.511 23.3267 117.098 23.98 116.658 24.66C116.231 25.3267 115.824 25.8867 115.438 26.34L114.318 25.86C114.558 25.5267 114.811 25.1467 115.078 24.72C115.344 24.28 115.598 23.8333 115.838 23.38C116.091 22.9267 116.304 22.5133 116.478 22.14ZM125.138 30.92L123.998 30.42C124.864 28.9933 125.511 27.46 125.938 25.82C126.364 24.1667 126.578 22.4867 126.578 20.78C126.578 19.0867 126.364 17.42 125.938 15.78C125.511 14.1267 124.864 12.5867 123.998 11.16L125.138 10.64C126.071 12.1333 126.791 13.7067 127.298 15.36C127.818 17.0133 128.078 18.82 128.078 20.78C128.078 22.7533 127.818 24.5667 127.298 26.22C126.791 27.86 126.071 29.4267 125.138 30.92Z" fill="#1C1B1B"/>
<path d="M56.416 29.416C55.2 29.416 54.1227 29.2667 53.184 28.968C52.2667 28.6693 51.456 28.2747 50.752 27.784C50.048 27.2933 49.44 26.76 48.928 26.184L50.432 24.296C51.1147 25 51.9147 25.6293 52.832 26.184C53.7707 26.7173 54.9013 26.984 56.224 26.984C57.1627 26.984 57.984 26.8133 58.688 26.472C59.4133 26.1093 59.9787 25.608 60.384 24.968C60.7893 24.3067 60.992 23.528 60.992 22.632C60.992 21.6933 60.7573 20.872 60.288 20.168C59.84 19.464 59.0827 18.92 58.016 18.536C56.9493 18.1307 55.5093 17.928 53.696 17.928V15.688C55.3173 15.688 56.5973 15.496 57.536 15.112C58.4747 14.7067 59.1467 14.1627 59.552 13.48C59.9787 12.7973 60.192 12.04 60.192 11.208C60.192 10.0773 59.84 9.18133 59.136 8.52C58.432 7.83733 57.4613 7.496 56.224 7.496C55.2853 7.496 54.4 7.70933 53.568 8.136C52.7573 8.56267 52.0213 9.10667 51.36 9.768L49.792 7.912C50.688 7.10133 51.6587 6.44 52.704 5.928C53.7707 5.39467 54.976 5.128 56.32 5.128C57.6427 5.128 58.816 5.36267 59.84 5.832C60.8853 6.28 61.696 6.94133 62.272 7.816C62.8693 8.69066 63.168 9.74667 63.168 10.984C63.168 12.4133 62.784 13.5973 62.016 14.536C61.248 15.4747 60.2453 16.168 59.008 16.616V16.776C59.9253 16.9893 60.7573 17.3627 61.504 17.896C62.2507 18.4293 62.848 19.1013 63.296 19.912C63.744 20.7227 63.968 21.6613 63.968 22.728C63.968 24.1147 63.6267 25.3093 62.944 26.312C62.2613 27.3147 61.3547 28.0827 60.224 28.616C59.0933 29.1493 57.824 29.416 56.416 29.416Z" fill="#1C1B1B"/>
<path d="M142.816 29V26.568H148.064V9.064H143.872V7.208C144.917 7.016 145.824 6.78133 146.592 6.504C147.381 6.22667 148.096 5.90667 148.736 5.544H150.976V26.568H155.68V29H142.816ZM161.078 29V27.272C163.531 25.1173 165.547 23.1547 167.126 21.384C168.726 19.6133 169.91 17.9707 170.678 16.456C171.446 14.92 171.83 13.48 171.83 12.136C171.83 11.24 171.67 10.44 171.35 9.736C171.051 9.032 170.582 8.488 169.942 8.104C169.302 7.69866 168.491 7.496 167.51 7.496C166.55 7.496 165.654 7.752 164.822 8.264C164.011 8.776 163.286 9.42667 162.646 10.216L160.95 8.552C161.889 7.50667 162.902 6.67467 163.99 6.056C165.078 5.43733 166.369 5.128 167.862 5.128C169.27 5.128 170.475 5.416 171.478 5.992C172.502 6.54667 173.291 7.34667 173.846 8.392C174.422 9.416 174.71 10.6213 174.71 12.008C174.71 13.5653 174.315 15.144 173.526 16.744C172.758 18.344 171.681 19.976 170.294 21.64C168.929 23.2827 167.329 24.968 165.494 26.696C166.113 26.6533 166.753 26.6107 167.414 26.568C168.097 26.504 168.737 26.472 169.334 26.472H175.83V29H161.078ZM183.788 16.52C183.212 16.52 182.711 16.3173 182.284 15.912C181.879 15.4853 181.676 14.9413 181.676 14.28C181.676 13.6187 181.879 13.0853 182.284 12.68C182.711 12.2533 183.212 12.04 183.788 12.04C184.364 12.04 184.855 12.2533 185.26 12.68C185.687 13.0853 185.9 13.6187 185.9 14.28C185.9 14.9413 185.687 15.4853 185.26 15.912C184.855 16.3173 184.364 16.52 183.788 16.52ZM183.788 29.416C183.212 29.416 182.711 29.2133 182.284 28.808C181.879 28.3813 181.676 27.848 181.676 27.208C181.676 26.5253 181.879 25.9813 182.284 25.576C182.711 25.1707 183.212 24.968 183.788 24.968C184.364 24.968 184.855 25.1707 185.26 25.576C185.687 25.9813 185.9 26.5253 185.9 27.208C185.9 27.848 185.687 28.3813 185.26 28.808C184.855 29.2133 184.364 29.416 183.788 29.416ZM199.062 29.416C197.59 29.416 196.3 28.968 195.19 28.072C194.102 27.176 193.26 25.8213 192.662 24.008C192.065 22.1947 191.766 19.9227 191.766 17.192C191.766 14.4613 192.065 12.2107 192.662 10.44C193.26 8.648 194.102 7.31467 195.19 6.44C196.3 5.56533 197.59 5.128 199.062 5.128C200.556 5.128 201.846 5.576 202.934 6.472C204.022 7.34667 204.865 8.66933 205.462 10.44C206.06 12.2107 206.358 14.4613 206.358 17.192C206.358 19.9227 206.06 22.1947 205.462 24.008C204.865 25.8213 204.022 27.176 202.934 28.072C201.846 28.968 200.556 29.416 199.062 29.416ZM199.062 27.048C199.958 27.048 200.737 26.7067 201.398 26.024C202.081 25.3413 202.604 24.2747 202.966 22.824C203.35 21.352 203.542 19.4747 203.542 17.192C203.542 14.9093 203.35 13.0533 202.966 11.624C202.604 10.1733 202.081 9.11733 201.398 8.456C200.737 7.77333 199.958 7.432 199.062 7.432C198.188 7.432 197.409 7.77333 196.726 8.456C196.044 9.11733 195.51 10.1733 195.126 11.624C194.764 13.0533 194.582 14.9093 194.582 17.192C194.582 19.4747 194.764 21.352 195.126 22.824C195.51 24.2747 196.044 25.3413 196.726 26.024C197.409 26.7067 198.188 27.048 199.062 27.048ZM218.732 29.416C217.26 29.416 215.97 28.968 214.86 28.072C213.772 27.176 212.93 25.8213 212.332 24.008C211.735 22.1947 211.436 19.9227 211.436 17.192C211.436 14.4613 211.735 12.2107 212.332 10.44C212.93 8.648 213.772 7.31467 214.86 6.44C215.97 5.56533 217.26 5.128 218.732 5.128C220.226 5.128 221.516 5.576 222.604 6.472C223.692 7.34667 224.535 8.66933 225.132 10.44C225.73 12.2107 226.028 14.4613 226.028 17.192C226.028 19.9227 225.73 22.1947 225.132 24.008C224.535 25.8213 223.692 27.176 222.604 28.072C221.516 28.968 220.226 29.416 218.732 29.416ZM218.732 27.048C219.628 27.048 220.407 26.7067 221.068 26.024C221.751 25.3413 222.274 24.2747 222.636 22.824C223.02 21.352 223.212 19.4747 223.212 17.192C223.212 14.9093 223.02 13.0533 222.636 11.624C222.274 10.1733 221.751 9.11733 221.068 8.456C220.407 7.77333 219.628 7.432 218.732 7.432C217.858 7.432 217.079 7.77333 216.396 8.456C215.714 9.11733 215.18 10.1733 214.796 11.624C214.434 13.0533 214.252 14.9093 214.252 17.192C214.252 19.4747 214.434 21.352 214.796 22.824C215.18 24.2747 215.714 25.3413 216.396 26.024C217.079 26.7067 217.858 27.048 218.732 27.048Z" fill="#1C1B1B"/>
<path d="M284.88 29V13C284.88 12.424 284.901 11.72 284.944 10.888C284.987 10.056 285.019 9.34133 285.04 8.744H284.912C284.613 9.29867 284.304 9.87466 283.984 10.472C283.685 11.048 283.365 11.624 283.024 12.2L277.68 20.2H290.768V22.536H274.64V20.616L284.4 5.544H287.632V29H284.88Z" fill="#1C1B1B"/>
<path d="M300.08 13.26H310.5V14.72H300.08V13.26ZM300.08 18.08H310.6V19.5H300.08V18.08ZM299.92 22.9H310.5V24.36H299.92V22.9ZM299.14 13.26H300.66V19.42C300.66 20.2867 300.613 21.2133 300.52 22.2C300.44 23.1867 300.267 24.1867 300 25.2C299.733 26.2 299.333 27.1667 298.8 28.1C298.28 29.0333 297.587 29.8733 296.72 30.62C296.653 30.5133 296.547 30.3867 296.4 30.24C296.267 30.0933 296.127 29.9533 295.98 29.82C295.833 29.7 295.7 29.6067 295.58 29.54C296.393 28.82 297.033 28.0467 297.5 27.22C297.98 26.38 298.333 25.5133 298.56 24.62C298.8 23.7267 298.953 22.84 299.02 21.96C299.1 21.0667 299.14 20.22 299.14 19.42V13.26ZM309.84 13.26H311.42V28.38C311.42 28.9133 311.34 29.32 311.18 29.6C311.02 29.88 310.753 30.0867 310.38 30.22C309.993 30.3533 309.453 30.4333 308.76 30.46C308.067 30.5 307.187 30.52 306.12 30.52C306.093 30.36 306.04 30.1867 305.96 30C305.893 29.8133 305.813 29.62 305.72 29.42C305.64 29.2333 305.56 29.0733 305.48 28.94C306.04 28.9533 306.573 28.9667 307.08 28.98C307.6 28.98 308.047 28.98 308.42 28.98C308.807 28.9667 309.073 28.96 309.22 28.96C309.46 28.9467 309.62 28.9 309.7 28.82C309.793 28.7267 309.84 28.5733 309.84 28.36V13.26Z" fill="#1C1B1B"/>
<path d="M362.52 13.56H375.64V30.28H374.04V15.06H364.06V30.38H362.52V13.56ZM363.56 20.48H374.72V21.96H363.56V20.48ZM363.52 27.58H374.74V29.08H363.52V27.58Z" fill="#1C1B1B"/>
<path d="M386.78 30.92C385.86 29.4267 385.14 27.86 384.62 26.22C384.1 24.5667 383.84 22.7533 383.84 20.78C383.84 18.82 384.1 17.0133 384.62 15.36C385.14 13.7067 385.86 12.1333 386.78 10.64L387.9 11.16C387.047 12.5867 386.407 14.1267 385.98 15.78C385.567 17.42 385.36 19.0867 385.36 20.78C385.36 22.4867 385.567 24.1667 385.98 25.82C386.407 27.46 387.047 28.9933 387.9 30.42L386.78 30.92ZM391.298 15.12H408.658V16.62H391.298V15.12ZM399.158 10.22H400.738V28.6H399.158V10.22ZM398.818 15.88L400.118 16.34C399.651 17.38 399.104 18.3933 398.478 19.38C397.851 20.3667 397.171 21.3067 396.438 22.2C395.704 23.08 394.931 23.8867 394.118 24.62C393.318 25.34 392.491 25.9533 391.638 26.46C391.558 26.3267 391.444 26.1867 391.298 26.04C391.164 25.88 391.031 25.7267 390.898 25.58C390.764 25.4333 390.638 25.3067 390.518 25.2C391.344 24.7467 392.158 24.1867 392.958 23.52C393.771 22.8533 394.538 22.1067 395.258 21.28C395.991 20.44 396.658 19.5667 397.258 18.66C397.871 17.74 398.391 16.8133 398.818 15.88ZM401.038 15.92C401.478 16.8133 402.004 17.7133 402.618 18.62C403.231 19.5133 403.904 20.3733 404.638 21.2C405.384 22.0267 406.158 22.7733 406.958 23.44C407.758 24.1067 408.558 24.6667 409.358 25.12C409.238 25.2133 409.104 25.34 408.958 25.5C408.811 25.6467 408.671 25.8 408.538 25.96C408.404 26.12 408.298 26.2733 408.218 26.42C407.404 25.9 406.598 25.28 405.798 24.56C404.998 23.8267 404.224 23.02 403.478 22.14C402.744 21.2467 402.058 20.3133 401.418 19.34C400.791 18.3533 400.238 17.3667 399.758 16.38L401.038 15.92ZM413.138 30.92L411.998 30.42C412.864 28.9933 413.511 27.46 413.938 25.82C414.364 24.1667 414.578 22.4867 414.578 20.78C414.578 19.0867 414.364 17.42 413.938 15.78C413.511 14.1267 412.864 12.5867 411.998 11.16L413.138 10.64C414.071 12.1333 414.791 13.7067 415.298 15.36C415.818 17.0133 416.078 18.82 416.078 20.78C416.078 22.7533 415.818 24.5667 415.298 26.22C414.791 27.86 414.071 29.4267 413.138 30.92Z" fill="#1C1B1B"/>
<path d="M320.816 29V26.568H326.064V9.064H321.872V7.208C322.917 7.016 323.824 6.78133 324.592 6.504C325.381 6.22667 326.096 5.90667 326.736 5.544H328.976V26.568H333.68V29H320.816ZM346.566 29.416C345.094 29.416 343.803 28.968 342.694 28.072C341.606 27.176 340.763 25.8213 340.166 24.008C339.569 22.1947 339.27 19.9227 339.27 17.192C339.27 14.4613 339.569 12.2107 340.166 10.44C340.763 8.648 341.606 7.31467 342.694 6.44C343.803 5.56533 345.094 5.128 346.566 5.128C348.059 5.128 349.35 5.576 350.438 6.472C351.526 7.34667 352.369 8.66933 352.966 10.44C353.563 12.2107 353.862 14.4613 353.862 17.192C353.862 19.9227 353.563 22.1947 352.966 24.008C352.369 25.8213 351.526 27.176 350.438 28.072C349.35 28.968 348.059 29.416 346.566 29.416ZM346.566 27.048C347.462 27.048 348.241 26.7067 348.902 26.024C349.585 25.3413 350.107 24.2747 350.47 22.824C350.854 21.352 351.046 19.4747 351.046 17.192C351.046 14.9093 350.854 13.0533 350.47 11.624C350.107 10.1733 349.585 9.11733 348.902 8.456C348.241 7.77333 347.462 7.432 346.566 7.432C345.691 7.432 344.913 7.77333 344.23 8.456C343.547 9.11733 343.014 10.1733 342.63 11.624C342.267 13.0533 342.086 14.9093 342.086 17.192C342.086 19.4747 342.267 21.352 342.63 22.824C343.014 24.2747 343.547 25.3413 344.23 26.024C344.913 26.7067 345.691 27.048 346.566 27.048Z" fill="#1C1B1B"/>
<path d="M425.408 29V27.272C427.861 25.1173 429.877 23.1547 431.456 21.384C433.056 19.6133 434.24 17.9707 435.008 16.456C435.776 14.92 436.16 13.48 436.16 12.136C436.16 11.24 436 10.44 435.68 9.736C435.381 9.032 434.912 8.488 434.272 8.104C433.632 7.69866 432.821 7.496 431.84 7.496C430.88 7.496 429.984 7.752 429.152 8.264C428.341 8.776 427.616 9.42667 426.976 10.216L425.28 8.552C426.219 7.50667 427.232 6.67467 428.32 6.056C429.408 5.43733 430.699 5.128 432.192 5.128C433.6 5.128 434.805 5.416 435.808 5.992C436.832 6.54667 437.621 7.34667 438.176 8.392C438.752 9.416 439.04 10.6213 439.04 12.008C439.04 13.5653 438.645 15.144 437.856 16.744C437.088 18.344 436.011 19.976 434.624 21.64C433.259 23.2827 431.659 24.968 429.824 26.696C430.443 26.6533 431.083 26.6107 431.744 26.568C432.427 26.504 433.067 26.472 433.664 26.472H440.16V29H425.408ZM452.086 29.416C450.87 29.416 449.793 29.2667 448.854 28.968C447.937 28.6693 447.126 28.2747 446.422 27.784C445.718 27.2933 445.11 26.76 444.598 26.184L446.102 24.296C446.785 25 447.585 25.6293 448.502 26.184C449.441 26.7173 450.571 26.984 451.894 26.984C452.833 26.984 453.654 26.8133 454.358 26.472C455.083 26.1093 455.649 25.608 456.054 24.968C456.459 24.3067 456.662 23.528 456.662 22.632C456.662 21.6933 456.427 20.872 455.958 20.168C455.51 19.464 454.753 18.92 453.686 18.536C452.619 18.1307 451.179 17.928 449.366 17.928V15.688C450.987 15.688 452.267 15.496 453.206 15.112C454.145 14.7067 454.817 14.1627 455.222 13.48C455.649 12.7973 455.862 12.04 455.862 11.208C455.862 10.0773 455.51 9.18133 454.806 8.52C454.102 7.83733 453.131 7.496 451.894 7.496C450.955 7.496 450.07 7.70933 449.238 8.136C448.427 8.56267 447.691 9.10667 447.03 9.768L445.462 7.912C446.358 7.10133 447.329 6.44 448.374 5.928C449.441 5.39467 450.646 5.128 451.99 5.128C453.313 5.128 454.486 5.36267 455.51 5.832C456.555 6.28 457.366 6.94133 457.942 7.816C458.539 8.69066 458.838 9.74667 458.838 10.984C458.838 12.4133 458.454 13.5973 457.686 14.536C456.918 15.4747 455.915 16.168 454.678 16.616V16.776C455.595 16.9893 456.427 17.3627 457.174 17.896C457.921 18.4293 458.518 19.1013 458.966 19.912C459.414 20.7227 459.638 21.6613 459.638 22.728C459.638 24.1147 459.297 25.3093 458.614 26.312C457.931 27.3147 457.025 28.0827 455.894 28.616C454.763 29.1493 453.494 29.416 452.086 29.416ZM467.788 16.52C467.212 16.52 466.711 16.3173 466.284 15.912C465.879 15.4853 465.676 14.9413 465.676 14.28C465.676 13.6187 465.879 13.0853 466.284 12.68C466.711 12.2533 467.212 12.04 467.788 12.04C468.364 12.04 468.855 12.2533 469.26 12.68C469.687 13.0853 469.9 13.6187 469.9 14.28C469.9 14.9413 469.687 15.4853 469.26 15.912C468.855 16.3173 468.364 16.52 467.788 16.52ZM467.788 29.416C467.212 29.416 466.711 29.2133 466.284 28.808C465.879 28.3813 465.676 27.848 465.676 27.208C465.676 26.5253 465.879 25.9813 466.284 25.576C466.711 25.1707 467.212 24.968 467.788 24.968C468.364 24.968 468.855 25.1707 469.26 25.576C469.687 25.9813 469.9 26.5253 469.9 27.208C469.9 27.848 469.687 28.3813 469.26 28.808C468.855 29.2133 468.364 29.416 467.788 29.416ZM482.55 29.416C481.334 29.416 480.257 29.2667 479.318 28.968C478.401 28.6693 477.59 28.2853 476.886 27.816C476.204 27.3467 475.585 26.8453 475.03 26.312L476.502 24.392C476.95 24.84 477.441 25.2667 477.974 25.672C478.529 26.056 479.158 26.376 479.862 26.632C480.566 26.8667 481.366 26.984 482.262 26.984C483.18 26.984 484.012 26.76 484.758 26.312C485.526 25.864 486.134 25.224 486.582 24.392C487.03 23.56 487.254 22.5787 487.254 21.448C487.254 19.784 486.806 18.4827 485.91 17.544C485.036 16.584 483.862 16.104 482.39 16.104C481.622 16.104 480.95 16.2213 480.374 16.456C479.798 16.6907 479.169 17.032 478.486 17.48L476.918 16.488L477.686 5.544H489.078V8.04H480.246L479.638 14.824C480.15 14.5253 480.684 14.3013 481.238 14.152C481.814 13.9813 482.454 13.896 483.158 13.896C484.46 13.896 485.644 14.1627 486.71 14.696C487.777 15.208 488.63 16.0187 489.27 17.128C489.91 18.2373 490.23 19.656 490.23 21.384C490.23 23.0907 489.857 24.5413 489.11 25.736C488.385 26.9307 487.436 27.848 486.262 28.488C485.089 29.1067 483.852 29.416 482.55 29.416ZM501.356 29.416C500.076 29.416 498.967 29.192 498.028 28.744C497.111 28.2747 496.332 27.6987 495.692 27.016L497.292 25.192C497.804 25.7467 498.402 26.184 499.084 26.504C499.788 26.824 500.514 26.984 501.26 26.984C502.05 26.984 502.796 26.8027 503.5 26.44C504.204 26.0773 504.823 25.48 505.356 24.648C505.911 23.7947 506.338 22.6853 506.636 21.32C506.956 19.9547 507.116 18.2693 507.116 16.264C507.116 14.344 506.914 12.7227 506.508 11.4C506.124 10.0773 505.548 9.08533 504.78 8.424C504.012 7.74133 503.084 7.4 501.996 7.4C501.25 7.4 500.578 7.624 499.98 8.072C499.383 8.52 498.903 9.13867 498.54 9.928C498.178 10.7173 497.996 11.656 497.996 12.744C497.996 13.7893 498.146 14.7067 498.444 15.496C498.764 16.264 499.234 16.8613 499.852 17.288C500.492 17.7147 501.271 17.928 502.188 17.928C502.978 17.928 503.799 17.6827 504.652 17.192C505.527 16.68 506.359 15.848 507.148 14.696L507.276 17.032C506.807 17.6293 506.263 18.1627 505.644 18.632C505.047 19.1013 504.407 19.464 503.724 19.72C503.063 19.976 502.391 20.104 501.708 20.104C500.407 20.104 499.266 19.8267 498.284 19.272C497.324 18.7173 496.578 17.896 496.044 16.808C495.511 15.6987 495.244 14.344 495.244 12.744C495.244 11.208 495.554 9.87467 496.172 8.744C496.791 7.592 497.602 6.70667 498.604 6.088C499.628 5.448 500.748 5.128 501.964 5.128C503.095 5.128 504.14 5.36267 505.1 5.832C506.06 6.28 506.892 6.97333 507.596 7.912C508.3 8.82933 508.855 9.98133 509.26 11.368C509.666 12.7547 509.868 14.3867 509.868 16.264C509.868 18.632 509.634 20.6587 509.164 22.344C508.695 24.008 508.055 25.3627 507.244 26.408C506.434 27.4533 505.516 28.2213 504.492 28.712C503.49 29.1813 502.444 29.416 501.356 29.416Z" fill="#1C1B1B"/>
<path d="M249.104 17.736C248.251 16.9253 247.419 16.2853 246.608 15.816C245.819 15.3467 244.837 15.112 243.664 15.112C242.405 15.112 241.243 15.5067 240.176 16.296C239.131 17.064 238.277 18.0773 237.616 19.336L235.344 18.12C236.347 16.2853 237.563 14.8987 238.992 13.96C240.443 13 242.011 12.52 243.696 12.52C245.147 12.52 246.427 12.8187 247.536 13.416C248.667 13.992 249.787 14.8347 250.896 15.944C251.749 16.7547 252.581 17.3947 253.392 17.864C254.203 18.3333 255.184 18.568 256.336 18.568C257.595 18.568 258.747 18.184 259.792 17.416C260.859 16.6267 261.723 15.6027 262.384 14.344L264.656 15.56C263.653 17.3947 262.427 18.792 260.976 19.752C259.547 20.6907 257.989 21.16 256.304 21.16C254.875 21.16 253.595 20.872 252.464 20.296C251.333 19.6987 250.213 18.8453 249.104 17.736Z" fill="#1C1B1B"/>
</svg>
