<svg width="517" height="295" viewBox="0 0 517 295" fill="none" xmlns="http://www.w3.org/2000/svg">
<path d="M515.435 151.466L310.707 290.153C309.891 290.707 308.946 291 308 291C307.054 291 306.109 290.707 305.293 290.153L246.301 250.193L230.192 239.274L100.565 151.466C98.4782 150.032 98.4782 146.968 100.565 145.534L230.192 57.7263L246.301 46.8074L305.293 6.84744C306.109 6.29334 307.054 6 308 6C308.946 6 309.891 6.29334 310.707 6.84744L515.435 145.534C517.522 146.968 517.522 150.032 515.435 151.466Z" fill="#A93B3E"/>
<path d="M222.427 276.54L22.7883 147.508L222.427 18.4762L270.566 49.5922L286.967 38.9665L230.345 2.33133C225.521 -0.777109 219.3 -0.777109 214.477 2.33133L5.62223 137.358C2.09586 139.642 0 143.448 0 147.508C0 151.568 2.09586 155.374 5.62223 157.658L214.477 292.653C216.872 294.207 219.666 295 222.427 295C225.189 295 227.95 294.207 230.378 292.653L287 256.049L270.566 245.424L222.427 276.54Z" fill="#A93B3E"/>
</svg>
