<svg width="90" height="63" viewBox="0 0 90 63" fill="none" xmlns="http://www.w3.org/2000/svg">
<path d="M18.7539 0.0758234L0.1423 12.7309C-0.0474333 12.8588 -0.0474333 13.1412 0.1423 13.2691L18.7539 25.9242C18.9022 26.0253 19.0978 26.0253 19.2461 25.9242L37.8577 13.2691C38.0474 13.1412 38.0474 12.8588 37.8577 12.7309L19.2461 0.0758234C19.0978 -0.0252745 18.9022 -0.0252745 18.7539 0.0758234Z" fill="#A3CE6B"/>
<path d="M47.3503 60.6846L23.6997 44.501L47.3503 28.3173L53.0531 32.22L54.9961 30.8873L48.2883 26.2924C47.7168 25.9025 46.9798 25.9025 46.4084 26.2924L21.666 43.2279C21.2483 43.5144 21 43.9918 21 44.501C21 45.0102 21.2483 45.4876 21.666 45.774L46.4084 62.7056C46.6921 62.9005 47.0232 63 47.3503 63C47.6774 63 48.0045 62.9005 48.2922 62.7056L55 58.1147L53.0531 56.7819L47.3503 60.6846Z" fill="#A93B3E"/>
<path d="M89.809 44.8643L64.8302 61.8959C64.7308 61.964 64.6154 62 64.5 62C64.3846 62 64.2692 61.964 64.1698 61.8959L39.191 44.8643C38.9363 44.6881 38.9363 44.3119 39.191 44.1357L64.1698 27.1041C64.2692 27.036 64.3846 27 64.5 27C64.6154 27 64.7308 27.036 64.8302 27.1041L89.809 44.1357C90.0637 44.3119 90.0637 44.6881 89.809 44.8643Z" fill="#A93B3E"/>
</svg>
