<svg width="64" height="58" viewBox="0 0 64 58" fill="none" xmlns="http://www.w3.org/2000/svg">
<path d="M24.6762 0.0991537L0.187237 16.6481C-0.0624122 16.8153 -0.0624122 17.1847 0.187237 17.3519L24.6762 33.9008C24.8713 34.0331 25.1287 34.0331 25.3238 33.9008L49.8128 17.3519C50.0624 17.1847 50.0624 16.8153 49.8128 16.6481L25.3238 0.0991537C25.1287 -0.0330512 24.8713 -0.0330512 24.6762 0.0991537Z" fill="#A93B3E"/>
<path d="M49.8187 39.0554L36.1049 48.3034C35.965 48.3968 35.965 48.6032 36.1049 48.6967L49.8187 57.9446C49.9279 58.0185 50.0721 58.0185 50.1813 57.9446L63.8951 48.6967C64.035 48.6032 64.035 48.3968 63.8951 48.3034L50.1813 39.0554C50.0721 38.9815 49.9279 38.9815 49.8187 39.0554Z" fill="#E9DB4D"/>
</svg>
