<svg width="74" height="53" viewBox="0 0 74 53" fill="none" xmlns="http://www.w3.org/2000/svg">
<path d="M12.3381 0.0495769L0.0936183 8.32405C-0.0312061 8.40765 -0.0312061 8.59235 0.0936183 8.67595L12.3381 16.9504C12.4356 17.0165 12.5644 17.0165 12.6619 16.9504L24.9064 8.67595C25.0312 8.59235 25.0312 8.40765 24.9064 8.32405L12.6619 0.0495769C12.5644 -0.0165256 12.4356 -0.0165256 12.3381 0.0495769Z" fill="#A3CE6B"/>
<path d="M38.7002 51.0601L19.2233 37.5008L38.7002 23.9416L43.3967 27.2114L44.9968 26.0948L39.4727 22.245C39.0021 21.9183 38.3952 21.9183 37.9245 22.245L17.5485 36.4342C17.2045 36.6742 17 37.0742 17 37.5008C17 37.9275 17.2045 38.3275 17.5485 38.5674L37.9245 52.7533C38.1582 52.9167 38.4309 53 38.7002 53C38.9696 53 39.239 52.9167 39.4759 52.7533L45 48.9069L43.3967 47.7903L38.7002 51.0601Z" fill="#A93B3E"/>
<path d="M73.8427 37.8018L53.272 51.9138C53.19 51.9701 53.095 52 53 52C52.905 52 52.81 51.9701 52.728 51.9138L32.1573 37.8018C31.9476 37.6559 31.9476 37.3441 32.1573 37.1982L52.728 23.0862C52.81 23.0298 52.905 23 53 23C53.095 23 53.19 23.0298 53.272 23.0862L73.8427 37.1982C74.0524 37.3441 74.0524 37.6559 73.8427 37.8018Z" fill="#A93B3E"/>
</svg>
