<svg width="336" height="60" viewBox="0 0 336 60" fill="none" xmlns="http://www.w3.org/2000/svg">
<path d="M43.103 56.2061L4.41603 29.9807L43.103 3.75524L52.4314 10.0795L55.6097 7.91985L44.6373 0.473837C43.7025 -0.157946 42.497 -0.157946 41.5622 0.473837L1.0895 27.9177C0.406146 28.3819 0 29.1555 0 29.9807C0 30.8059 0.406146 31.5795 1.0895 32.0436L41.5622 59.481C42.0264 59.7969 42.5679 59.9581 43.103 59.9581C43.6381 59.9581 44.1732 59.7969 44.6438 59.481L55.6161 52.0415L52.4314 49.8818L43.103 56.2061Z" fill="#A93B3E"/>
<path d="M111.691 30.5674L71.2178 57.9984C71.0567 58.108 70.8697 58.166 70.6827 58.166C70.4958 58.166 70.3088 58.108 70.1477 57.9984L29.6749 30.5674C29.2623 30.2838 29.2623 29.6778 29.6749 29.3941L70.1477 1.96316C70.3088 1.85356 70.4958 1.79554 70.6827 1.79554C70.8697 1.79554 71.0567 1.85356 71.2178 1.96316L111.691 29.3941C112.103 29.6778 112.103 30.2838 111.691 30.5674Z" fill="#A93B3E"/>
<path d="M43.103 56.2061L4.41603 29.9807L43.103 3.75524L52.4314 10.0795L55.6097 7.91985L44.6373 0.473837C43.7025 -0.157946 42.497 -0.157946 41.5622 0.473837L1.0895 27.9177C0.406146 28.3819 0 29.1555 0 29.9807C0 30.8059 0.406146 31.5795 1.0895 32.0436L41.5622 59.481C42.0264 59.7969 42.5679 59.9581 43.103 59.9581C43.6381 59.9581 44.1732 59.7969 44.6438 59.481L55.6161 52.0415L52.4314 49.8818L43.103 56.2061Z" fill="#A93B3E"/>
<path d="M111.691 30.5674L71.2178 57.9984C71.0567 58.108 70.8697 58.166 70.6827 58.166C70.4958 58.166 70.3088 58.108 70.1477 57.9984L29.6749 30.5674C29.2623 30.2838 29.2623 29.6778 29.6749 29.3941L70.1477 1.96316C70.3088 1.85356 70.4958 1.79554 70.6827 1.79554C70.8697 1.79554 71.0567 1.85356 71.2178 1.96316L111.691 29.3941C112.103 29.6778 112.103 30.2838 111.691 30.5674Z" fill="#A93B3E"/>
<path d="M155.103 56.1996L116.416 29.9742L155.103 3.74879L164.432 10.0731L167.61 7.9134L156.637 0.473837C155.703 -0.157946 154.497 -0.157946 153.562 0.473837L113.09 27.9113C112.406 28.3754 112 29.149 112 29.9742C112 30.7994 112.406 31.573 113.09 32.0372L153.562 59.4746C154.027 59.7905 154.568 59.9517 155.103 59.9517C155.638 59.9517 156.173 59.7905 156.644 59.4746L167.616 52.035L164.432 49.8754L155.103 56.1996Z" fill="#BE86B9"/>
<path d="M223.691 30.5609L183.218 57.9919C183.057 58.1015 182.87 58.1595 182.683 58.1595C182.496 58.1595 182.309 58.1015 182.148 57.9919L141.675 30.5609C141.262 30.2773 141.262 29.6713 141.675 29.3876L182.148 1.95666C182.309 1.84706 182.496 1.78904 182.683 1.78904C182.87 1.78904 183.057 1.84706 183.218 1.95666L223.691 29.3876C224.103 29.6713 224.103 30.2773 223.691 30.5609Z" fill="#BE86B9"/>
<path d="M267.103 56.1996L228.416 29.9742L267.103 3.74879L276.432 10.0731L279.61 7.9134L268.637 0.473837C267.703 -0.157946 266.497 -0.157946 265.562 0.473837L225.09 27.9113C224.406 28.3754 224 29.149 224 29.9742C224 30.7994 224.406 31.573 225.09 32.0372L265.562 59.4746C266.026 59.7905 266.568 59.9517 267.103 59.9517C267.638 59.9517 268.173 59.7905 268.644 59.4746L279.616 52.035L276.432 49.8754L267.103 56.1996Z" fill="#A3CE6B"/>
<path d="M335.691 30.5609L295.218 57.9919C295.057 58.1015 294.87 58.1595 294.683 58.1595C294.496 58.1595 294.309 58.1015 294.148 57.9919L253.675 30.5609C253.262 30.2773 253.262 29.6713 253.675 29.3876L294.148 1.95665C294.309 1.84706 294.496 1.78904 294.683 1.78904C294.87 1.78904 295.057 1.84706 295.218 1.95665L335.691 29.3876C336.103 29.6713 336.103 30.2773 335.691 30.5609Z" fill="#A3CE6B"/>
</svg>
