<svg width="37" height="46" viewBox="0 0 37 46" fill="none" xmlns="http://www.w3.org/2000/svg">
<path d="M34.752 0.132202C35.0178 0.0124207 35.3282 0.0243795 35.584 0.164429C35.8398 0.304502 36.0095 0.555019 36.0381 0.838257C36.3587 3.99222 36.1404 6.53906 35.3662 8.61951C34.62 10.6242 33.3475 12.1541 31.5781 13.1781C32.6405 15.3497 32.8524 17.0568 33.0576 18.7074C33.1687 19.6028 33.2736 20.4448 33.5078 21.3734L33.5137 21.3998C34.124 24.1956 34.7016 25.2673 35.166 26.1283C35.4864 26.722 35.7912 27.2877 36.0156 28.1888L36.1221 28.599C36.6224 30.6403 36.6236 32.5304 36.1064 34.3236C35.5548 36.236 34.4142 38.0341 32.6709 39.7865C29.3313 43.1964 24.2474 45.1498 18.7197 45.1498H18.6426C15.9274 45.1412 13.2618 44.6751 10.7197 43.766C8.22374 42.8734 5.9731 41.5949 4.02246 39.9623L3.63574 39.6312C3.62676 39.6232 3.6165 39.6142 3.60645 39.6039L3.34277 39.3412C2.04579 38.0032 1.08548 36.309 0.553711 34.4193C0.0148012 32.5038 -0.023293 30.5329 0.449219 28.8646C0.642945 27.8704 1.08737 26.8782 1.55371 25.8353C2.10324 24.6069 2.6675 23.3425 2.90625 21.933C2.90734 21.9249 2.90901 21.9174 2.91016 21.9125C3.09347 20.9638 3.21582 20.0942 3.33301 19.2513L3.44629 18.4515C3.71368 16.6237 4.04329 14.9471 5.04883 13.1586C2.92551 12.0677 1.51637 10.3539 0.759766 7.94763C0.0481488 5.68363 0.0498047 3.24113 0.0498047 1.09509V0.942749C0.0498047 0.652415 0.199734 0.381632 0.448242 0.219116H0.449219C0.697828 0.0575096 1.01318 0.0239818 1.29199 0.131226L2.34961 0.548218C3.55919 1.04745 5.16369 1.80473 6.61719 2.93103C8.6005 4.46692 9.81264 6.30469 10.2344 8.40759C15.3969 5.56999 20.7632 5.59054 26.2207 8.46326C26.4655 6.9705 27.1979 5.5708 28.4072 4.28845C29.8415 2.76692 31.9185 1.40743 34.752 0.132202ZM1.86816 2.25134C1.88717 4.12394 1.99831 6.11089 2.64062 7.84705C3.29066 9.60397 4.4844 11.1044 6.68164 11.9681C6.93152 12.0663 7.12344 12.2666 7.20508 12.515V12.516C7.28579 12.7646 7.24831 13.0359 7.10059 13.2543C5.71673 15.3065 5.4596 17.144 5.13184 19.4847C5.01193 20.3445 4.88599 21.2347 4.69531 22.223C4.41916 23.8428 3.78097 25.272 3.21973 26.5267C2.78498 27.4982 2.37815 28.4087 2.22656 29.2172L2.20801 29.2963C1.36185 32.2322 2.48037 36.0393 4.87305 38.3519L5.22949 38.6566C8.9467 41.7541 13.8199 43.3306 18.5566 43.3715C23.4465 43.4136 28.1852 41.8192 31.3555 38.5824H31.3564C32.8891 37.0418 33.876 35.505 34.3496 33.8793C34.823 32.2542 34.7845 30.5357 34.2588 28.6283C34.2573 28.6236 34.2566 28.6186 34.2559 28.6156C34.255 28.6122 34.2544 28.6103 34.2539 28.6088L34.2529 28.6058C34.0805 27.9079 33.8502 27.4806 33.5557 26.934C33.0405 25.9788 32.3995 24.7896 31.7402 21.7728L31.6504 21.392C31.4544 20.5141 31.3536 19.7015 31.2559 18.9144C31.0366 17.1469 30.829 15.4845 29.5703 13.224C29.4524 13.0125 29.4309 12.7632 29.5088 12.5355C29.5868 12.308 29.7586 12.1216 29.9824 12.0199L30.2783 11.8783C31.7309 11.142 32.7915 10.0201 33.4678 8.49548C34.1825 6.88401 34.4673 4.81946 34.3301 2.27869C29.8699 4.51346 27.7964 7.01581 27.9502 9.89783C27.9677 10.2253 27.7942 10.5337 27.502 10.6976C27.2099 10.8621 26.8468 10.8562 26.5605 10.682C23.6725 8.92495 20.8755 8.04142 18.1299 8.02869C15.3845 8.01596 12.6863 8.87357 9.99609 10.6039C9.72204 10.7802 9.36972 10.7985 9.07715 10.6537C8.7845 10.5086 8.59541 10.2207 8.58594 9.90173C8.51954 7.69768 7.48226 6.05344 6.13086 4.82166C4.80235 3.61086 3.17178 2.80013 1.86816 2.25134ZM18.2051 22.7494C18.6525 22.7577 19.0576 23.003 19.2617 23.39L19.3389 23.5375C20.0157 24.8197 20.6998 26.1734 21.2119 27.4154C21.7232 28.6553 22.0659 29.7905 22.0547 30.6342L22.0488 30.889C21.9811 32.1499 21.3473 33.2008 20.2812 33.7963C19.6692 34.1383 18.9667 34.308 18.2588 34.308C17.5329 34.308 16.8015 34.1293 16.1602 33.7709C15.069 33.161 14.4194 32.1167 14.3506 30.8822L14.3447 30.6332C14.3369 30.0378 14.4902 29.3153 14.7266 28.5619C14.9633 27.8074 15.2844 27.0178 15.6152 26.2875C16.2766 24.8276 16.9774 23.5997 17.1221 23.35C17.342 22.9704 17.7598 22.7418 18.2051 22.7494ZM16.1582 30.639C16.1497 31.5517 16.6488 32.0224 17.0703 32.2582C17.7606 32.6442 18.708 32.6537 19.3701 32.2836C19.944 31.9629 20.2466 31.3975 20.2393 30.6381V30.6166L20.2285 30.3715C20.203 30.1105 20.1347 29.8027 20.0352 29.4642C19.9027 29.0139 19.7154 28.5121 19.501 27.9984C19.0876 27.0078 18.5754 25.9751 18.167 25.183C17.7037 26.0626 17.2041 27.1061 16.8193 28.0814C16.4211 29.091 16.1485 30.0194 16.1582 30.6166V30.639Z" fill="#1C1B1B" stroke="#1C1B1B" stroke-width="0.1"/>
</svg>
