<svg width="30" height="30" viewBox="0 0 30 30" fill="none" xmlns="http://www.w3.org/2000/svg">
<path d="M8.78771 0.104907C7.1917 0.180207 6.10179 0.434908 5.14898 0.809309C4.16287 1.19361 3.32706 1.70931 2.49545 2.54392C1.66384 3.37852 1.15174 4.21492 0.770132 5.20252C0.400828 6.15743 0.150626 7.24823 0.0801251 8.84514C0.00962443 10.442 -0.00597574 10.9553 0.00182434 15.0288C0.00962442 19.1022 0.0276246 19.6128 0.105025 21.213C0.181226 22.8087 0.435029 23.8983 0.809433 24.8514C1.19434 25.8375 1.70944 26.673 2.54435 27.5049C3.37926 28.3368 4.21507 28.8477 5.20508 29.2299C6.15909 29.5986 7.2502 29.85 8.84682 29.9199C10.4434 29.9898 10.9573 30.006 15.0296 29.9982C19.1018 29.9904 19.6145 29.9724 21.2144 29.8965C22.8144 29.8206 23.8983 29.565 24.8517 29.1924C25.8378 28.8066 26.6739 28.2924 27.5052 27.4572C28.3365 26.622 28.8483 25.785 29.2296 24.7968C29.5992 23.8428 29.8503 22.7517 29.9196 21.1563C29.9895 19.5552 30.006 19.044 29.9982 14.9712C29.9904 10.8983 29.9721 10.3877 29.8962 8.78814C29.8203 7.18853 29.5662 6.10223 29.1921 5.14852C28.8066 4.16242 28.2921 3.32752 27.4575 2.49501C26.6229 1.66251 25.7853 1.15101 24.7974 0.770609C23.8428 0.401308 22.7523 0.149607 21.1556 0.0806067C19.559 0.0116065 19.0451 -0.0060936 14.9714 0.00170642C10.8976 0.00950645 10.3876 0.0269065 8.78771 0.104907ZM8.96292 27.2214C7.5004 27.1578 6.70629 26.9148 6.17709 26.7114C5.47628 26.4414 4.97708 26.115 4.44967 25.5927C3.92226 25.0704 3.59826 24.5694 3.32466 23.8701C3.11916 23.3409 2.87165 22.5477 2.80325 21.0852C2.72885 19.5045 2.71325 19.0299 2.70455 15.0252C2.69585 11.0204 2.71115 10.5464 2.78045 8.96514C2.84285 7.50383 3.08736 6.70883 3.29046 6.17993C3.56046 5.47823 3.88566 4.97992 4.40917 4.45282C4.93267 3.92572 5.43218 3.60112 6.13209 3.32752C6.66069 3.12112 7.4539 2.87572 8.91582 2.80612C10.4977 2.73112 10.9717 2.71612 14.9759 2.70742C18.98 2.69872 19.4552 2.71372 21.0377 2.78332C22.4991 2.84692 23.2944 3.08902 23.8227 3.29332C24.5238 3.56332 25.0227 3.88762 25.5498 4.41202C26.0769 4.93642 26.4018 5.43413 26.6754 6.13553C26.8821 6.66263 27.1275 7.45553 27.1965 8.91834C27.2718 10.5002 27.2889 10.9745 27.2961 14.9784C27.3033 18.9822 27.2892 19.4577 27.2199 21.0384C27.156 22.5009 26.9136 23.2953 26.7099 23.8251C26.4399 24.5256 26.1144 25.0251 25.5906 25.5519C25.0668 26.0787 24.5679 26.4033 23.8677 26.6769C23.3397 26.883 22.5456 27.129 21.0848 27.1986C19.5029 27.273 19.0289 27.2886 15.0233 27.2973C11.0176 27.306 10.5451 27.2898 8.96322 27.2214M21.1913 6.98303C21.1919 7.33906 21.2981 7.68692 21.4964 7.98261C21.6947 8.27831 21.9763 8.50855 22.3054 8.64422C22.6346 8.77989 22.9966 8.8149 23.3457 8.74481C23.6948 8.67473 24.0152 8.5027 24.2665 8.25049C24.5178 7.99827 24.6886 7.6772 24.7574 7.32788C24.8262 6.97856 24.7899 6.61668 24.653 6.28801C24.5162 5.95934 24.2849 5.67864 23.9885 5.48142C23.692 5.2842 23.3438 5.17931 22.9878 5.18002C22.5105 5.18098 22.0531 5.37145 21.7162 5.70957C21.3793 6.04768 21.1905 6.50574 21.1913 6.98303ZM7.2982 15.015C7.3066 19.269 10.7614 22.7097 15.0146 22.7016C19.2677 22.6935 22.7109 19.239 22.7028 14.985C22.6947 10.7309 19.2389 7.28933 14.9852 7.29773C10.7314 7.30613 7.2901 10.7615 7.2982 15.015ZM10 15.0096C9.99807 14.0206 10.2894 13.0533 10.8372 12.23C11.385 11.4066 12.1646 10.7642 13.0776 10.384C13.9905 10.0037 14.9956 9.9027 15.9659 10.0937C16.9363 10.2847 17.8281 10.7592 18.5288 11.4571C19.2295 12.155 19.7074 13.0449 19.9023 14.0145C20.0972 14.984 20.0001 15.9896 19.6235 16.904C19.2468 17.8184 18.6075 18.6006 17.7863 19.1516C16.9652 19.7027 15.999 19.9978 15.0101 19.9998C14.3534 20.0012 13.7029 19.8732 13.0958 19.6231C12.4886 19.3731 11.9366 19.0059 11.4714 18.5425C11.0061 18.0791 10.6367 17.5285 10.3843 16.9224C10.1318 16.3162 10.0012 15.6662 10 15.0096Z" fill="white"/>
</svg>
