<svg width="738" height="383" viewBox="0 0 738 383" fill="none" xmlns="http://www.w3.org/2000/svg">
<path d="M274.835 357.394L28.0801 191.754L273.319 23.8783L332.818 63.8223L352.965 49.9979L282.98 2.96868C277.018 -1.02156 269.352 -0.986714 263.427 3.05758L6.86828 178.733C2.53648 181.704 -0.0236899 186.635 0.000165249 191.882C0.0240204 197.129 2.62892 202.036 6.98756 204.968L265.132 378.263C268.093 380.258 271.541 381.267 274.943 381.251C278.346 381.236 281.744 380.196 284.727 378.173L354.281 330.551L333.968 316.91L274.835 357.394Z" fill="#A93B3E"/>
<path d="M455.928 4.2772L183.61 188.749C180.834 190.613 180.834 194.731 183.61 196.595L455.928 381.067C458.097 382.54 460.959 382.54 463.128 381.067L735.446 196.595C738.222 194.731 738.222 190.613 735.446 188.749L463.128 4.2772C460.959 2.8035 458.097 2.8035 455.928 4.2772Z" fill="#FAF4F4"/>
</svg>
